<svg width="105" height="91" viewBox="0 0 105 91" xmlns="http://www.w3.org/2000/svg"><title>5</title><g fill="none" fill-rule="evenodd"><path d="M52.149 41.898c4.539 0 7.889.905 10.051 2.714 2.162 1.81 3.243 4.232 3.243 7.268 0 1.963-.49 3.749-1.472 5.359-.981 1.61-2.476 2.898-4.485 3.864-2.009.966-4.485 1.449-7.429 1.449-2.27 0-4.5-.299-6.693-.897-2.193-.598-4.056-1.449-5.589-2.553l2.944-5.704c1.227.92 2.637 1.633 4.232 2.139 1.595.506 3.235.759 4.922.759 1.87 0 3.343-.368 4.416-1.104 1.073-.736 1.61-1.763 1.61-3.082 0-1.38-.56-2.423-1.679-3.128-1.12-.705-3.059-1.058-5.819-1.058h-8.234L43.823 29.8h19.642v5.98H50.033l-.506 6.118h2.622z" fill="#FFF"/><g fill-rule="nonzero" fill="#BD9B5C"><path d="M71.531 10.297c3.413 1.796 6.431 2.994 7.35 2.156.788-.839-1.05-3.592-4.856-5.628-1.838-1.078-6.3-2.395-10.5-3.113-4.2-.719-8.137-.719-8.137-.838 0 0 3.806 1.077 7.35 2.754 3.674 1.556 7.087 3.711 8.793 4.67zm6.563 4.79c-3.019-.838-10.5 1.317-10.5 1.437 0 0 2.494.598 5.25 1.556 2.756.958 5.512 2.275 6.825 2.754 2.625.838 4.594.48 4.331-1.197-.263-1.676-2.888-3.951-5.906-4.55zm3.806-3.712c1.313 2.754 3.281 5.508 5.119 6.226 1.706.838 2.887-.838 1.968-3.831-.393-1.437-2.362-4.91-4.987-7.783C81.506 3.113 78.619.838 78.619.838s.787 1.916 1.444 4.19c.656 2.396 1.18 4.91 1.837 6.347zm3.675 11.854c-1.313-.599-3.806-1.078-6.038-1.078-2.23-.12-4.068.24-4.068.12 0 0 2.1 1.078 4.2 2.634 2.231 1.437 4.462 3.473 5.512 4.191 2.231 1.437 4.2 1.437 4.463-.24.393-1.676-1.444-4.43-4.069-5.627zm7.613 4.311c1.443 1.197 3.018-.12 3.018-3.233.132-1.557-.787-5.269-2.231-8.502-1.313-3.233-3.281-6.106-3.281-5.987 0 0 0 2.036-.132 4.31-.13 2.276-.393 4.91-.262 6.347.394 2.874 1.444 5.987 2.888 7.064zm-3.019 5.028c-1.05-.957-3.413-1.796-5.382-2.394-2.1-.599-3.806-.719-3.806-.719s1.575 1.437 3.282 3.473c1.706 1.915 3.28 4.31 4.2 5.268 1.706 1.796 3.675 2.395 4.33.838.526-1.676-.524-4.67-2.624-6.466zm6.037 5.868c1.05 1.436 2.888.478 3.806-2.395.525-1.437.657-5.269.263-8.741a43.681 43.681 0 0 0-1.313-6.586s-.656 1.916-1.443 4.072c-.788 2.155-1.838 4.67-2.1 6.106-.394 2.874-.263 6.107.787 7.544zm-3.281 11.135c1.05-1.437.788-4.67-.787-6.825-.788-1.078-2.757-2.514-4.594-3.472A30.403 30.403 0 0 0 84 37.717s1.181 1.796 2.231 4.071c1.05 2.275 2.1 4.91 2.625 6.107 1.313 2.035 3.019 3.113 4.069 1.676zm3.544.239c.656 1.677 2.625 1.198 4.331-1.556.788-1.317 1.969-4.91 2.494-8.382.525-3.233.525-6.346.525-6.585-.132.36-4.725 6.585-6.169 9.1-1.313 2.634-1.838 5.867-1.181 7.424zm-6.038 10.178c1.313-1.077 1.838-4.31.919-6.825-.394-1.317-2.1-3.113-3.544-4.43-1.575-1.437-3.019-2.275-3.019-2.275s.657 2.035 1.182 4.43c.525 2.395.787 5.269 1.05 6.466.656 2.395 2.1 3.712 3.412 2.634zm11.288-10.417c-1.838 1.557-3.938 3.353-4.856 4.43-1.838 2.275-3.15 5.269-2.888 7.065.263 1.796 2.231 1.676 4.463-.48 1.18-1.077 3.15-4.43 4.462-7.662 1.444-3.233 2.1-6.346 2.1-6.346l-3.281 2.993zm-18.9 16.643c0 2.515 1.05 4.072 2.625 3.353 1.575-.718 2.887-3.831 2.625-6.466-.132-1.317-1.181-3.472-2.363-5.148-1.181-1.677-2.362-2.994-2.362-2.994s.131 2.155 0 4.55c0 2.515-.394 5.388-.525 6.705zm10.369-.957c-2.363 1.796-4.463 4.43-4.594 6.226-.263 1.796 1.837 2.155 4.462.599 1.313-.839 4.069-3.593 6.169-6.466 2.1-2.754 3.675-5.748 3.675-5.748s-1.838 1.078-3.938 2.156c-2.1 1.077-4.593 2.275-5.775 3.233zm-13.125-2.275s-.394 2.035-1.182 4.43c-.787 2.395-1.969 5.029-2.231 6.346-.656 2.395-.131 4.19 1.706 3.831 1.838-.359 3.938-2.993 4.2-5.627.525-2.754-2.362-9.1-2.493-8.98zm6.825 12.093c-2.757 1.317-5.513 3.233-6.17 4.91-.656 1.676 1.182 2.514 4.2 1.556 1.576-.48 4.988-2.515 7.744-4.79a50.618 50.618 0 0 0 4.988-4.79s-1.969.6-4.331 1.198c-2.363.838-4.988 1.437-6.431 1.916zm-14.569-.958c-1.444 2.155-3.413 4.43-4.069 5.508-1.444 2.155-1.444 4.071.525 4.071 1.837.12 4.725-2.035 5.906-4.43 1.313-2.515.263-9.34 0-9.22-.131 0-.918 2.036-2.362 4.071zm12.468 9.1c-2.493.12-5.25 0-6.825.24-3.018.598-6.3 1.915-7.612 3.352-1.181 1.437.394 2.754 3.806 2.515 1.706-.12 5.644-1.198 9.056-2.874a44.448 44.448 0 0 0 6.17-3.472s-2.1.12-4.595.24z"/><path d="M65.1 88.605c-2.362.36-4.594.48-6.825.599 37.406-6.825 49.087-53.043 22.969-75.434-.394-.36-.788-.48-.919-.24-.131.12 0 .599.394.838C107.625 37.478 93.58 86.33 52.5 89.204 11.419 86.33-2.625 37.478 24.413 14.368c.393-.359.524-.718.393-.838s-.656 0-.919.24C-2.23 36.28 9.45 82.379 46.858 89.204c-2.232-.12-4.463-.24-6.826-.599-.656-.12-1.181 0-1.181.24s.394.479 1.05.598c4.462.6 8.794.839 12.731.48 4.069.239 8.269.12 12.731-.48.657-.12 1.05-.359 1.05-.598-.13-.24-.656-.24-1.312-.24zM26.119 12.333c.919.838 3.806-.24 7.35-2.155 1.706-.958 5.118-3.114 8.925-4.67 3.544-1.676 7.481-2.754 7.35-2.754 0 0-3.938 0-8.138.838-4.2.719-8.662 2.036-10.5 3.113-3.937 2.156-5.775 4.79-4.987 5.628z"/><path d="M37.406 16.524c.132-.12-7.35-2.275-10.5-1.437-3.018.599-5.775 2.874-5.906 4.55-.262 1.676 1.706 2.035 4.331 1.197 1.313-.479 4.2-1.796 6.825-2.754a62.23 62.23 0 0 1 5.25-1.556zm-19.293 1.077c1.706-.838 3.806-3.472 5.118-6.226.656-1.317 1.181-3.951 1.838-6.226.656-2.275 1.444-4.191 1.444-4.191s-3.02 2.275-5.382 5.149c-2.494 2.873-4.593 6.226-4.987 7.782-.919 2.874.131 4.43 1.969 3.712zm7.349 4.55c-2.23 0-4.724.36-6.037 1.078-2.625 1.197-4.463 3.951-4.2 5.628.263 1.676 2.231 1.556 4.463.24 1.05-.72 3.412-2.635 5.512-4.192 2.1-1.556 4.2-2.634 4.2-2.634.131.12-1.706-.12-3.938-.12zM11.813 27.54c1.443-1.198 2.493-4.191 2.887-7.065.131-1.437-.131-4.071-.262-6.346-.132-2.275-.132-4.31-.132-4.31s-1.968 2.753-3.281 5.986c-1.444 3.233-2.231 6.945-2.231 8.502.131 3.113 1.575 4.43 3.018 3.232zm8.399 2.634c-2.1.479-4.33 1.437-5.38 2.394-2.1 1.796-3.15 4.79-2.495 6.466.657 1.557 2.626 1.078 4.332-.838.918-.958 2.494-3.353 4.2-5.268 1.575-1.916 3.281-3.353 3.281-3.473 0 0-1.837.24-3.938.719zM8.794 38.436c1.05-1.437 1.312-4.67.787-7.544-.262-1.437-1.312-3.831-2.1-6.106-.787-2.156-1.444-4.191-1.444-4.072 0 0-.918 3.114-1.312 6.586-.394 3.472-.262 7.304.263 8.74.918 2.874 2.624 3.832 3.806 2.396zm7.35 9.339c.656-1.078 1.575-3.832 2.625-6.107 1.05-2.275 2.231-4.07 2.231-4.07s-1.706.598-3.544 1.556c-1.837.958-3.806 2.395-4.593 3.472-1.575 2.156-1.838 5.388-.788 6.825 1.05 1.557 2.756.48 4.069-1.676zM4.2 48.374c1.575 2.634 3.544 3.113 4.331 1.556.656-1.676.131-4.79-1.181-7.423-1.313-2.395-6.037-8.621-6.169-9.1 0 .24 0 3.352.525 6.585.525 3.353 1.707 7.065 2.494 8.382zm10.369 11.614c1.312 1.078 2.756-.24 3.412-2.634.263-1.197.525-4.071 1.05-6.466.394-2.395 1.181-4.43 1.181-4.43s-1.443.958-3.018 2.275c-1.575 1.317-3.15 3.233-3.544 4.43-1.05 2.515-.525 5.748.919 6.825zm-8.006.599c2.23 2.275 4.2 2.275 4.462.479.262-1.796-1.05-4.67-2.888-7.065-.918-1.077-3.018-2.873-4.856-4.43C1.444 48.014 0 46.578 0 46.578s.787 3.113 2.1 6.346c1.444 3.233 3.413 6.585 4.463 7.663zm12.862 8.98c1.575.719 2.625-.838 2.625-3.353 0-1.317-.525-4.07-.525-6.585-.131-2.515 0-4.55 0-4.55s-1.181 1.197-2.362 2.993c-1.182 1.677-2.232 3.832-2.363 5.15-.262 2.514 1.05 5.507 2.625 6.345zm-7.481 2.395c2.756 1.676 4.725 1.197 4.462-.599-.262-1.796-2.231-4.31-4.593-6.226-1.182-.838-3.676-2.036-5.776-3.233-2.1-1.078-3.937-2.155-3.937-2.155s1.444 2.873 3.675 5.747c2.1 2.874 4.856 5.628 6.169 6.466zm14.7 5.628c1.837.359 2.362-1.437 1.706-3.832-.394-1.197-1.575-3.951-2.231-6.346-.788-2.395-1.181-4.55-1.181-4.43-.132-.12-3.02 6.226-2.494 8.98.393 2.634 2.494 5.268 4.2 5.627zm-2.363 2.514c-.656-1.676-3.412-3.712-6.168-4.91-1.444-.598-4.07-1.197-6.432-1.795C9.32 72.8 7.35 72.2 7.35 72.2s2.1 2.515 4.988 4.79c2.756 2.275 6.168 4.31 7.743 4.79 3.019.837 4.857 0 4.2-1.677zm12.075 3.712c1.969-.12 1.838-1.916.525-4.071-.787-1.078-2.625-3.353-4.069-5.508a36.754 36.754 0 0 1-2.362-4.071c-.131-.12-1.313 6.705 0 9.22 1.05 2.394 3.938 4.43 5.906 4.43zm-9.318-.359c-1.576-.24-4.332-.24-6.826-.24-2.493 0-4.593-.24-4.593-.24s2.756 1.916 6.169 3.473c3.412 1.557 7.35 2.754 9.056 2.874 3.412.24 4.987-1.078 3.806-2.515-1.313-1.437-4.462-2.754-7.612-3.352z"/></g></g></svg>