<svg width="20" height="18" viewBox="0 0 20 18" xmlns="http://www.w3.org/2000/svg"><title>cards</title><g transform="translate(1 1)" stroke="#BD9B5C" stroke-width=".9" fill="none" fill-rule="evenodd" stroke-linecap="round"><path d="M2.45 7.273L1.8 5.498a.69.69 0 0 1 .017-.535.704.704 0 0 1 .396-.367L14.193.32a.718.718 0 0 1 .544.016.702.702 0 0 1 .371.391l2.567 6.982a.69.69 0 0 1-.016.536.704.704 0 0 1-.397.366l-3.098 1.105M2.39 7.04l13.25-4.77m-2.45 2.85l1.328-.465"/><rect y="7.273" width="14.164" height="8.727" rx=".708"/><path d="M2.36 11.345h4.132m3.54-1.745h1.771m-9.442 4.073h.59m2.36 0h.59m2.361 0h.59m2.361 0h.59"/></g></svg>