<svg width="14" height="8" viewBox="0 0 14 8" xmlns="http://www.w3.org/2000/svg"><title>eye</title><path d="M13.886 3.805C13.796 3.649 11.615 0 7 0S.204 3.65.114 3.805L0 4l.114.195C.204 4.351 2.385 8 7 8s6.796-3.65 6.886-3.805L14 4l-.114-.195zm-6.845.704c.243 0 .44.184.44.41 0 .226-.197.41-.44.41-.876 0-1.586-.66-1.587-1.476a1.317 1.317 0 0 1 .212-.737.562.562 0 0 1 .603-.15c.21.114.282.365.16.56a.617.617 0 0 0 .002.656.716.716 0 0 0 .61.327zM7 7.18C3.499 7.18 1.521 4.72 1.018 4 1.51 3.296 3.41.933 6.763.825c-1.774.119-3.13 1.523-3.065 3.177C3.762 5.656 5.22 6.966 7 6.966c1.779 0 3.238-1.31 3.302-2.964.064-1.654-1.29-3.058-3.065-3.177C10.59.933 12.49 3.296 12.982 4c-.504.72-2.481 3.18-5.982 3.18z" fill="#BD9B5C"/></svg>