<svg width="129" height="129" viewBox="0 0 129 129" xmlns="http://www.w3.org/2000/svg"><title>hand</title><g fill="#141414"><path d="M126.365 15.128a2.14 2.14 0 0 0 2.41-1.837 2.149 2.149 0 0 0-1.827-2.424 167.766 167.766 0 0 0-79.895-1.68l4.547-5.67A2.158 2.158 0 0 0 51.213.47a2.208 2.208 0 0 0-3.072.352L39.55 11.61l-.078.195-.194.391a.667.667 0 0 0-.117.391l-.039.391.04.43.038.196.078.195.233.391.272.313.156.156 10.808 8.326c.95.739 2.312.583 3.072-.351a2.158 2.158 0 0 0-.39-3.05l-7.347-5.668a165.523 165.523 0 0 1 80.284 1.212zm-35.846 89.127l2.8 4.926a2.18 2.18 0 0 0 1.316 1.063 2.167 2.167 0 0 0 1.677-.203c1.05-.626 1.438-1.955.855-2.971l-2.371-4.183c3.499-14.893-7.193-34.087-7.66-34.908L71.741 40.615a8.892 8.892 0 0 0-5.405-4.221 8.999 8.999 0 0 0-10.302 4.143c-2.601-3.989-7.813-5.299-11.975-3.01-1.438.821-2.566 1.994-3.382 3.323L22.443 8.483c-2.462-4.319-7.916-5.851-12.247-3.44-4.355 2.384-5.91 7.818-3.5 12.118l2.839 5.043c-1.594-.04-3.188.273-4.665 1.094-4.355 2.385-5.91 7.818-3.5 12.118l21.15 37.528-3.188 1.798a12.118 12.118 0 0 0-6.337 9.225c-.466 3.245.195 6.802 1.75 9.538l5.637 10.008c9.953 17.669 31.297 20.17 36.818 20.483l2.177 3.87c.389.743 1.167 1.134 1.944 1.134.35 0 .739-.078 1.05-.274a2.12 2.12 0 0 0 .855-2.97l-2.76-4.926a2.175 2.175 0 0 0-1.905-1.134c-.234 0-24.338-.586-34.33-18.294l-5.637-10.007a11.35 11.35 0 0 1-1.244-6.802c.272-1.877 1.205-4.457 4.12-6.06l3.228-1.758 7.503 13.33a2.21 2.21 0 0 0 2.994.86 2.12 2.12 0 0 0 .855-2.97L5.258 33.304a4.556 4.556 0 0 1-.418-3.475 4.53 4.53 0 0 1 2.168-2.74 4.75 4.75 0 0 1 3.499-.39 4.396 4.396 0 0 1 2.76 2.15l16.368 29.044 5.87 10.398a2.215 2.215 0 0 0 2.994.86 2.195 2.195 0 0 0 .856-2.971l-2.41-4.3L23.92 38.778l-6.804-12.04-6.57-11.688a4.517 4.517 0 0 1-.4-3.467 4.49 4.49 0 0 1 2.188-2.71 4.613 4.613 0 0 1 6.26 1.76l30.13 53.515a2.248 2.248 0 0 0 3.033.821 2.195 2.195 0 0 0 .855-2.97l-5.598-9.89-2.566-4.574a4.556 4.556 0 0 1-.403-3.485 4.53 4.53 0 0 1 2.191-2.73 4.652 4.652 0 0 1 6.26 1.797l3.499 6.177 6.181 10.984.273.47a2.18 2.18 0 0 0 1.316 1.063 2.167 2.167 0 0 0 1.677-.204 2.195 2.195 0 0 0 .856-2.97l-3.577-6.333-2.877-5.121a4.556 4.556 0 0 1-.403-3.485 4.53 4.53 0 0 1 2.191-2.73c1.05-.587 2.294-.704 3.5-.392a4.754 4.754 0 0 1 2.76 2.15L83.287 70.09c.117.195 10.692 19.233 7.037 32.524a2.2 2.2 0 0 0 .195 1.641z"/><path d="M89.664 96.437a57.555 57.555 0 0 0-5.599-21.46 1.122 1.122 0 0 0-1.516-.586 1.254 1.254 0 0 0-.545 1.64 55.16 55.16 0 0 1 5.366 20.524c.039.664.544 1.172 1.166 1.172h.039c.317-.02.612-.168.818-.412.205-.243.303-.56.27-.878z"/><path d="M86.709 98.51c-.389 1.133-.778 1.72-.817 1.72-.31.507 0 1.094.778 1.328l.622.078c.544 0 1.089-.195 1.36-.586.04-.078.506-.782.973-2.11.194-.548-.311-1.056-1.128-1.174-.816-.156-1.594.196-1.788.743z"/></g></svg>