<svg width="19" height="17" viewBox="0 0 19 17" xmlns="http://www.w3.org/2000/svg"><title>user</title><path d="M12.58 13.577c-2.43-.465-2.58-1.046-2.58-1.51v-.582a4.068 4.068 0 0 0 1.2-2.034c.75 0 1.2-.872 1.2-1.744 0-.232 0-1.162-.6-1.162 1.5-4.214-2.88-5.812-6-3.778-1.32 0-1.68 1.918-1.2 3.778-.6 0-.6.93-.6 1.162 0 .872.45 1.744 1.2 1.744a4.097 4.097 0 0 0 1.2 2.034v.581c0 .465-.15 1.046-2.58 1.511C1.39 14.042 1 16.135 1 16.135h14.4s0-2.006-2.82-2.558zM13.9 5.65h4.8m-4.8-2.325h4.8M12.7 1h6" stroke="#BD9B5C" stroke-width=".9" fill="none" stroke-linecap="round"/></svg>