<?xml version="1.0" encoding="UTF-8"?>
<svg width="105px" height="91px" viewBox="0 0 105 91" version="1.1" xmlns="http://www.w3.org/2000/svg" xmlns:xlink="http://www.w3.org/1999/xlink">
    <!-- Generator: Sketch 47.1 (45422) - http://www.bohemiancoding.com/sketch -->
    <title>700</title>
    <desc>Created with Sketch.</desc>
    <defs></defs>
    <g id="Page-1" stroke="none" stroke-width="1" fill="none" fill-rule="evenodd">
        <g id="landing-readysolution-copy" transform="translate(-668.000000, -884.000000)">
            <g id="Group-6" transform="translate(667.000000, 884.000000)">
                <g id="700" transform="translate(1.000000, 0.000000)">
                    <g id="Group-17">
                        <path d="M41.548,36.8 L41.548,39.53 L34.788,55 L30.212,55 L36.738,40.232 L30.706,40.232 L30.706,43.196 L26.962,43.196 L26.962,36.8 L41.548,36.8 Z M51.22,55.312 C49.7119925,55.312 48.3686726,54.9393371 47.19,54.194 C46.0113274,53.4486629 45.0883367,52.3696737 44.421,50.957 C43.7536633,49.5443263 43.42,47.8586765 43.42,45.9 C43.42,43.9413235 43.7536633,42.2556737 44.421,40.843 C45.0883367,39.4303263 46.0113274,38.3513371 47.19,37.606 C48.3686726,36.8606629 49.7119925,36.488 51.22,36.488 C52.7280075,36.488 54.0713274,36.8606629 55.25,37.606 C56.4286726,38.3513371 57.3516633,39.4303263 58.019,40.843 C58.6863367,42.2556737 59.02,43.9413235 59.02,45.9 C59.02,47.8586765 58.6863367,49.5443263 58.019,50.957 C57.3516633,52.3696737 56.4286726,53.4486629 55.25,54.194 C54.0713274,54.9393371 52.7280075,55.312 51.22,55.312 Z M51.22,51.75 C52.3293389,51.75 53.2003302,51.2733381 53.833,50.32 C54.4656698,49.3666619 54.782,47.8933433 54.782,45.9 C54.782,43.9066567 54.4656698,42.4333381 53.833,41.48 C53.2003302,40.5266619 52.3293389,40.05 51.22,40.05 C50.1279945,40.05 49.2656698,40.5266619 48.633,41.48 C48.0003302,42.4333381 47.684,43.9066567 47.684,45.9 C47.684,47.8933433 48.0003302,49.3666619 48.633,50.32 C49.2656698,51.2733381 50.1279945,51.75 51.22,51.75 Z M68.874,55.312 C67.3659925,55.312 66.0226726,54.9393371 64.844,54.194 C63.6653274,53.4486629 62.7423367,52.3696737 62.075,50.957 C61.4076633,49.5443263 61.074,47.8586765 61.074,45.9 C61.074,43.9413235 61.4076633,42.2556737 62.075,40.843 C62.7423367,39.4303263 63.6653274,38.3513371 64.844,37.606 C66.0226726,36.8606629 67.3659925,36.488 68.874,36.488 C70.3820075,36.488 71.7253274,36.8606629 72.904,37.606 C74.0826726,38.3513371 75.0056633,39.4303263 75.673,40.843 C76.3403367,42.2556737 76.674,43.9413235 76.674,45.9 C76.674,47.8586765 76.3403367,49.5443263 75.673,50.957 C75.0056633,52.3696737 74.0826726,53.4486629 72.904,54.194 C71.7253274,54.9393371 70.3820075,55.312 68.874,55.312 Z M68.874,51.75 C69.9833389,51.75 70.8543302,51.2733381 71.487,50.32 C72.1196698,49.3666619 72.436,47.8933433 72.436,45.9 C72.436,43.9066567 72.1196698,42.4333381 71.487,41.48 C70.8543302,40.5266619 69.9833389,40.05 68.874,40.05 C67.7819945,40.05 66.9196698,40.5266619 66.287,41.48 C65.6543302,42.4333381 65.338,43.9066567 65.338,45.9 C65.338,47.8933433 65.6543302,49.3666619 66.287,50.32 C66.9196698,51.2733381 67.7819945,51.75 68.874,51.75 Z" id="700" fill="#FFFFFF"></path>
                        <g id="noun_1364708_cc-copy" fill-rule="nonzero" fill="#BD9B5C">
                            <g id="Group">
                                <path d="M71.53125,10.2973684 C74.94375,12.0934211 77.9625,13.2907895 78.88125,12.4526316 C79.66875,11.6144737 77.83125,8.86052632 74.025,6.825 C72.1875,5.74736842 67.725,4.43026316 63.525,3.71184211 C59.325,2.99342105 55.3875,2.99342105 55.3875,2.87368421 C55.3875,2.87368421 59.19375,3.95131579 62.7375,5.62763158 C66.4125,7.18421053 69.825,9.33947368 71.53125,10.2973684 Z" id="Shape"></path>
                                <path d="M78.09375,15.0868421 C75.075,14.2486842 67.59375,16.4039474 67.59375,16.5236842 C67.59375,16.5236842 70.0875,17.1223684 72.84375,18.0802632 C75.6,19.0381579 78.35625,20.3552632 79.66875,20.8342105 C82.29375,21.6723684 84.2625,21.3131579 84,19.6368421 C83.7375,17.9605263 81.1125,15.6855263 78.09375,15.0868421 Z" id="Shape"></path>
                                <path d="M81.9,11.375 C83.2125,14.1289474 85.18125,16.8828947 87.01875,17.6013158 C88.725,18.4394737 89.90625,16.7631579 88.9875,13.7697368 C88.59375,12.3328947 86.625,8.86052632 84,5.98684211 C81.50625,3.11315789 78.61875,0.838157895 78.61875,0.838157895 C78.61875,0.838157895 79.40625,2.75394737 80.0625,5.02894737 C80.71875,7.42368421 81.24375,9.93815789 81.9,11.375 Z" id="Shape"></path>
                                <path d="M85.575,23.2289474 C84.2625,22.6302632 81.76875,22.1513158 79.5375,22.1513158 C77.30625,22.0315789 75.46875,22.3907895 75.46875,22.2710526 C75.46875,22.2710526 77.56875,23.3486842 79.66875,24.9052632 C81.9,26.3421053 84.13125,28.3776316 85.18125,29.0960526 C87.4125,30.5328947 89.38125,30.5328947 89.64375,28.8565789 C90.0375,27.1802632 88.2,24.4263158 85.575,23.2289474 Z" id="Shape"></path>
                                <path d="M93.1875,27.5394737 C94.63125,28.7368421 96.20625,27.4197368 96.20625,24.3065789 C96.3375,22.75 95.41875,19.0381579 93.975,15.8052632 C92.6625,12.5723684 90.69375,9.69868421 90.69375,9.81842105 C90.69375,9.81842105 90.69375,11.8539474 90.5625,14.1289474 C90.43125,16.4039474 90.16875,19.0381579 90.3,20.475 C90.69375,23.3486842 91.74375,26.4618421 93.1875,27.5394737 Z" id="Shape"></path>
                                <path d="M90.16875,32.5684211 C89.11875,31.6105263 86.75625,30.7723684 84.7875,30.1736842 C82.6875,29.575 80.98125,29.4552632 80.98125,29.4552632 C80.98125,29.4552632 82.55625,30.8921053 84.2625,32.9276316 C85.96875,34.8434211 87.54375,37.2381579 88.4625,38.1960526 C90.16875,39.9921053 92.1375,40.5907895 92.79375,39.0342105 C93.31875,37.3578947 92.26875,34.3644737 90.16875,32.5684211 Z" id="Shape"></path>
                                <path d="M96.20625,38.4355263 C97.25625,39.8723684 99.09375,38.9144737 100.0125,36.0407895 C100.5375,34.6039474 100.66875,30.7723684 100.275,27.3 C99.88125,23.8276316 98.9625,20.7144737 98.9625,20.7144737 C98.9625,20.7144737 98.30625,22.6302632 97.51875,24.7855263 C96.73125,26.9407895 95.68125,29.4552632 95.41875,30.8921053 C95.025,33.7657895 95.15625,36.9986842 96.20625,38.4355263 Z" id="Shape"></path>
                                <path d="M92.925,49.5710526 C93.975,48.1342105 93.7125,44.9013158 92.1375,42.7460526 C91.35,41.6684211 89.38125,40.2315789 87.54375,39.2736842 C85.70625,38.3157895 84,37.7171053 84,37.7171053 C84,37.7171053 85.18125,39.5131579 86.23125,41.7881579 C87.28125,44.0631579 88.33125,46.6973684 88.85625,47.8947368 C90.16875,49.9302632 91.875,51.0078947 92.925,49.5710526 Z" id="Shape"></path>
                                <path d="M96.46875,49.8105263 C97.125,51.4868421 99.09375,51.0078947 100.8,48.2539474 C101.5875,46.9368421 102.76875,43.3447368 103.29375,39.8723684 C103.81875,36.6394737 103.81875,33.5263158 103.81875,33.2868421 C103.6875,33.6460526 99.09375,39.8723684 97.65,42.3868421 C96.3375,45.0210526 95.8125,48.2539474 96.46875,49.8105263 Z" id="Shape"></path>
                                <path d="M90.43125,59.9881579 C91.74375,58.9105263 92.26875,55.6776316 91.35,53.1631579 C90.95625,51.8460526 89.25,50.05 87.80625,48.7328947 C86.23125,47.2960526 84.7875,46.4578947 84.7875,46.4578947 C84.7875,46.4578947 85.44375,48.4934211 85.96875,50.8881579 C86.49375,53.2828947 86.75625,56.1565789 87.01875,57.3539474 C87.675,59.7486842 89.11875,61.0657895 90.43125,59.9881579 Z" id="Shape"></path>
                                <path d="M101.71875,49.5710526 C99.88125,51.1276316 97.78125,52.9236842 96.8625,54.0013158 C95.025,56.2763158 93.7125,59.2697368 93.975,61.0657895 C94.2375,62.8618421 96.20625,62.7421053 98.4375,60.5868421 C99.61875,59.5092105 101.5875,56.1565789 102.9,52.9236842 C104.34375,49.6907895 105,46.5776316 105,46.5776316 C105,46.5776316 103.425,48.0144737 101.71875,49.5710526 Z" id="Shape"></path>
                                <path d="M82.81875,66.2144737 C82.81875,68.7289474 83.86875,70.2855263 85.44375,69.5671053 C87.01875,68.8486842 88.33125,65.7355263 88.06875,63.1013158 C87.9375,61.7842105 86.8875,59.6289474 85.70625,57.9526316 C84.525,56.2763158 83.34375,54.9592105 83.34375,54.9592105 C83.34375,54.9592105 83.475,57.1144737 83.34375,59.5092105 C83.34375,62.0236842 82.95,64.8973684 82.81875,66.2144737 Z" id="Shape"></path>
                                <path d="M93.1875,65.2565789 C90.825,67.0526316 88.725,69.6868421 88.59375,71.4828947 C88.33125,73.2789474 90.43125,73.6381579 93.05625,72.0815789 C94.36875,71.2434211 97.125,68.4894737 99.225,65.6157895 C101.325,62.8618421 102.9,59.8684211 102.9,59.8684211 C102.9,59.8684211 101.0625,60.9460526 98.9625,62.0236842 C96.8625,63.1013158 94.36875,64.2986842 93.1875,65.2565789 Z" id="Shape"></path>
                                <path d="M80.0625,62.9815789 C80.0625,62.9815789 79.66875,65.0171053 78.88125,67.4118421 C78.09375,69.8065789 76.9125,72.4407895 76.65,73.7578947 C75.99375,76.1526316 76.51875,77.9486842 78.35625,77.5894737 C80.19375,77.2302632 82.29375,74.5960526 82.55625,71.9618421 C83.08125,69.2078947 80.19375,62.8618421 80.0625,62.9815789 Z" id="Shape"></path>
                                <path d="M86.8875,75.075 C84.13125,76.3921053 81.375,78.3078947 80.71875,79.9842105 C80.0625,81.6605263 81.9,82.4986842 84.91875,81.5407895 C86.49375,81.0618421 89.90625,79.0263158 92.6625,76.7513158 C95.41875,74.4763158 97.65,71.9618421 97.65,71.9618421 C97.65,71.9618421 95.68125,72.5605263 93.31875,73.1592105 C90.95625,73.9973684 88.33125,74.5960526 86.8875,75.075 Z" id="Shape"></path>
                                <path d="M72.31875,74.1171053 C70.875,76.2723684 68.90625,78.5473684 68.25,79.625 C66.80625,81.7802632 66.80625,83.6960526 68.775,83.6960526 C70.6125,83.8157895 73.5,81.6605263 74.68125,79.2657895 C75.99375,76.7513158 74.94375,69.9263158 74.68125,70.0460526 C74.55,70.0460526 73.7625,72.0815789 72.31875,74.1171053 Z" id="Shape"></path>
                                <path d="M84.7875,83.2171053 C82.29375,83.3368421 79.5375,83.2171053 77.9625,83.4565789 C74.94375,84.0552632 71.6625,85.3723684 70.35,86.8092105 C69.16875,88.2460526 70.74375,89.5631579 74.15625,89.3236842 C75.8625,89.2039474 79.8,88.1263158 83.2125,86.45 C86.625,84.8934211 89.38125,82.9776316 89.38125,82.9776316 C89.38125,82.9776316 87.28125,83.0973684 84.7875,83.2171053 Z" id="Shape"></path>
                                <path d="M65.1,88.6052632 C62.7375,88.9644737 60.50625,89.0842105 58.275,89.2039474 C95.68125,82.3789474 107.3625,36.1605263 81.24375,13.7697368 C80.85,13.4105263 80.45625,13.2907895 80.325,13.5302632 L80.325,13.5302632 C80.19375,13.65 80.325,14.1289474 80.71875,14.3684211 C107.625,37.4776316 93.58125,86.3302632 52.5,89.2039474 C11.41875,86.3302632 -2.625,37.4776316 24.4125,14.3684211 C24.80625,14.0092105 24.9375,13.65 24.80625,13.5302632 L24.80625,13.5302632 C24.675,13.4105263 24.15,13.5302632 23.8875,13.7697368 C-2.23125,36.2802632 9.45,82.3789474 46.85625,89.2039474 C44.625,89.0842105 42.39375,88.9644737 40.03125,88.6052632 C39.375,88.4855263 38.85,88.6052632 38.85,88.8447368 C38.85,89.0842105 39.24375,89.3236842 39.9,89.4434211 C44.3625,90.0421053 48.69375,90.2815789 52.63125,89.9223684 C56.7,90.1618421 60.9,90.0421053 65.3625,89.4434211 C66.01875,89.3236842 66.4125,89.0842105 66.4125,88.8447368 C66.28125,88.6052632 65.75625,88.6052632 65.1,88.6052632 Z" id="Shape"></path>
                                <path d="M26.11875,12.3328947 C27.0375,13.1710526 29.925,12.0934211 33.46875,10.1776316 C35.175,9.21973684 38.5875,7.06447368 42.39375,5.50789474 C45.9375,3.83157895 49.875,2.75394737 49.74375,2.75394737 C49.74375,2.75394737 45.80625,2.75394737 41.60625,3.59210526 C37.40625,4.31052632 32.94375,5.62763158 31.10625,6.70526316 C27.16875,8.86052632 25.33125,11.4947368 26.11875,12.3328947 Z" id="Shape"></path>
                                <path d="M37.40625,16.5236842 C37.5375,16.4039474 30.05625,14.2486842 26.90625,15.0868421 C23.8875,15.6855263 21.13125,17.9605263 21,19.6368421 C20.7375,21.3131579 22.70625,21.6723684 25.33125,20.8342105 C26.64375,20.3552632 29.53125,19.0381579 32.15625,18.0802632 C34.9125,17.1223684 37.40625,16.5236842 37.40625,16.5236842 Z" id="Shape"></path>
                                <path d="M18.1125,17.6013158 C19.81875,16.7631579 21.91875,14.1289474 23.23125,11.375 C23.8875,10.0578947 24.4125,7.42368421 25.06875,5.14868421 C25.725,2.87368421 26.5125,0.957894737 26.5125,0.957894737 C26.5125,0.957894737 23.49375,3.23289474 21.13125,6.10657895 C18.6375,8.98026316 16.5375,12.3328947 16.14375,13.8894737 C15.225,16.7631579 16.275,18.3197368 18.1125,17.6013158 Z" id="Shape"></path>
                                <path d="M25.4625,22.1513158 C23.23125,22.1513158 20.7375,22.5105263 19.425,23.2289474 C16.8,24.4263158 14.9625,27.1802632 15.225,28.8565789 C15.4875,30.5328947 17.45625,30.4131579 19.6875,29.0960526 C20.7375,28.3776316 23.1,26.4618421 25.2,24.9052632 C27.3,23.3486842 29.4,22.2710526 29.4,22.2710526 C29.53125,22.3907895 27.69375,22.1513158 25.4625,22.1513158 Z" id="Shape"></path>
                                <path d="M11.8125,27.5394737 C13.25625,26.3421053 14.30625,23.3486842 14.7,20.475 C14.83125,19.0381579 14.56875,16.4039474 14.4375,14.1289474 C14.30625,11.8539474 14.30625,9.81842105 14.30625,9.81842105 C14.30625,9.81842105 12.3375,12.5723684 11.025,15.8052632 C9.58125,19.0381579 8.79375,22.75 8.79375,24.3065789 C8.925,27.4197368 10.36875,28.7368421 11.8125,27.5394737 Z" id="Shape"></path>
                                <path d="M20.2125,30.1736842 C18.1125,30.6526316 15.88125,31.6105263 14.83125,32.5684211 C12.73125,34.3644737 11.68125,37.3578947 12.3375,39.0342105 C12.99375,40.5907895 14.9625,40.1118421 16.66875,38.1960526 C17.5875,37.2381579 19.1625,34.8434211 20.86875,32.9276316 C22.44375,31.0118421 24.15,29.575 24.15,29.4552632 C24.15,29.4552632 22.3125,29.6947368 20.2125,30.1736842 Z" id="Shape"></path>
                                <path d="M8.79375,38.4355263 C9.84375,36.9986842 10.10625,33.7657895 9.58125,30.8921053 C9.31875,29.4552632 8.26875,27.0605263 7.48125,24.7855263 C6.69375,22.6302632 6.0375,20.5947368 6.0375,20.7144737 C6.0375,20.7144737 5.11875,23.8276316 4.725,27.3 C4.33125,30.7723684 4.4625,34.6039474 4.9875,36.0407895 C5.90625,38.9144737 7.6125,39.8723684 8.79375,38.4355263 Z" id="Shape"></path>
                                <path d="M16.14375,47.775 C16.8,46.6973684 17.71875,43.9434211 18.76875,41.6684211 C19.81875,39.3934211 21,37.5973684 21,37.5973684 C21,37.5973684 19.29375,38.1960526 17.45625,39.1539474 C15.61875,40.1118421 13.65,41.5486842 12.8625,42.6263158 C11.2875,44.7815789 11.025,48.0144737 12.075,49.4513158 C13.125,51.0078947 14.83125,49.9302632 16.14375,47.775 Z" id="Shape"></path>
                                <path d="M4.2,48.3736842 C5.775,51.0078947 7.74375,51.4868421 8.53125,49.9302632 C9.1875,48.2539474 8.6625,45.1407895 7.35,42.5065789 C6.0375,40.1118421 1.3125,33.8855263 1.18125,33.4065789 C1.18125,33.6460526 1.18125,36.7592105 1.70625,39.9921053 C2.23125,43.3447368 3.4125,47.0565789 4.2,48.3736842 Z" id="Shape"></path>
                                <path d="M14.56875,59.9881579 C15.88125,61.0657895 17.325,59.7486842 17.98125,57.3539474 C18.24375,56.1565789 18.50625,53.2828947 19.03125,50.8881579 C19.425,48.4934211 20.2125,46.4578947 20.2125,46.4578947 C20.2125,46.4578947 18.76875,47.4157895 17.19375,48.7328947 C15.61875,50.05 14.04375,51.9657895 13.65,53.1631579 C12.6,55.6776316 13.125,58.9105263 14.56875,59.9881579 Z" id="Shape"></path>
                                <path d="M6.5625,60.5868421 C8.79375,62.8618421 10.7625,62.8618421 11.025,61.0657895 C11.2875,59.2697368 9.975,56.3960526 8.1375,54.0013158 C7.21875,52.9236842 5.11875,51.1276316 3.28125,49.5710526 C1.44375,48.0144737 0,46.5776316 0,46.5776316 C0,46.5776316 0.7875,49.6907895 2.1,52.9236842 C3.54375,56.1565789 5.5125,59.5092105 6.5625,60.5868421 Z" id="Shape"></path>
                                <path d="M19.425,69.5671053 C21,70.2855263 22.05,68.7289474 22.05,66.2144737 C22.05,64.8973684 21.525,62.1434211 21.525,59.6289474 C21.39375,57.1144737 21.525,55.0789474 21.525,55.0789474 C21.525,55.0789474 20.34375,56.2763158 19.1625,58.0723684 C17.98125,59.7486842 16.93125,61.9039474 16.8,63.2210526 C16.5375,65.7355263 17.85,68.7289474 19.425,69.5671053 Z" id="Shape"></path>
                                <path d="M11.94375,71.9618421 C14.7,73.6381579 16.66875,73.1592105 16.40625,71.3631579 C16.14375,69.5671053 14.175,67.0526316 11.8125,65.1368421 C10.63125,64.2986842 8.1375,63.1013158 6.0375,61.9039474 C3.9375,60.8263158 2.1,59.7486842 2.1,59.7486842 C2.1,59.7486842 3.54375,62.6223684 5.775,65.4960526 C7.875,68.3697368 10.63125,71.1236842 11.94375,71.9618421 Z" id="Shape"></path>
                                <path d="M26.64375,77.5894737 C28.48125,77.9486842 29.00625,76.1526316 28.35,73.7578947 C27.95625,72.5605263 26.775,69.8065789 26.11875,67.4118421 C25.33125,65.0171053 24.9375,62.8618421 24.9375,62.9815789 C24.80625,62.8618421 21.91875,69.2078947 22.44375,71.9618421 C22.8375,74.5960526 24.9375,77.2302632 26.64375,77.5894737 Z" id="Shape"></path>
                                <path d="M24.28125,80.1039474 C23.625,78.4276316 20.86875,76.3921053 18.1125,75.1947368 C16.66875,74.5960526 14.04375,73.9973684 11.68125,73.3986842 C9.31875,72.8 7.35,72.2013158 7.35,72.2013158 C7.35,72.2013158 9.45,74.7157895 12.3375,76.9907895 C15.09375,79.2657895 18.50625,81.3013158 20.08125,81.7802632 C23.1,82.6184211 24.9375,81.7802632 24.28125,80.1039474 Z" id="Shape"></path>
                                <path d="M36.35625,83.8157895 C38.325,83.6960526 38.19375,81.9 36.88125,79.7447368 C36.09375,78.6671053 34.25625,76.3921053 32.8125,74.2368421 C31.36875,72.0815789 30.45,70.1657895 30.45,70.1657895 C30.31875,70.0460526 29.1375,76.8710526 30.45,79.3855263 C31.5,81.7802632 34.3875,83.8157895 36.35625,83.8157895 Z" id="Shape"></path>
                                <path d="M27.0375,83.4565789 C25.4625,83.2171053 22.70625,83.2171053 20.2125,83.2171053 C17.71875,83.2171053 15.61875,82.9776316 15.61875,82.9776316 C15.61875,82.9776316 18.375,84.8934211 21.7875,86.45 C25.2,88.0065789 29.1375,89.2039474 30.84375,89.3236842 C34.25625,89.5631579 35.83125,88.2460526 34.65,86.8092105 C33.3375,85.3723684 30.1875,84.0552632 27.0375,83.4565789 Z" id="Shape"></path>
                            </g>
                        </g>
                    </g>
                </g>
            </g>
        </g>
    </g>
</svg>