<?xml version="1.0" encoding="UTF-8"?>
<svg width="20px" height="18px" viewBox="0 0 20 18" version="1.1" xmlns="http://www.w3.org/2000/svg" xmlns:xlink="http://www.w3.org/1999/xlink">
    <!-- Generator: Sketch 47.1 (45422) - http://www.bohemiancoding.com/sketch -->
    <title>cards</title>
    <desc>Created with Sketch.</desc>
    <defs></defs>
    <g id="Page-1" stroke="none" stroke-width="1" fill="none" fill-rule="evenodd" stroke-linecap="round">
        <g id="landing-readysolution-copy" transform="translate(-191.000000, -1395.000000)" stroke="#BD9B5C" stroke-width="0.9">
            <g id="goods" transform="translate(150.000000, 1188.000000)">
                <g id="Group-9" transform="translate(42.000000, 204.000000)">
                    <g id="cards" transform="translate(0.000000, 4.000000)">
                        <path d="M2.44918033,7.27272727 L1.8,5.49818182 C1.73305192,5.32461269 1.73899822,5.13190123 1.8165239,4.9626648 C1.89404958,4.79342836 2.03676699,4.66161102 2.21311475,4.59636364 L14.1934426,0.32 C14.3695015,0.25399866 14.5649772,0.259860871 14.7366412,0.33629023 C14.9083053,0.412719589 15.0420134,0.553418771 15.1081967,0.727272727 L17.6754098,7.70909091 C17.7423579,7.88266004 17.7364116,8.07537149 17.6588859,8.24460793 C17.5813603,8.41384437 17.4386428,8.54566171 17.2622951,8.61090909 L14.1639344,9.71636364 M2.39016393,7.04 L15.6393443,2.26909091 M13.1901639,5.12 L14.5180328,4.65454545" id="Shape"></path>
                        <rect id="Rectangle-path" x="0" y="7.27272727" width="14.1639344" height="8.72727273" rx="0.708196721"></rect>
                        <path d="M2.36065574,11.3454545 L6.49180328,11.3454545 M10.0327869,9.6 L11.8032787,9.6 M2.36065574,13.6727273 L2.95081967,13.6727273 M5.31147541,13.6727273 L5.90163934,13.6727273 M8.26229508,13.6727273 L8.85245902,13.6727273 M11.2131148,13.6727273 L11.8032787,13.6727273" id="Shape"></path>
                    </g>
                </g>
            </g>
        </g>
    </g>
</svg>