<?xml version="1.0" encoding="UTF-8"?>
<svg width="20px" height="16px" viewBox="0 0 20 16" version="1.1" xmlns="http://www.w3.org/2000/svg" xmlns:xlink="http://www.w3.org/1999/xlink">
    <!-- Generator: Sketch 47.1 (45422) - http://www.bohemiancoding.com/sketch -->
    <title>dolg</title>
    <desc>Created with Sketch.</desc>
    <defs></defs>
    <g id="Page-1" stroke="none" stroke-width="1" fill="none" fill-rule="evenodd" stroke-linecap="round">
        <g id="landing-readysolution-copy" transform="translate(-191.000000, -1316.000000)" stroke="#BD9B5C" stroke-width="0.9">
            <g id="goods" transform="translate(150.000000, 1188.000000)">
                <g id="Group-10" transform="translate(42.000000, 125.000000)">
                    <g id="dolg" transform="translate(0.000000, 4.000000)">
                        <path d="M10.8,10.1818182 L0.72,10.1818182 C0.32235498,10.1818182 8.8817842e-16,9.83992654 8.8817842e-16,9.41818182 L8.8817842e-16,0.763636364 C7.54951657e-16,0.341891646 0.32235498,0 0.72,0 L13.68,0 C14.077645,0 14.4,0.341891646 14.4,0.763636364 L14.4,3.81818182 M0,2.54545455 L14.4,2.54545455 M2.43,5.09090909 L7.2,5.09090909 M2.4,7.63636364 L4.5,7.63636364" id="Shape"></path>
                        <path d="M10.8,8.90909091 L18,8.90909091 L18,14 L10.8,14 L10.8,8.90909091 Z M12.6,8.90909091 L12.6,5.72727273 C12.6,4.67291093 13.4058875,3.81818182 14.4,3.81818182 C15.3941125,3.81818182 16.2,4.67291093 16.2,5.72727273 L16.2,8.90909091 L12.6,8.90909091 Z M14.4,10.8181818 L14.4,12.0909091 L14.4,10.8181818 Z" id="Shape"></path>
                    </g>
                </g>
            </g>
        </g>
    </g>
</svg>