<?xml version="1.0" encoding="UTF-8"?>
<svg width="14px" height="8px" viewBox="0 0 14 8" version="1.1" xmlns="http://www.w3.org/2000/svg" xmlns:xlink="http://www.w3.org/1999/xlink">
    <!-- Generator: Sketch 47.1 (45422) - http://www.bohemiancoding.com/sketch -->
    <title>eye</title>
    <desc>Created with Sketch.</desc>
    <defs></defs>
    <g id="Page-1" stroke="none" stroke-width="1" fill="none" fill-rule="evenodd">
        <g id="landing-readysolution-copy" transform="translate(-356.000000, -2570.000000)" fill-rule="nonzero" fill="#BD9B5C">
            <g id="Group-11" transform="translate(309.000000, 2225.000000)">
                <g id="eye" transform="translate(47.000000, 345.000000)">
                    <path d="M13.8861054,3.80467309 C13.7955625,3.64931338 11.6150433,0 7,0 C2.38495673,0 0.204437451,3.64951834 0.113894571,3.80467309 L0,4 L0.113894571,4.19532691 C0.204437451,4.35068662 2.38495673,8 7,8 C11.6150433,8 13.7955625,4.35048166 13.8861054,4.19532691 L14,4 L13.8861054,3.80467309 Z M7.04053501,4.50912072 C7.28387054,4.50912072 7.48113297,4.69264819 7.48113297,4.91904079 C7.48113297,5.14543339 7.28387054,5.32896085 7.04053501,5.32896085 C6.16496537,5.32817015 5.45535387,4.66805907 5.45438238,3.85345358 C5.44924008,3.59407017 5.52268376,3.33857865 5.66630999,3.11621234 C5.81210692,2.95174667 6.05415279,2.89170077 6.2686074,2.96679647 C6.4791715,3.08013648 6.55116163,3.33079791 6.42942565,3.52674728 C6.30423206,3.72967182 6.30471245,3.9792789 6.43068632,4.18178502 C6.55666019,4.38429114 6.78904764,4.50902488 7.04053501,4.50912072 L7.04053501,4.50912072 Z M7,7.18015987 C3.49900865,7.18015987 1.52116444,4.72022956 1.01778127,4 C1.51014949,3.29575733 3.41066876,0.932978069 6.762738,0.825169092 C4.9885101,0.943995479 3.63374736,2.34818156 3.69764821,4.00207697 C3.76154905,5.65597239 5.22118105,6.9660352 7,6.9660352 C8.77881895,6.9660352 10.2384509,5.65597239 10.3023518,4.00207697 C10.3662526,2.34818156 9.0114899,0.943995479 7.237262,0.825169092 C10.5897718,0.932978069 12.4898505,3.29637221 12.9822187,4 C12.4781747,4.72084444 10.5005507,7.18015987 7,7.18015987 Z" id="Shape"></path>
                </g>
            </g>
        </g>
    </g>
</svg>