<?xml version="1.0" encoding="UTF-8"?>
<svg width="129px" height="129px" viewBox="0 0 129 129" version="1.1" xmlns="http://www.w3.org/2000/svg" xmlns:xlink="http://www.w3.org/1999/xlink">
    <!-- Generator: Sketch 47.1 (45422) - http://www.bohemiancoding.com/sketch -->
    <title>hand</title>
    <desc>Created with Sketch.</desc>
    <defs></defs>
    <g id="Page-1" stroke="none" stroke-width="1" fill="none" fill-rule="evenodd">
        <g id="landing-readysolution-copy" transform="translate(-1178.000000, -1397.000000)" fill-rule="nonzero" fill="#141414">
            <g id="hand" transform="translate(1178.000000, 1397.000000)">
                <path d="M126.36486,15.1281818 C127.535084,15.2901017 128.614287,14.4675266 128.775327,13.2909091 C128.936367,12.1142915 128.118262,11.0291926 126.948037,10.8672727 C100.834752,3.87959377 73.4338507,3.30310918 47.0527103,9.18636364 L51.6014953,3.51818182 C51.9582986,3.06439149 52.11818,2.48518058 52.0450188,1.91140545 C51.9718576,1.33763032 51.6718269,0.817704632 51.2127103,0.469090909 C50.2631413,-0.269484621 48.9013206,-0.113492903 48.1413084,0.820909091 L39.5491589,11.61 L39.4714019,11.8054545 L39.2770093,12.1963636 C39.1983137,12.3111404 39.1575104,12.4478945 39.1603738,12.5872727 L39.1214953,12.9781818 L39.1603738,13.4081818 L39.1992523,13.6036364 L39.2770093,13.7990909 L39.5102804,14.19 L39.7824299,14.5027273 L39.9379439,14.6590909 L50.7461682,22.9854545 C51.6957372,23.7240301 53.0575579,23.5680384 53.8175701,22.6336364 C54.1743734,22.179846 54.3342548,21.6006351 54.2610936,21.02686 C54.1879324,20.4530849 53.8879017,19.9331592 53.428785,19.5845455 L46.0807477,13.9163636 C72.5392958,7.72505231 100.103072,8.14110331 126.36486,15.1281818 L126.36486,15.1281818 Z M90.5188785,104.255455 L93.3181308,109.180909 C93.5969004,109.699072 94.071616,110.082392 94.6349864,110.244234 C95.1983569,110.406077 95.8028256,110.33278 96.3117757,110.040909 C97.3614953,109.415455 97.7502804,108.086364 97.1671028,107.07 L94.795514,102.887273 C98.2945794,87.9936364 87.6029907,68.8 87.1364486,67.9790909 L71.7405607,40.6154545 C70.5742056,38.5436364 68.6302804,37.0190909 66.3364486,36.3936364 C62.3634906,35.2361841 58.1167088,36.9441773 56.0336449,40.5372727 C53.4329855,36.5484857 48.2206418,35.2382806 44.0590654,37.5272727 C42.6205607,38.3481818 41.4930841,39.5209091 40.6766355,40.85 L22.4426168,8.48272727 C19.9810795,4.16396248 14.5271917,2.63201268 10.1958879,5.04272727 C5.84149533,7.42727273 4.28635514,12.8609091 6.69682243,17.1609091 L9.53495327,22.2036364 C7.94093458,22.1645455 6.34691589,22.4772727 4.86953271,23.2981818 C0.515140187,25.6827273 -1.04,31.1163636 1.37046729,35.4163636 L22.5203738,72.9436364 L19.3323364,74.7418182 C15.8470113,76.5904229 13.4805762,80.035391 12.9951402,83.9672727 C12.5285981,87.2118182 13.1895327,90.7690909 14.7446729,93.5054545 L20.3820561,103.512727 C30.3349533,121.181818 51.6792523,123.683636 57.2,123.996364 L59.3771963,127.866364 C59.7659813,128.609091 60.5435514,129 61.3211215,129 C61.671028,129 62.0598131,128.921818 62.3708411,128.726364 C62.8919548,128.46225 63.2802212,127.991967 63.4424889,127.428344 C63.6047565,126.864721 63.5263818,126.258619 63.2261682,125.755455 L60.4657944,120.83 C60.0834783,120.131504 59.3537002,119.697235 58.5607477,119.696364 C58.3274766,119.696364 34.2228037,119.11 24.231028,101.401818 L18.5936449,91.3945455 C17.4819556,89.313788 17.0468578,86.9350188 17.3495327,84.5927273 C17.6216822,82.7163636 18.5547664,80.1363636 21.4706542,78.5336364 L24.6975701,76.7745455 L32.2011215,90.1045455 C32.7969319,91.1664429 34.1309354,91.5496691 35.1947664,90.9645455 C35.71588,90.700432 36.1041465,90.2301492 36.2664141,89.6665258 C36.4286817,89.1029024 36.350307,88.4968013 36.0500935,87.9936364 L5.25831776,33.3054545 C4.6615503,32.2499403 4.51069957,30.9978861 4.83954147,29.8296302 C5.16838337,28.6613743 5.94944715,27.6745104 7.00785047,27.09 C8.0964486,26.5036364 9.34056075,26.3863636 10.5069159,26.6990909 C11.7121495,27.0118182 12.6841121,27.7936364 13.2672897,28.8490909 L29.6351402,57.8936364 L35.5057944,68.2918182 C36.088972,69.3472727 37.4497196,69.7381818 38.4994393,69.1518182 C39.5505961,68.5681262 39.9332746,67.2389235 39.3547664,66.1809091 L36.9442991,61.8809091 L23.92,38.7781818 L17.1162617,26.7381818 L10.5457944,15.05 C9.95370495,13.995625 9.80967232,12.7456788 10.1463014,11.583114 C10.4829306,10.4205493 11.2717545,9.44367801 12.3342056,8.87363636 C14.5479736,7.63962669 17.3370587,8.42344358 18.5936449,10.6327273 L48.724486,64.1481818 C49.3485342,65.2009181 50.6916409,65.5644993 51.7570093,64.9690909 C52.8081662,64.3853989 53.1908447,63.0561963 52.6123364,61.9981818 L47.0138318,52.1081818 L44.4478505,47.5345455 C43.8541181,46.4742496 43.7091157,45.218516 44.0454415,44.0496476 C44.3817672,42.8807791 45.1711982,41.8968617 46.2362617,41.3190909 C48.4626393,40.1139853 51.2385805,40.9114444 52.4957009,43.1172727 L55.9947664,49.2936364 L62.1764486,60.2781818 L62.4485981,60.7472727 C62.7273677,61.2654356 63.2020833,61.6487555 63.7654537,61.8105979 C64.3288242,61.9724402 64.9332929,61.8991432 65.442243,61.6072727 C66.4933998,61.0235807 66.8760783,59.6943781 66.2975701,58.6363636 L62.7207477,52.3036364 L59.8437383,47.1827273 C59.2500059,46.1224314 59.1050036,44.8666979 59.4413293,43.6978294 C59.7776551,42.5289609 60.5670861,41.5450436 61.6321495,40.9672727 C62.6818692,40.3809091 63.9259813,40.2636364 65.131215,40.5763636 C66.2975701,40.9281818 67.2695327,41.6709091 67.8915888,42.7263636 L83.2874766,70.09 C83.4041121,70.2854545 93.9790654,89.3227273 90.324486,102.613636 C90.1733353,103.165417 90.2431156,103.754774 90.5188785,104.255455 Z" id="Shape"></path>
                <path d="M89.6635514,96.4372727 C89.2056144,88.9852473 87.3038103,81.695007 84.0650467,74.9763636 C83.9459301,74.6924499 83.7169992,74.4695234 83.4309593,74.358907 C83.1449194,74.2482906 82.8264192,74.2595164 82.548785,74.39 C81.9593578,74.7024199 81.7193776,75.4262938 82.004486,76.0318182 C85.1027322,82.4570106 86.9251512,89.428004 87.3697196,96.5545455 C87.4085981,97.2190909 87.9140187,97.7272727 88.5360748,97.7272727 L88.5749533,97.7272727 C88.8918958,97.7076492 89.1871798,97.5589428 89.3926229,97.3154907 C89.5980659,97.0720386 89.695906,96.7548887 89.6635514,96.4372727 L89.6635514,96.4372727 Z" id="Shape"></path>
                <path d="M86.708785,98.5090909 C86.32,99.6427273 85.931215,100.229091 85.8923364,100.229091 C85.5813084,100.737273 85.8923364,101.323636 86.6699065,101.558182 L87.2919626,101.636364 C87.8362617,101.636364 88.3805607,101.440909 88.6527103,101.05 C88.6915888,100.971818 89.1581308,100.268182 89.6246729,98.9390909 C89.8190654,98.3918182 89.3136449,97.8836364 88.4971963,97.7663636 C87.6807477,97.61 86.9031776,97.9618182 86.708785,98.5090909 L86.708785,98.5090909 Z" id="Shape"></path>
            </g>
        </g>
    </g>
</svg>