<?xml version="1.0" standalone="no"?>
<!DOCTYPE svg PUBLIC "-//W3C//DTD SVG 1.1//EN" "http://www.w3.org/Graphics/SVG/1.1/DTD/svg11.dtd" >
<svg xmlns="http://www.w3.org/2000/svg" xmlns:xlink="http://www.w3.org/1999/xlink" version="1.1">
<metadata>
Created by FontForge 20170910 at Mon Apr 27 19:35:39 2015
 By Jimmy Wärting
(c)2014-15 Ilya Ruderman and Yury Ostromentsky, under exclusive license to CSTM Fonts. All rights reserved.
</metadata>
<defs>
<font id="Kazimir-MediumItalic" horiz-adv-x="613" >
  <font-face 
    font-family="Kazimir-MediumItalic"
    font-weight="400"
    font-style="italic"
    font-stretch="normal"
    units-per-em="1000"
    panose-1="2 7 6 3 7 7 6 11 3 3"
    ascent="746"
    descent="-254"
    x-height="504"
    cap-height="690"
    bbox="-179.998 -323.001 1262.34 975.001"
    underline-thickness="0"
    underline-position="0"
    slope="-7"
    unicode-range="U+0020-FB02"
  />
<missing-glyph horiz-adv-x="500" 
d="M50 -250h400v1000h-400v-1000zM100 -200v900h300v-900h-300z" />
    <glyph glyph-name="fi" unicode="fi" horiz-adv-x="652" 
d="M-37 -259c-40 0 -72 8.99805 -96 26.998s-36 43 -36 75c0 26 7.33301 47.167 22 63.5s34.334 24.5 59.001 24.5c20 0 35.833 -5.66699 47.5 -17s17.5 -26.666 17.5 -45.999c0 -21.333 -6.5 -38.833 -19.5 -52.5s-30.833 -21.834 -53.5 -24.501
c4.66699 -4 11.334 -7.33301 20.001 -10s17.667 -4 27 -4c28.667 0 52 12.667 70 38s30.333 63.333 37 114l66 537h-79l4 38h80c10.667 85.333 38.5 150 83.5 194s106.167 66 183.5 66c52.667 0 94.667 -10.167 126 -30.5s47 -48.166 47 -83.499
c0 -25.333 -6.83301 -45.5 -20.5 -60.5s-32.5 -22.5 -56.5 -22.5c-21.333 0 -38.166 5.66699 -50.499 17s-18.5 26.666 -18.5 45.999c0 20.667 5.83301 37.834 17.5 51.501s28.167 21.834 49.5 24.501c-8 6.66699 -18.667 11.834 -32 15.501s-27.333 5.5 -42 5.5
c-44.667 0 -78.334 -14 -101.001 -42s-37.334 -72.333 -44.001 -133l-7 -48h71c76.667 0 129 0.833008 157 2.5s46 4.5 54 8.5l17 -9l-49 -409c-2.66699 -20.667 -2.16699 -35.667 1.5 -45s10.834 -14 21.501 -14c14 0 25.5 9.33301 34.5 28s15.833 47 20.5 85h38
c-9.33301 -64 -24.333 -107.333 -45 -130s-51.334 -34 -92.001 -34c-44 0 -75.167 12.167 -93.5 36.5s-24.5 61.5 -18.5 111.5l39 331h-160l-54 -440c-12 -92.667 -38.833 -163.334 -80.5 -212.001s-95.834 -73 -162.501 -73z" />
    <glyph glyph-name="fl" unicode="fl" horiz-adv-x="652" 
d="M274 576l-10 -72.001h162l25 208c-4.66699 4.66699 -11.834 8.33398 -21.501 11.001s-19.167 4 -28.5 4c-36.667 0 -65.167 -12.167 -85.5 -36.5s-34.166 -62.5 -41.499 -114.5zM-37 -259.001c-40 0 -72.001 8.99805 -96.001 26.998s-36 43 -36 75
c0 26 7.33301 47.167 22 63.5s34.334 24.5 59.001 24.5c20 0 35.833 -5.66699 47.5 -17s17.5 -26.666 17.5 -45.999c0 -21.333 -6.5 -38.833 -19.5 -52.5s-30.833 -21.834 -53.5 -24.501c4.66699 -4 11.334 -7.33301 20.001 -10s17.667 -4 27 -4c28.667 0 52 12.667 70 38
s30.333 63.333 37 114l66 537h-79l4 38h80c10 82.667 37.333 146.667 82 192s101.334 68 170.001 68c13.333 0 27.166 -1 41.499 -3s27.833 -5 40.5 -9c28 0.666992 51.5 1.83398 70.5 3.50098s32.167 3.83398 39.5 6.50098l21 -9l-80 -653
c-2.66699 -21.333 -2.16699 -36.5 1.5 -45.5s10.834 -13.5 21.501 -13.5c13.333 0 24.666 9.33301 33.999 28s16.333 47.334 21 86.001h38c-10 -64.667 -25.333 -108.5 -46 -131.5s-51 -34.5 -91 -34.5c-44 0 -75.167 12.167 -93.5 36.5s-24.5 61.5 -18.5 111.5l40 329h-161
l-54 -440c-12 -92.667 -38.833 -163.334 -80.5 -212.001s-95.834 -73 -162.501 -73z" />
    <glyph glyph-name="f_b" unicode="fb" horiz-adv-x="919" 
d="M274 576l-10 -72.001h162l25 208c-4.66699 4.66699 -11.834 8.33398 -21.501 11.001s-19.167 4 -28.5 4c-36.667 0 -65.167 -12.167 -85.5 -36.5s-34.166 -62.5 -41.499 -114.5zM532 212.999c-5.33301 -60.667 -0.168945 -107.334 15.498 -140.001s40.5 -49 74.5 -49
c32.667 0 59.334 19.833 80.001 59.5s33.667 96.5 39 170.5c4.66699 67.333 0 117.5 -14 150.5s-37.333 49.5 -70 49.5c-30 0 -55.667 -17.5 -77 -52.5s-35.666 -81.5 -42.999 -139.5c-0.666992 -5.33301 -1.66699 -14.166 -3 -26.499s-2 -19.833 -2 -22.5zM572.997 761.999
l21 -9.00195c-18.667 -117.333 -33.334 -208.333 -44.001 -273s-17 -103 -19 -115c14 49.333 36 87 66 113s67 39 111 39c61.333 0 107.833 -23.333 139.5 -70s44.167 -110 37.5 -190c-6 -78.667 -32.5 -143.5 -79.5 -194.5s-105.167 -76.5 -174.5 -76.5
c-36 0 -67.333 7.83301 -94 23.5s-46.667 37.834 -60 66.501l-70 -96h-45l59 486h-161l-54 -440c-12 -92.667 -38.833 -163.334 -80.5 -212.001s-95.834 -73 -162.501 -73c-40 0 -72 9 -96 27s-36 43 -36 75c0 26 7.33301 47.167 22 63.5s34.334 24.5 59.001 24.5
c20 0 35.833 -5.66699 47.5 -17s17.5 -26.666 17.5 -45.999c0 -21.333 -6.5 -38.833 -19.5 -52.5s-30.833 -21.834 -53.5 -24.501c4.66699 -4 11.334 -7.33301 20.001 -10s17.667 -4 27 -4c28.667 0 52 12.667 70 38s30.333 63.333 37 114l66 537h-79l4 38h80
c10 82.667 37.333 146.667 82 192s101.334 68 170.001 68c13.333 0 27.166 -1 41.499 -3s27.833 -5 40.5 -9c28 0.666992 51.5 1.83398 70.5 3.50098s32.167 3.83398 39.5 6.50098z" />
    <glyph glyph-name="f_h" unicode="fh" horiz-adv-x="929" 
d="M274 576l-10 -72.001h162l25 208c-4.66699 4.66699 -11.834 8.33398 -21.501 11.001s-19.167 4 -28.5 4c-36.667 0 -65.167 -12.167 -85.5 -36.5s-34.166 -62.5 -41.499 -114.5zM573 761.999l20.998 -9c-15.333 -100 -27.833 -179.5 -37.5 -238.5
s-16.5 -97.167 -20.5 -114.5c15.333 38 37.333 67 66 87s62 30 100 30c48 0 82.667 -14.5 104 -43.5s28.666 -71.167 21.999 -126.5l-30 -247c-2 -22.667 -1.16699 -38.667 2.5 -48s10.5 -14 20.5 -14c14 0 25.333 9.16699 34 27.5s15.667 47.166 21 86.499h38
c-9.33301 -64 -24.5 -107.5 -45.5 -130.5s-52.167 -34.5 -93.5 -34.5c-42.667 0 -73.167 12.333 -91.5 37s-24.166 61.667 -17.499 111l27 222c4.66699 32 3 56 -5 72s-22 24 -42 24c-28.667 0 -53.167 -16.667 -73.5 -50s-34.166 -81.333 -41.499 -144l-31 -259h-137
l58 466h-161l-54 -440c-12 -92.667 -38.833 -163.334 -80.5 -212.001s-95.834 -73 -162.501 -73c-40 0 -72 9 -96 27s-36 43 -36 75c0 26 7.33301 47.167 22 63.5s34.334 24.5 59.001 24.5c20 0 35.833 -5.66699 47.5 -17s17.5 -26.666 17.5 -45.999
c0 -21.333 -6.5 -38.833 -19.5 -52.5s-30.833 -21.834 -53.5 -24.501c4.66699 -4 11.334 -7.33301 20.001 -10s17.667 -4 27 -4c28.667 0 52 12.667 70 38s30.333 63.333 37 114l66 537h-79l4 38h80c10 82.667 37.333 146.667 82 192s101.334 68 170.001 68
c13.333 0 27.166 -1 41.499 -3s27.833 -5 40.5 -9c28 0.666992 51.5 1.83398 70.5 3.50098s32.167 3.83398 39.5 6.50098z" />
    <glyph glyph-name="f_k" unicode="fk" horiz-adv-x="889" 
d="M274 576l-10 -72.001h162l25 208c-4.66699 4.66699 -11.834 8.33398 -21.501 11.001s-19.167 4 -28.5 4c-36.667 0 -65.167 -12.167 -85.5 -36.5s-34.166 -62.5 -41.499 -114.5zM573 761.999l21 -9c-14 -98.667 -25.333 -178 -34 -238s-15 -101 -19 -123
c17.333 41.333 40.166 72.5 68.499 93.5s61.5 31.5 99.5 31.5c38.667 0 69.167 -10.167 91.5 -30.5s33.5 -47.833 33.5 -82.5c0 -36 -12 -67 -36 -93s-59.667 -47 -107 -63l103 -211h55l-4 -37h-184l-103 217l4 33c42.667 4 76.167 19.5 100.5 46.5s36.5 60.5 36.5 100.5
c0 20 -4 35.167 -12 45.5s-19.667 15.5 -35 15.5c-27.333 0 -52.333 -20.333 -75 -61s-39 -97.334 -49 -170.001l-28 -227h-138l59 466h-161l-54 -440c-12 -92.667 -38.833 -163.334 -80.5 -212.001s-95.834 -73 -162.501 -73c-40 0 -72 9 -96 27s-36 43 -36 75
c0 26 7.33301 47.167 22 63.5s34.334 24.5 59.001 24.5c20 0 35.833 -5.66699 47.5 -17s17.5 -26.666 17.5 -45.999c0 -21.333 -6.5 -38.833 -19.5 -52.5s-30.833 -21.834 -53.5 -24.501c4.66699 -4 11.334 -7.33301 20.001 -10s17.667 -4 27 -4c28.667 0 52 12.667 70 38
s30.333 63.333 37 114l66 537h-79l4 38h80c10 82.667 37.333 146.667 82 192s101.334 68 170.001 68c13.333 0 27.166 -1 41.499 -3s27.833 -5 40.5 -9c28 0.666992 51.5 1.83398 70.5 3.50098s32.167 3.83398 39.5 6.50098z" />
    <glyph glyph-name=".notdef" horiz-adv-x="500" 
d="M50 -250h400v1000h-400v-1000zM100 -200v900h300v-900h-300z" />
    <glyph glyph-name="space" unicode=" " horiz-adv-x="300" 
 />
    <glyph glyph-name="exclam" unicode="!" horiz-adv-x="299" 
d="M158 208h-40.001c5.33301 42.667 7.5 85.834 6.5 129.501s-5.83301 99.834 -14.5 168.501c-4.66699 35.333 -7.5 60.333 -8.5 75s-0.833008 27 0.5 37c3.33301 24.667 13.5 45.167 30.5 61.5s38.5 24.5 64.5 24.5s45.5 -8.33301 58.5 -25s17.833 -37 14.5 -61
c-1.33301 -10.667 -4.16602 -23.334 -8.49902 -38.001s-12.833 -40.334 -25.5 -77.001c-25.333 -68 -43.333 -123.667 -54 -167s-18.667 -86 -24 -128zM203.999 72c-0.666992 -22.667 -9.83008 -42.667 -27.4971 -60s-39.834 -26 -66.501 -26
c-25.333 0 -44.333 7.33301 -57 22s-18.334 33 -17.001 55c1.33301 24 10.666 44.333 27.999 61s39.333 25 66 25c24.667 0 43.5 -7.5 56.5 -22.5s18.833 -33.167 17.5 -54.5z" />
    <glyph glyph-name="quotedbl" unicode="&#x22;" horiz-adv-x="431" 
d="M336 403l-35.001 0.00195312l-20 260c-0.666992 11.333 1 18.666 5 21.999s12 5 24 5h82c10.667 0 17.334 -1.83301 20.001 -5.5s2.66699 -10.834 0 -21.501zM155.999 403.002l-35.001 0.00195312l-20 260c-0.666992 11.333 1 18.666 5 21.999s12 5 24 5h82
c10.667 0 17.334 -1.83301 20.001 -5.5s2.66699 -10.834 0 -21.501z" />
    <glyph glyph-name="numbersign" unicode="#" horiz-adv-x="537" 
d="M251 454l-65 -166h117l65 166h-117zM74 0h-52l96 245h-106l7 43h117l64 166h-129l7 43h139l98 252h51l-99 -252h118l98 252h51l-99 -252h106l-3 -43h-120l-64 -166h128l-2 -43h-143l-96 -245h-51l96 245h-118z" />
    <glyph glyph-name="dollar" unicode="$" horiz-adv-x="531" 
d="M307 413l31.001 251.999c-2 0.666992 -4.33301 1 -7 1h-13h-14.5c-3.66699 0 -6.83398 -0.333008 -9.50098 -1l-30 -236c6 -2.66699 12.333 -5.16699 19 -7.5s14.667 -5.16602 24 -8.49902zM166.001 549.999c-4 -25.333 -0.667969 -46.5 9.99902 -63.5
s30.334 -32.167 59.001 -45.5l27 217c-26.667 -8 -48.5 -21.5 -65.5 -40.5s-27.167 -41.5 -30.5 -67.5zM237 23.999c3.33301 0 6.66699 0.166992 10 0.5s7.33301 0.833008 12 1.5l29 235c-6.66699 2.66699 -13.5 5.16699 -20.5 7.5s-14.167 4.83301 -21.5 7.5l-31 -251
c2.66699 -0.666992 5.5 -1 8.5 -1h13.5zM317.001 249.999l-26.999 -220.001c29.333 6.66699 52 19.334 68 38.001s26 43.667 30 75c3.33301 25.333 -0.333984 46.5 -11.001 63.5s-30.667 31.5 -60 43.5zM197.002 -119.002l-29.9961 -0.000976562l13 111
c-54.667 6.66699 -96.167 23 -124.5 49s-39.5 58 -33.5 96c4 26.667 13.167 47.334 27.5 62.001s32.833 22 55.5 22c22 0 38.167 -6.66699 48.5 -20s14.166 -31.333 11.499 -54c-3.33301 -18 -10.5 -33.167 -21.5 -45.5s-25.5 -21.5 -43.5 -27.5
c8.66699 -12 20.167 -21.667 34.5 -29s31.166 -12.666 50.499 -15.999l32 257c-56.667 21.333 -96 50 -118 86s-29 81.667 -21 137c6 46 26.5 86.5 61.5 121.5s77.5 57.5 127.5 67.5l12 96h30l-11 -91c2.66699 0.666992 5.66699 1 9 1h14c2.66699 0 6.5 -0.166992 11.5 -0.5
s8.16699 -0.5 9.5 -0.5l11 91h31l-12 -94c51.333 -6.66699 90.5 -22.834 117.5 -48.501s37.833 -57.167 32.5 -94.5c-2.66699 -22 -10.834 -39.667 -24.501 -53s-30.5 -20 -50.5 -20c-22 0 -38.667 6.5 -50 19.5s-15.666 29.167 -12.999 48.5
c3.33301 19.333 9.66602 34.333 18.999 45s22.666 19 39.999 25c-8.66699 10.667 -19.334 19.5 -32.001 26.5s-27 11.833 -43 14.5l-32 -262c60.667 -24.667 101.667 -53.5 123 -86.5s29 -74.833 23 -125.5c-6.66699 -52.667 -27.167 -96.667 -61.5 -132
s-79.5 -57 -135.5 -65l-13 -111h-31l14 108c-1.33301 0 -4.5 -0.166992 -9.5 -0.5s-8.5 -0.5 -10.5 -0.5c-3.33301 0 -7.66602 0.166992 -12.999 0.5s-9 0.5 -11 0.5z" />
    <glyph glyph-name="percent" unicode="%" horiz-adv-x="849" 
d="M634 548l-446 -562.003l-43 32l431 541c4 4 7.16699 7.83301 9.5 11.5s4.5 7.5 6.5 11.5c-34 -6 -65.833 -7.66699 -95.5 -5s-55.5 9.66699 -77.5 21c2 -8.66699 3.5 -18 4.5 -28s1.16699 -20 0.5 -30c-2.66699 -60 -21.5 -109.167 -56.5 -147.5
s-79.167 -57.5 -132.5 -57.5c-45.333 0 -83.833 16.333 -115.5 49s-46.167 73 -43.5 121c2 53.333 24.167 99.833 66.5 139.5s88.166 59.5 137.499 59.5c22 0 42.167 -3.5 60.5 -10.5s33.833 -17.167 46.5 -30.5c28.667 -23.333 63.167 -37.5 103.5 -42.5
s82.833 -1.5 127.5 10.5c10 20.667 16.333 33.334 19 38.001s5.33398 8.66699 8.00098 12c6.66699 8 14 13.833 22 17.5s17.333 5.5 28 5.5c14 0 25.167 -4.33301 33.5 -13s11.5 -19 9.5 -31c-1.33301 -12.667 -5.83301 -24.167 -13.5 -34.5s-22.834 -23.5 -45.501 -39.5
c-13.333 -9.33301 -23.166 -16.666 -29.499 -21.999s-11.5 -10.666 -15.5 -15.999zM215 492.997c-2 -39.333 2.16992 -68.833 12.5029 -88.5s26.833 -29.5 49.5 -29.5c26.667 0 49.667 16.5 69 49.5s29.666 72.833 30.999 119.5c2 36.667 -2.83301 65.834 -14.5 87.501
s-28.834 32.5 -51.501 32.5c-26.667 0 -48.834 -15.833 -66.501 -47.5s-27.5 -72.834 -29.5 -123.501zM792.003 189.997c-2.66699 -60 -21.502 -109.001 -56.502 -147.001s-79.5 -57 -133.5 -57c-45.333 0 -83.666 16.333 -114.999 49s-45.666 73 -42.999 121
c2 52.667 24 98.834 66 138.501s87.667 59.5 137 59.5c48 0 84.833 -14.5 110.5 -43.5s37.167 -69.167 34.5 -120.5zM582.001 143.996c-2 -39.333 2.33301 -69.001 13 -89.001s27.334 -30 50.001 -30c26 0 48.667 16.5 68 49.5s30 73.167 32 120.5
c2 36.667 -2.83301 65.834 -14.5 87.501s-28.834 32.5 -51.501 32.5c-27.333 0 -49.833 -16 -67.5 -48s-27.5 -73 -29.5 -123z" />
    <glyph glyph-name="ampersand" unicode="&#x26;" horiz-adv-x="778" 
d="M391 68c-32.667 -30 -63.8359 -51.167 -93.5029 -63.5s-65.5 -18.5 -107.5 -18.5c-55.333 0 -99.333 15 -132 45s-48 68.333 -46 115c2.66699 49.333 19.334 91.5 50.001 126.5s75.667 63.5 135 85.5c-23.333 36.667 -39 66.334 -47 89.001s-11.333 45.667 -10 69
c2 54 23 98.667 63 134s90.667 53 152 53c51.333 0 92 -11.5 122 -34.5s43.667 -53.5 41 -91.5c-2 -34 -17 -65.833 -45 -95.5s-72.333 -59.5 -133 -89.5c14.667 -22 38.334 -57 71.001 -105s54.667 -80.333 66 -97c22.667 23.333 45.834 51.833 69.501 85.5
s44.5 68.167 62.5 103.5h-82l5 37h190l-5 -37h-63c-24 -42.667 -48.167 -81.334 -72.5 -116.001s-52.5 -69.667 -84.5 -105c28.667 -42 50.5 -69.167 65.5 -81.5s32.167 -18.5 51.5 -18.5c21.333 0 39.333 11.833 54 35.5s24.334 54.834 29.001 93.501h34
c-8 -66.667 -26.833 -116.834 -56.5 -150.501s-69.834 -50.5 -120.501 -50.5c-34 0 -63.5 6.33301 -88.5 19s-49.833 33.667 -74.5 63zM258.998 573c-0.666992 -18.667 3 -38.5 11 -59.5s23 -48.833 45 -83.5c28.667 18 50.5 40.5 65.5 67.5s22.833 58.167 23.5 93.5
c0.666992 23.333 -4.16602 41.5 -14.499 54.5s-24.833 19.5 -43.5 19.5c-26 0 -46.833 -8.33301 -62.5 -25s-23.834 -39 -24.501 -67zM137.998 170c-1.33301 -38 7.66895 -68.5 27.002 -91.5s46.333 -34.5 81 -34.5c22.667 0 44.5 4.83301 65.5 14.5
s39.833 23.167 56.5 40.5c-10.667 16 -21.834 32.833 -33.501 50.5s-27.5 41.5 -47.5 71.5c-20.667 30.667 -35.167 52.5 -43.5 65.5s-15.833 24.5 -22.5 34.5c-25.333 -15.333 -45.333 -36 -60 -62s-22.334 -55.667 -23.001 -89z" />
    <glyph glyph-name="quotesingle" unicode="'" horiz-adv-x="239" 
d="M156 403l-35.001 0.00195312l-20 260c-0.666992 11.333 1 18.666 5 21.999s12 5 24 5h82c10.667 0 17.334 -1.83301 20.001 -5.5s2.66699 -10.834 0 -21.501z" />
    <glyph glyph-name="parenleft" unicode="(" horiz-adv-x="409" 
d="M341 -228l-26.002 -32.0029c-78 37.333 -140.5 97.333 -187.5 180s-68.5 171.334 -64.5 266.001c4.66699 112 43 223.333 115 334s158.667 192 260 244l21 -32c-84 -62 -144.833 -137 -182.5 -225s-60.167 -205 -67.5 -351
c-0.666992 -15.333 -1.16699 -30.166 -1.5 -44.499s-0.166016 -28.166 0.500977 -41.499c0.666992 -15.333 1.66699 -30 3 -44s3 -27.333 5 -40c2 -15.333 5 -29.833 9 -43.5s8.33301 -26.5 13 -38.5c5.33301 -14 11.5 -26.833 18.5 -38.5s15.167 -22.834 24.5 -33.501
c8.66699 -11.333 20.334 -23.666 35.001 -36.999s23 -21 25 -23z" />
    <glyph glyph-name="parenright" unicode=")" horiz-adv-x="409" 
d="M338 298c-4.66699 -109.333 -42 -216.167 -112 -320.5s-156.667 -183.5 -260 -237.5l-21 32c85.333 64 146.333 138.167 183 222.5s58.334 195.833 65.001 334.5c1.33301 27.333 1.83301 53.333 1.5 78s-1.5 48 -3.5 70c-2.66699 28 -7 53.833 -13 77.5
s-13.667 45.167 -23 64.5c-7.33301 16 -16 30.833 -26 44.5s-32 36.5 -66 68.5l26 32c76 -36 137.667 -98.333 185 -187s68.666 -181.667 63.999 -279z" />
    <glyph glyph-name="asterisk" unicode="*" horiz-adv-x="424" 
d="M288 649c-10 -12 -16.833 -21.1689 -20.5 -27.502s-6.16699 -12.5 -7.5 -18.5l-18 3c1.33301 6 1.66602 12.333 0.999023 19s-3.33398 17 -8.00098 31c-5.33301 17.333 -8.5 30.833 -9.5 40.5s-0.5 19.167 1.5 28.5c2.66699 12.667 9.83398 23.334 21.501 32.001
s24.5 12.667 38.5 12c13.333 -1.33301 24 -7.16602 32 -17.499s10.667 -21.833 8 -34.5c-2 -10 -5.66699 -19.667 -11 -29s-14.666 -22.333 -27.999 -39zM233 599.998l-12.999 -15c-4.66699 4 -10.167 7 -16.5 9s-17.166 3.66699 -32.499 5
c-18.667 2 -32.334 4.33301 -41.001 7s-16.334 6.66699 -23.001 12c-10.667 7.33301 -16.167 17.833 -16.5 31.5s4.16699 26.167 13.5 37.5c8.66699 11.333 19.834 18.5 33.501 21.5s25.5 0.833008 35.5 -6.5c7.33301 -6 13.666 -13 18.999 -21s11.333 -21 18 -39
c4.66699 -13.333 8.66699 -22.833 12 -28.5s7 -10.167 11 -13.5zM325.001 582.998c-15.333 0.666992 -26.499 0.667969 -33.499 0.000976562s-13.167 -2.33398 -18.5 -5.00098l-6 18c6 2.66699 12 6.33398 18 11.001s14.333 13.334 25 26.001
c12.667 15.333 23 26.166 31 32.499s16.333 11.5 25 15.5c12.667 6 25.167 6.33301 37.5 1s20.5 -14 24.5 -26c4 -12.667 3.16699 -25.334 -2.5 -38.001s-14.834 -21.667 -27.501 -27c-9.33301 -4 -19 -6.83301 -29 -8.5s-24.667 -1.5 -44 0.5zM182.002 522.999
c-13.333 -15.333 -24 -26.335 -32 -33.002s-16.667 -12 -26 -16c-13.333 -6 -25.833 -6.66699 -37.5 -2s-19.5 13.334 -23.5 26.001c-4.66699 12.667 -4.16699 25.5 1.5 38.5s14.834 22.167 27.501 27.5c9.33301 4 19.166 6.66699 29.499 8s24.833 1.33301 43.5 0
c15.333 -1.33301 26.5 -1.66602 33.5 -0.999023s13.5 2.33398 19.5 5.00098l5 -17c-6 -2.66699 -11.667 -6.33398 -17 -11.001s-13.333 -13 -24 -25zM386.002 466.997c-8.66699 -11.333 -19.833 -18.502 -33.5 -21.502s-25.5 -0.833008 -35.5 6.5
c-7.33301 6 -13.5 13 -18.5 21s-10.833 21 -17.5 39c-4.66699 14 -8.66699 23.833 -12 29.5s-7 10.167 -11 13.5l12 15c4.66699 -3.33301 10.167 -6 16.5 -8s16.833 -3.66699 31.5 -5c18.667 -2.66699 32.667 -5.5 42 -8.5s17.333 -7.5 24 -13.5
c10 -7.33301 15.167 -17.666 15.5 -30.999s-4.16699 -25.666 -13.5 -36.999zM262.003 429.995c-2.66699 -13.333 -9.66895 -24.332 -21.002 -32.999s-24 -12.334 -38 -11.001c-13.333 1.33301 -23.833 7 -31.5 17s-10.167 21.667 -7.5 35c2 9.33301 5.66699 18.833 11 28.5
s14.333 22.834 27 39.501c10 12 16.833 21.167 20.5 27.5s6.16699 12.166 7.5 17.499l18 -2c-1.33301 -6 -1.66602 -12.167 -0.999023 -18.5s3.33398 -16.5 8.00098 -30.5c5.33301 -17.333 8.33301 -31 9 -41s0 -19.667 -2 -29z" />
    <glyph glyph-name="plus" unicode="+" horiz-adv-x="462" 
d="M237 119h-50l20 170h-171l6 47h171l20 165h50l-20 -165h171l-6 -47h-171z" />
    <glyph glyph-name="comma" unicode="," horiz-adv-x="305" 
d="M215 68c-3.33301 -50.667 -20.8281 -102 -52.4951 -154s-69.834 -92.667 -114.501 -122l-26 24c29.333 22.667 54.666 49.5 75.999 80.5s36 62.5 44 94.5c-2.66699 -1.33301 -6.33398 -2.5 -11.001 -3.5s-9.66699 -1.5 -15 -1.5c-26.667 0 -46.834 7.83301 -60.501 23.5
s-19.5 35.834 -17.5 60.501c1.33301 25.333 11.166 47.166 29.499 65.499s41.5 27.5 69.5 27.5c26 0 46 -8.66699 60 -26s20 -40.333 18 -69z" />
    <glyph glyph-name="hyphen" unicode="-" horiz-adv-x="344" 
d="M293 273h-246l5 40h246z" />
    <glyph glyph-name="period" unicode="." horiz-adv-x="304" 
d="M217 79c-1.33301 -24.667 -11.332 -46.335 -29.999 -65.002s-42 -28 -70 -28c-26.667 0 -46.834 7.83301 -60.501 23.5s-19.5 35.834 -17.5 60.501c0.666992 24.667 10.167 46.334 28.5 65.001s41.833 28 70.5 28c26 0 46 -8 60 -24s20.333 -36 19 -60z" />
    <glyph glyph-name="slash" unicode="/" horiz-adv-x="451" 
d="M516 746l-532 -852l-41 23l532 852z" />
    <glyph glyph-name="zero" unicode="0" horiz-adv-x="586" 
d="M470 111c-28.667 -40.667 -60.834 -71.667 -96.501 -93s-73.167 -32 -112.5 -32c-40 0 -75.667 11 -107 33s-57 53.667 -77 95c-16 34 -27.167 71.667 -33.5 113s-7.16602 81 -2.49902 119c4.66699 39.333 15.5 79.833 32.5 121.5s37.833 79.167 62.5 112.5
c30 40 63.167 70.667 99.5 92s74.166 32 113.499 32c40 0 75.333 -11 106 -33s55.667 -53.667 75 -95c14.667 -32.667 24.834 -69.5 30.501 -110.5s6.16699 -80.833 1.5 -119.5c-4.66699 -40 -15.167 -80.833 -31.5 -122.5s-36.5 -79.167 -60.5 -112.5zM189 346
c-14.667 -120.667 -16.333 -204.5 -5 -251.5s38.333 -70.5 81 -70.5c42 0 73.5 22.167 94.5 66.5s39.167 129.5 54.5 255.5c15.333 124.667 18 209.167 8 253.5s-36 66.5 -78 66.5c-44 0 -77.167 -23.167 -99.5 -69.5s-40.833 -129.833 -55.5 -250.5z" />
    <glyph glyph-name="one" unicode="1" horiz-adv-x="420" 
d="M363 0l-377 0.00195312l5 37h120l71 580h-120l4 36c72.667 0 129 4.83301 169 14.5s69.333 25.167 88 46.5h28c-6 -10.667 -12 -29.834 -18 -57.501s-11 -57.834 -15 -90.501l-65 -529h115z" />
    <glyph glyph-name="two" unicode="2" horiz-adv-x="558" 
d="M452 0l-441.002 0.00195312v40c18.667 17.333 40 37.166 64 59.499s61 55.833 111 100.5c78.667 71.333 131.834 120.333 159.501 147s45.834 46 54.501 58c-26 -20.667 -49.833 -35.167 -71.5 -43.5s-44.5 -12.5 -68.5 -12.5c-57.333 0 -105 15.5 -143 46.5
s-55.667 70.833 -53 119.5c2.66699 54 29 99 79 135s110.333 54 181 54c65.333 0 116.833 -14.667 154.5 -44s55.167 -69.333 52.5 -120c-1.33301 -28 -10.333 -55.5 -27 -82.5s-45 -59.167 -85 -96.5c-6.66699 -8.66699 -18.167 -21 -34.5 -37s-47.166 -44.667 -92.499 -86
c-38.667 -35.333 -67.5 -61.833 -86.5 -79.5s-35.833 -33.834 -50.5 -48.501h176c47.333 0 78.666 5.33301 93.999 16s27 32 35 64l10 41h37zM202.998 510.002c-2.66699 -39.333 2.99902 -69.833 16.999 -91.5s34.667 -32.5 62 -32.5c28.667 0 53.334 14.333 74.001 43
s32 65 34 109c2 40 -3.83301 71.333 -17.5 94s-33.5 34 -59.5 34c-30 0 -55.167 -14.5 -75.5 -43.5s-31.833 -66.5 -34.5 -112.5z" />
    <glyph glyph-name="three" unicode="3" horiz-adv-x="533" 
d="M487 213c-2.66699 -70 -27.6689 -125.333 -75.002 -166s-112.666 -61 -195.999 -61c-65.333 0 -115.166 14.5 -149.499 43.5s-50.166 68.833 -47.499 119.5c1.33301 30.667 10.5 55.5 27.5 74.5s38.833 28.5 65.5 28.5c22 0 39.167 -6.83301 51.5 -20.5
s17.5 -31.167 15.5 -52.5c-1.33301 -26 -11 -46.667 -29 -62s-43 -23 -75 -23c6.66699 -22.667 20 -39.834 40 -51.501s45.333 -17.5 76 -17.5c42.667 0 77.5 18.667 104.5 56s41.5 85.666 43.5 144.999c2 46 -5 82.167 -21 108.5s-37.667 39.5 -65 39.5
c-10.667 0 -20.667 -1.5 -30 -4.5s-19.333 -8.16699 -30 -15.5l-16 20l210 206h-135c-52 0 -84.333 -5 -97 -15s-21.667 -34 -27 -72l-3 -21h-37l28 218h403v-36l-248 -244c74 -9.33301 129.167 -30.666 165.5 -63.999s53.166 -77.666 50.499 -132.999z" />
    <glyph glyph-name="four" unicode="4" horiz-adv-x="556" 
d="M487 0h-322l5 37h96l18 146h-279l3 22l412 497h70l-59 -482h83l-5 -37h-83l-18 -146h83zM328 533l-253 -313h214z" />
    <glyph glyph-name="five" unicode="5" horiz-adv-x="520" 
d="M481 245c-4 -74 -31.502 -135.665 -82.502 -184.998s-117.833 -74 -200.5 -74c-61.333 0 -108.166 13.167 -140.499 39.5s-47.166 63.166 -44.499 110.499c2 30.667 11.333 55.667 28 75s38.334 29 65.001 29c22 0 39 -6.83301 51 -20.5s17.333 -31.167 16 -52.5
c-1.33301 -25.333 -10.666 -45.666 -27.999 -60.999s-41 -23.333 -71 -24c6 -18.667 18 -32.834 36 -42.501s41.667 -14.5 71 -14.5c44 0 79.667 20 107 60s42.333 92.333 45 157c3.33301 57.333 -2.83398 100.666 -18.501 129.999s-40.167 44 -73.5 44
c-32.667 0 -61 -7.5 -85 -22.5s-41.667 -36.5 -53 -64.5h-32l82 361h238c25.333 0 44.333 4.33301 57 13s22.667 28 30 58l7 30h38l-50 -207h-305l-39 -177c16.667 18 36.667 31.167 60 39.5s51.666 12.5 84.999 12.5c64.667 0 116 -19.833 154 -59.5
s55.667 -91.167 53 -154.5z" />
    <glyph glyph-name="six" unicode="6" horiz-adv-x="559" 
d="M519 220c-3.33301 -61.333 -32.002 -115.67 -86.002 -163.003s-115.667 -71 -185 -71s-123.666 24.5 -162.999 73.5s-56.666 117.167 -51.999 204.5c2.66699 48.667 12 98.334 28 149.001s37.333 96.334 64 137.001c32 50 69 88.167 111 114.5s87 39.5 135 39.5
c50 0 89.333 -11.5 118 -34.5s42 -53.5 40 -91.5c-1.33301 -27.333 -10.166 -49.5 -26.499 -66.5s-37.166 -25.5 -62.499 -25.5c-22.667 0 -40.5 6.5 -53.5 19.5s-18.833 29.833 -17.5 50.5c1.33301 23.333 9.66602 42.333 24.999 57s35.666 23 60.999 25
c-9.33301 10 -21.5 17.5 -36.5 22.5s-32.5 7.5 -52.5 7.5c-46 0 -83.167 -21.167 -111.5 -63.5s-47.833 -105.5 -58.5 -189.5l-10 -77c17.333 26.667 38.5 46.834 63.5 60.501s53.833 20.5 86.5 20.5c52.667 0 97 -19 133 -57s52.667 -85.333 50 -142zM174.998 172.996
c-2.66699 -49.333 2.49902 -86.501 15.499 -111.501s33.5 -37.5 61.5 -37.5c34.667 0 63.167 20.167 85.5 60.5s34.833 89.833 37.5 148.5c2 46.667 -3.66699 82.334 -17 107.001s-33.666 37 -60.999 37c-36 0 -64.667 -18.5 -86 -55.5s-33.333 -86.5 -36 -148.5z" />
    <glyph glyph-name="seven" unicode="7" horiz-adv-x="458" 
d="M166 171c24 31.333 42.8301 56.9971 56.4971 76.9971s26.5 40 38.5 60c7.33301 14 15.333 29 24 45s21.334 39.333 38.001 70c26.667 48.667 45.334 83.334 56.001 104.001s19 38.334 25 53.001h-188c-52.667 0 -85.334 -5 -98.001 -15s-21.334 -34 -26.001 -72l-3 -21
h-38l28 218h409v-39c-8 -15.333 -17.333 -33.166 -28 -53.499l-48 -91.5c-23.333 -43.333 -39 -72.666 -47 -87.999s-13.333 -26.333 -16 -33c-25.333 -48 -45.5 -92.5 -60.5 -133.5s-26.5 -87.5 -34.5 -139.5c-3.33301 -19.333 -6.16602 -33.5 -8.49902 -42.5
s-4.83301 -17.167 -7.5 -24.5c-7.33301 -19.333 -17.833 -34 -31.5 -44s-29.5 -15 -47.5 -15c-21.333 0 -37.166 6.16699 -47.499 18.5s-13.833 29.166 -10.5 50.499c1.33301 12.667 5.83301 26.5 13.5 41.5s24.834 39.833 51.501 74.5z" />
    <glyph glyph-name="eight" unicode="8" horiz-adv-x="572" 
d="M529 194c-7.33301 -59.333 -36.8369 -108.833 -88.5039 -148.5s-115.167 -59.5 -190.5 -59.5c-74.667 0 -133 20 -175 60s-59.333 89.333 -52 148c6 49.333 27.333 91.833 64 127.5s84.334 59.5 143.001 71.5c-50 10.667 -86.667 28.667 -110 54s-32.666 57 -27.999 95
c5.33301 46 31.333 84.5 78 115.5s102.667 46.5 168 46.5c64.667 0 116.834 -15.5 156.501 -46.5s56.834 -69.5 51.501 -115.5c-4.66699 -38 -22 -69.667 -52 -95s-71.333 -43.333 -124 -54c56 -12 98 -35.833 126 -71.5s39 -78.167 33 -127.5zM233.996 542
c-5.33301 -42 -1.83398 -74.333 10.499 -97s31.833 -34 58.5 -34c26 0 47.833 11.5 65.5 34.5s29.167 55.167 34.5 96.5c4.66699 40 1 70.667 -11 92s-31.333 32 -58 32c-27.333 0 -49.666 -10.667 -66.999 -32s-28.333 -52 -33 -92zM170.995 194
c-7.33301 -54 -3.66699 -95.833 11 -125.5s39 -44.5 73 -44.5s62 14.833 84 44.5s36 71.5 42 125.5c6.66699 58 3 102.333 -11 133s-38 46 -72 46s-61.667 -15.167 -83 -45.5s-36 -74.833 -44 -133.5z" />
    <glyph glyph-name="nine" unicode="9" horiz-adv-x="559" 
d="M203 457c-2 -46 3.66797 -81.5 17.001 -106.5s33.666 -37.5 60.999 -37.5c36 0 64.667 18.833 86 56.5s33 87.167 35 148.5c2.66699 48.667 -2.5 85.5 -15.5 110.5s-33.5 37.5 -61.5 37.5c-34 0 -62.167 -20 -84.5 -60s-34.833 -89.667 -37.5 -149zM452.001 140
c-32 -50 -68.999 -88.1631 -110.999 -114.496s-87 -39.5 -135 -39.5c-50 0 -89.333 11.5 -118 34.5s-41.667 53.5 -39 91.5c1.33301 27.333 10 49.5 26 66.5s36.667 25.5 62 25.5c23.333 0 41.333 -6.5 54 -19.5s18.334 -29.833 17.001 -50.5
c-1.33301 -23.333 -9.5 -42.333 -24.5 -57s-35.5 -23 -61.5 -25c9.33301 -10 21.5 -17.5 36.5 -22.5s32.833 -7.5 53.5 -7.5c46 0 83.167 21.333 111.5 64s47.5 105.667 57.5 189l10 77c-16.667 -26.667 -37.5 -46.834 -62.5 -60.501s-54.167 -20.5 -87.5 -20.5
c-52.667 0 -97 19.167 -133 57.5s-52.667 85.5 -50 141.5c3.33301 61.333 32 115.666 86 162.999s115.667 71 185 71s123.666 -24.667 162.999 -74s56.666 -117.333 51.999 -204c-2 -48.667 -11.167 -98.334 -27.5 -149.001s-37.833 -96.334 -64.5 -137.001z" />
    <glyph glyph-name="colon" unicode=":" horiz-adv-x="298" 
d="M257 401c-1.33301 -24.667 -11.332 -46.335 -29.999 -65.002s-42 -28 -70 -28c-26.667 0 -46.834 7.83301 -60.501 23.5s-19.5 35.834 -17.5 60.501c0.666992 24.667 10.167 46.334 28.5 65.001s41.833 28 70.5 28c26 0 46 -8 60 -24s20.333 -36 19 -60zM210.001 78.999
c-1.33301 -24.667 -11.332 -46.335 -29.999 -65.002s-42 -28 -70 -28c-26.667 0 -46.834 7.83301 -60.501 23.5s-19.5 35.834 -17.5 60.501c0.666992 24.667 10.167 46.334 28.5 65.001s41.833 28 70.5 28c26 0 46 -8 60 -24s20.333 -36 19 -60z" />
    <glyph glyph-name="semicolon" unicode=";" horiz-adv-x="294" 
d="M253 401c-1.33301 -24.667 -11.332 -46.335 -29.999 -65.002s-42 -28 -70 -28c-26.667 0 -46.834 7.83301 -60.501 23.5s-19.5 35.834 -17.5 60.501c0.666992 24.667 10.167 46.334 28.5 65.001s41.833 28 70.5 28c26 0 46 -8 60 -24s20.333 -36 19 -60zM206.001 67.999
c-3.33301 -50.667 -20.8281 -102 -52.4951 -154s-69.834 -92.667 -114.501 -122l-26 24c29.333 22.667 54.666 49.5 75.999 80.5s36 62.5 44 94.5c-2.66699 -1.33301 -6.33398 -2.5 -11.001 -3.5s-9.66699 -1.5 -15 -1.5c-26.667 0 -46.834 7.83301 -60.501 23.5
s-19.5 35.834 -17.5 60.501c1.33301 25.333 11.166 47.166 29.499 65.499s41.5 27.5 69.5 27.5c26 0 46 -8.66699 60 -26s20 -40.333 18 -69z" />
    <glyph glyph-name="less" unicode="&#x3c;" horiz-adv-x="406" 
d="M325 146l-8 -62l-280 209l4 33l331 209l-7 -61l-262 -165z" />
    <glyph glyph-name="equal" unicode="=" horiz-adv-x="418" 
d="M392 369h-346l6 47h346zM373 209h-346l7 47h346z" />
    <glyph glyph-name="greater" unicode="&#x3e;" horiz-adv-x="406" 
d="M84 476l8 59l280 -209l-4 -33l-331 -209l8 65l261 162z" />
    <glyph glyph-name="question" unicode="?" horiz-adv-x="430" 
d="M329 290c0 -28 -11.334 -51.6641 -34.001 -70.9971s-52.334 -29 -89.001 -29c-35.333 0 -63.166 9.83301 -83.499 29.5s-29.5 45.834 -27.5 78.501c0.666992 25.333 8.16699 48.833 22.5 70.5s43.166 48.167 86.499 79.5c40.667 30 67.334 54.167 80.001 72.5
s19.334 38.166 20.001 59.499c0.666992 28.667 -6 50.167 -20 64.5s-35.333 21.5 -64 21.5c-14.667 0 -28.5 -2.33301 -41.5 -7s-23.833 -11.334 -32.5 -20.001c18.667 -5.33301 32.334 -13.833 41.001 -25.5s12.667 -26.167 12 -43.5
c-1.33301 -24 -9.83301 -43.167 -25.5 -57.5s-36.5 -21.5 -62.5 -21.5c-21.333 0 -37.5 6.66699 -48.5 20s-15.833 31.666 -14.5 54.999c2 37.333 22 69.666 60 96.999s84.667 41 140 41s98.833 -12.5 130.5 -37.5s46.5 -59.5 44.5 -103.5
c-1.33301 -30.667 -10.5 -58.667 -27.5 -84s-50.833 -55.666 -101.5 -90.999c-39.333 -26.667 -65 -48 -77 -64s-18.333 -33 -19 -51c-0.666992 -12 2.33301 -21.667 9 -29s16 -11 28 -11c14 0 26.167 5.33301 36.5 16s15.166 23.667 14.499 39
c0 6.66699 -1.16699 13.5 -3.5 20.5s-5.83301 13.833 -10.5 20.5l29 18c9.33301 -6.66699 16.333 -14.834 21 -24.501s7 -20.5 7 -32.5zM264.999 72.0029c-1.33301 -23.333 -10.8301 -43.5 -28.4971 -60.5s-39.834 -25.5 -66.501 -25.5c-24.667 0 -43.334 7 -56.001 21
s-18.667 32.667 -18 56c1.33301 24 10.666 44.333 27.999 61s39.333 25 66 25c24.667 0 43.5 -7.16699 56.5 -21.5s19.167 -32.833 18.5 -55.5z" />
    <glyph glyph-name="at" unicode="@" horiz-adv-x="941" 
d="M446 -196c-140.667 0 -247.333 33.4961 -320 100.496s-106 164.167 -100 291.5c4.66699 120 52.5 219.333 143.5 298s202.167 118 333.5 118c130 0 229.333 -32.833 298 -98.5s100.667 -156.5 96 -272.5c-4 -73.333 -25.833 -134.166 -65.5 -182.499
s-91.167 -72.5 -154.5 -72.5c-49.333 0 -85.833 11.333 -109.5 34s-32.5 54.667 -26.5 96c-16 -44 -37 -76.667 -63 -98s-57.333 -32 -94 -32c-56.667 0 -100.834 22.167 -132.501 66.5s-42.167 100.833 -31.5 169.5c10 62 37.333 113.167 82 153.5s96.667 60.5 156 60.5
c30.667 0 56.5 -7.83301 77.5 -23.5s34.833 -37.167 41.5 -64.5l94 88h15l-50 -300c-7.33301 -46 -6 -76.333 4 -91s29.333 -22 58 -22c38.667 0 71.5 21 98.5 63s41.833 93 44.5 153c4.66699 108.667 -21.833 191.834 -79.5 249.501s-144.5 86.5 -260.5 86.5
c-116.667 0 -214.667 -35.333 -294 -106s-121.333 -161.667 -126 -273c-5.33301 -113.333 24.5 -200.666 89.5 -261.999s157.5 -92 277.5 -92c57.333 0 107 5 149 15s77 25.333 105 46l12 -24c-26.667 -23.333 -64.167 -41.666 -112.5 -54.999s-100.166 -20 -155.499 -20z
M345.001 215.996c-9.33301 -59.333 -8.66602 -105.166 2.00098 -137.499s30.667 -48.5 60 -48.5c30.667 0 56.5 15.667 77.5 47s36.833 77.333 47.5 138c10.667 57.333 9.83398 102.666 -2.49902 135.999s-34.5 50 -66.5 50c-28.667 0 -53.334 -16.5 -74.001 -49.5
s-35.334 -78.167 -44.001 -135.5z" />
    <glyph glyph-name="A" unicode="A" 
d="M283 521l-113 -248h166zM160 0h-208l5 37h62l305 663h66l144 -663h64l-5 -37h-319l5 37h107l-42 199h-190l-91 -199h101z" />
    <glyph glyph-name="B" unicode="B" horiz-adv-x="637" 
d="M288 0h-286.003l5 37h76l75 616h-76l5 37h238c96 0 166.833 -13.833 212.5 -41.5s66.167 -69.167 61.5 -124.5c-3.33301 -44 -21.833 -81.167 -55.5 -111.5s-77.167 -48.833 -130.5 -55.5c60.667 -9.33301 106.334 -27.833 137.001 -55.5s44.334 -63.167 41.001 -106.5
c-5.33301 -62 -34.166 -110 -86.499 -144s-124.5 -51 -216.5 -51zM299.997 653l-34.998 -282h49c40.667 0 73.5 13.833 98.5 41.5s39.5 65.5 43.5 113.5c3.33301 44 -5.33398 76.167 -26.001 96.5s-55.334 30.5 -104.001 30.5h-26zM260.999 336l-37.002 -299h55
c50.667 0 89.334 13.667 116.001 41s42.334 69.333 47.001 126c4 44 -4.5 77 -25.5 99s-54.833 33 -101.5 33h-54z" />
    <glyph glyph-name="C" unicode="C" horiz-adv-x="588" 
d="M297 -14c-45.333 0 -85.834 10 -121.501 30s-65.167 49 -88.5 87c-20 32.667 -33.833 70.167 -41.5 112.5s-8.83398 85.833 -3.50098 130.5c5.33301 44 17.5 87.333 36.5 130s42.833 80.667 71.5 114c32 36.667 68 64.834 108 84.501s82 29.5 126 29.5
c27.333 0 52 -3.33301 74 -10s40.333 -16.334 55 -29.001l44 35h23l-29 -230h-37c7.33301 60.667 0.666016 108 -20.001 142s-53.667 51 -99 51c-56.667 0 -101.167 -25.5 -133.5 -76.5s-55.166 -131.167 -68.499 -240.5c-12.667 -108.667 -9 -189 11 -241
s57.667 -78 113 -78c47.333 0 85.833 17.333 115.5 52s48.5 83 56.5 145h37l-29 -234h-22l-35 39c-23.333 -14.667 -46.666 -25.5 -69.999 -32.5s-47.666 -10.5 -72.999 -10.5z" />
    <glyph glyph-name="D" unicode="D" horiz-adv-x="696" 
d="M282 0l-280 0.00195312l5 37h76l75 616h-76l5 37h279c48 0 92 -8.5 132 -25.5s74 -41.5 102 -73.5c28.667 -32.667 49.167 -70.334 61.5 -113.001s15.5 -86.667 9.5 -132c-5.33301 -45.333 -19.5 -89.333 -42.5 -132s-52.167 -80.334 -87.5 -113.001
c-36 -32.667 -76.167 -57.667 -120.5 -75s-90.5 -26 -138.5 -26zM300 653.002l-75.999 -616.001h39c71.333 0 128.166 25.833 170.499 77.5s69.833 128.834 82.5 231.501c12.667 102 4 178.667 -26 230s-80.667 77 -152 77h-38z" />
    <glyph glyph-name="E" unicode="E" horiz-adv-x="588" 
d="M504 0h-502l5 37h76l75 616h-76l5 37h484l-27 -220h-38l4 35c7.33301 52 0 89.667 -22 113s-62 35 -120 35h-68l-35 -283h124l9 74h42l-24 -195h-42l10 84h-124l-36 -296h107c49.333 0 86.5 11.833 111.5 35.5s41.167 64.5 48.5 122.5l3 29h38z" />
    <glyph glyph-name="F" unicode="F" horiz-adv-x="537" 
d="M332 0h-330l5 37h76l75 616h-76l5 37h474l-27 -220h-37l4 35c6.66699 52 -1.5 89.667 -24.5 113s-63.5 35 -121.5 35h-55l-35 -283h111l9 74h43l-25 -198h-42l10 87h-111l-36 -296h113z" />
    <glyph glyph-name="G" unicode="G" horiz-adv-x="654" 
d="M297 -14c-45.333 0 -85.8281 10.001 -121.495 30.001s-65.167 49 -88.5 87c-20 32.667 -33.833 70.167 -41.5 112.5s-8.83398 85.833 -3.50098 130.5s18.166 88.667 38.499 132s46.166 81.666 77.499 114.999c34 36 71.833 63.5 113.5 82.5s85.5 28.5 131.5 28.5
c29.333 0 56.166 -3.5 80.499 -10.5s43.833 -17.167 58.5 -30.5l45 37h22l-28 -230h-37c7.33301 60.667 -0.5 108 -23.5 142s-58.833 51 -107.5 51c-62 0 -110.833 -26 -146.5 -78s-60.167 -131.667 -73.5 -239c-12.667 -108.667 -9 -189 11 -241s57.667 -78 113 -78
c17.333 0 33.666 2.5 48.999 7.5s29.333 12.167 42 21.5l30 242h-86l5 37h285l-5 -37h-65l-38 -308h-28l-58 36c-24 -14 -48.167 -24.167 -72.5 -30.5s-50.5 -9.5 -78.5 -9.5z" />
    <glyph glyph-name="H" unicode="H" horiz-adv-x="735" 
d="M288 0h-286l5 37h76l75 616h-76l5 37h286l-5 -37h-68l-35 -282h228l35 282h-69l5 37h286l-5 -37h-75l-76 -616h76l-5 -37h-285l4 37h69l36 296h-229l-36 -296h69z" />
    <glyph glyph-name="I" unicode="I" horiz-adv-x="371" 
d="M302 0h-300l5 37h79l75 616h-79l5 37h299l-4 -37h-79l-75 -616h78z" />
    <glyph glyph-name="J" unicode="J" horiz-adv-x="478" 
d="M141 -14c-53.333 0 -93.3311 12.998 -119.998 38.998s-37.334 62 -32.001 108c3.33301 26.667 13.333 48.334 30 65.001s37.334 25 62.001 25c23.333 0 40.833 -7.16699 52.5 -21.5s16.167 -32.833 13.5 -55.5s-11.5 -40.667 -26.5 -54s-35.5 -21.333 -61.5 -24
c3.33301 -12 11 -21.667 23 -29s26.667 -11 44 -11c35.333 0 61.333 12 78 36s29 68.667 37 134l55 455h-106l5 37h324l-5 -37h-76l-50 -409c-10.667 -89.333 -35.334 -154.666 -74.001 -195.999s-96.334 -62 -173.001 -62z" />
    <glyph glyph-name="K" unicode="K" horiz-adv-x="686" 
d="M285 0h-283l5 37h76l75 616h-76l5 37h300l-5 -37h-82l-40 -320l286 320h-94l5 37h242l-5 -37h-93l-192 -217l198 -399h46l-5 -37h-272l5 37h59l-142 292l-44 -53l-30 -239h66z" />
    <glyph glyph-name="L" unicode="L" horiz-adv-x="548" 
d="M494 0h-492l5 37h76l75 616h-76l5 37h324l-5 -37h-106l-76 -616h97c49.333 0 86.5 11.833 111.5 35.5s41.167 64.5 48.5 122.5l3 29h38z" />
    <glyph glyph-name="M" unicode="M" horiz-adv-x="840" 
d="M230 0h-228l5 37h76l75 616h-76l5 37h242l90 -396l195 396h240l-4 -37h-76l-75 -616h76l-5 -37h-306l5 37h88l73 593l-266 -538h-37l-124 539l-73 -594h105z" />
    <glyph glyph-name="N" unicode="N" horiz-adv-x="697" 
d="M218 0h-216l5 37h76l75 616h-76l5 37h196l253 -482l55 445h-93l5 37h216l-5 -37h-76l-80 -659h-70l-295 558l-63 -515h92z" />
    <glyph glyph-name="O" unicode="O" horiz-adv-x="662" 
d="M639 346c-13.333 -102 -51.498 -187.5 -114.498 -256.5s-138.833 -103.5 -227.5 -103.5c-90 0 -158.167 34.5 -204.5 103.5s-63.166 154.5 -50.499 256.5c12.667 101.333 50.667 186.333 114 255s139.666 103 228.999 103s157.166 -34.333 203.499 -103
s63.166 -153.667 50.499 -255zM193.002 346c-13.333 -111.333 -11.498 -192.833 5.50195 -244.5s51.167 -77.5 102.5 -77.5c52 0 92.667 25.667 122 77s50.666 133 63.999 245c13.333 111.333 11.666 192.5 -5.00098 243.5s-50.667 76.5 -102 76.5
c-52 0 -92.667 -25.5 -122 -76.5s-51 -132.167 -65 -243.5z" />
    <glyph glyph-name="P" unicode="P" horiz-adv-x="595" 
d="M332 0h-330l5 37h76l75 616h-76l5 37h244c96 0 167.167 -16.833 213.5 -50.5s65.5 -82.5 57.5 -146.5c-8 -65.333 -39.333 -116.333 -94 -153s-128 -55 -220 -55h-34l-30 -248h113zM300 653l-40.999 -331h30c50.667 0 89.334 13.5 116.001 40.5s43.667 70.167 51 129.5
c7.33301 56.667 0.666016 97.667 -20.001 123s-56.334 38 -107.001 38h-29z" />
    <glyph glyph-name="Q" unicode="Q" horiz-adv-x="662" 
d="M463 -144c-32.667 0 -58.498 9.33301 -77.498 28s-30.167 45.334 -33.5 80.001c-0.666992 2.66699 -1.16699 7 -1.5 13s-0.5 10.667 -0.5 14c-9.33301 -2 -18.5 -3.33301 -27.5 -4s-17.5 -1 -25.5 -1c-90 0 -158.167 34.5 -204.5 103.5s-63.166 154.5 -50.499 256.5
c12.667 101.333 50.667 186.333 114 255s139.666 103 228.999 103s157.166 -34.333 203.499 -103s63.166 -153.667 50.499 -255c-8 -65.333 -28.167 -126.166 -60.5 -182.499s-72.166 -99.833 -119.499 -130.5c0.666992 -2.66699 1.16699 -5.83398 1.5 -9.50098l1.5 -16.5
c0 -6.66699 0.166992 -11.834 0.5 -15.501s0.833008 -6.83398 1.5 -9.50098c1.33301 -26.667 5 -45.667 11 -57s15 -17 27 -17c11.333 0 20.833 6.33301 28.5 19s14.167 32.334 19.5 59.001h36c-8.66699 -46 -22.834 -79.167 -42.501 -99.5s-46.5 -30.5 -80.5 -30.5z
M380.002 666c-52 0 -92.6641 -25.501 -121.997 -76.501s-51 -132.167 -65 -243.5c-6.66699 -56.667 -9.5 -105.167 -8.5 -145.5s5.83301 -73.833 14.5 -100.5c13.333 28.667 30.166 50.167 50.499 64.5s44.166 21.5 71.499 21.5c28.667 0 52.667 -4.66699 72 -14
s34 -23.666 44 -42.999c10.667 26 20.167 57 28.5 93s15.5 77.333 21.5 124c13.333 111.333 11.666 192.5 -5.00098 243.5s-50.667 76.5 -102 76.5zM221.005 58.999c8.66699 -12 19.668 -20.833 33.001 -26.5s29 -8.5 47 -8.5c9.33301 0 18 0.666992 26 2s15 3.33301 21 6
v11c0 4 -0.333008 9.66699 -1 17v8.5v4.5c-2.66699 26 -8.33398 44.333 -17.001 55s-22 16 -40 16c-16 0 -30 -7.5 -42 -22.5s-21 -35.833 -27 -62.5z" />
    <glyph glyph-name="R" unicode="R" horiz-adv-x="681" 
d="M519 -14c-36 0 -63.1709 10.6709 -81.5039 32.0039s-32.166 65 -41.499 131c-5.33301 32.667 -9.66602 56.5 -12.999 71.5s-7 27.5 -11 37.5c-8 20 -18.667 34.667 -32 44s-30.666 14.666 -51.999 15.999h-29l-35 -281h95l-5 -37h-312l5 37h76l75 616h-76l5 37h238
c97.333 0 169.833 -15.5 217.5 -46.5s68.167 -75.833 61.5 -134.5c-5.33301 -45.333 -29.166 -84 -71.499 -116s-94.833 -51.333 -157.5 -58c28.667 -8.66699 52.834 -17.334 72.501 -26.001s35.5 -18.334 47.5 -29.001c13.333 -11.333 23.5 -24.5 30.5 -39.5
s12.833 -41.167 17.5 -78.5c7.33301 -61.333 12.833 -96.333 16.5 -105s9.5 -13 17.5 -13c11.333 0 20.666 8.66699 27.999 26s13.333 44.666 18 81.999h36c-8 -61.333 -22.833 -104.333 -44.5 -129s-53.5 -37 -95.5 -37zM299.996 653.004l-36.999 -297h24
c51.333 0 91.166 12.667 119.499 38s45.833 63.333 52.5 114c6 49.333 -2.33301 85.833 -25 109.5s-60 35.5 -112 35.5h-22z" />
    <glyph glyph-name="S" unicode="S" horiz-adv-x="533" 
d="M491 200c-8 -67.333 -32.8281 -119.83 -74.4951 -157.497s-96.5 -56.5 -164.5 -56.5c-33.333 0 -63 4 -89 12s-50.667 21 -74 39l-45 -47h-23l29 233h38c-7.33301 -56 4.66699 -102.667 36 -140s75.333 -56 132 -56c42.667 0 76 9.5 100 28.5s38.333 46.833 43 83.5
c2.66699 22.667 0.166992 41.667 -7.5 57s-21.5 28.333 -41.5 39c-14 7.33301 -35.667 15.666 -65 24.999s-44.333 14 -45 14c-64 19.333 -108.333 47.5 -133 84.5s-33.334 84.833 -26.001 143.5c8.66699 63.333 33 112.833 73 148.5s93 53.5 159 53.5
c30.667 0 58.667 -4.33301 84 -13s44.666 -20.667 57.999 -36l42 45h22l-28 -230h-38c6.66699 53.333 -3.83301 98.5 -31.5 135.5s-65.167 55.5 -112.5 55.5c-39.333 0 -71 -9.33301 -95 -28s-38 -45 -42 -79c-2.66699 -22 -0.333984 -40.5 6.99902 -55.5
s20.333 -27.833 39 -38.5c8 -4.66699 17.5 -9.33398 28.5 -14.001s36.833 -13.667 77.5 -27c71.333 -24 118.666 -52.833 141.999 -86.5s31.666 -77.834 24.999 -132.501z" />
    <glyph glyph-name="T" unicode="T" horiz-adv-x="579" 
d="M424 0h-337l5 37h97l76 616h-29c-50.667 -1.33301 -87.167 -13 -109.5 -35s-36.833 -59.667 -43.5 -113l-3 -35h-38l27 220h542l-27 -220h-37l4 35c6.66699 54 1.5 91.833 -15.5 113.5s-50.5 33.167 -100.5 34.5h-29l-75 -616h98z" />
    <glyph glyph-name="U" unicode="U" horiz-adv-x="650" 
d="M305 -14c-84 0 -143.335 20.5 -178.002 61.5s-46.667 105.167 -36 192.5l50 413h-75l5 37h307l-5 -37h-90l-53 -435c-8.66699 -66.667 -4 -115.167 14 -145.5s49.667 -45.5 95 -45.5c47.333 0 84 15.667 110 47s43.333 82 52 152l53 427h-90l5 37h213l-5 -37h-76
l-51 -417c-11.333 -89.333 -36.166 -153.333 -74.499 -192s-95.166 -58 -170.499 -58z" />
    <glyph glyph-name="V" unicode="V" horiz-adv-x="626" 
d="M317 -10h-66l-142 663h-70l4 37h333l-4 -37h-114l99 -477l218 477h-103l4 37h221l-5 -37h-71z" />
    <glyph glyph-name="W" unicode="W" horiz-adv-x="863" 
d="M530 653l18 -102l49 102h-67zM280 -10h-67l-110 663h-64l4 37h247l-5 -37h-45l81 -483l122 246l-42 237h-60l5 37h360l-5 -37h-65l-75 -151l60 -328l200 479h-64l4 37h173l-4 -37h-65l-277 -663h-66l-66 358z" />
    <glyph glyph-name="X" unicode="X" horiz-adv-x="627" 
d="M178 0h-203l4 37h66l208 295l-136 321h-64l5 37h303l-5 -37h-84l91 -217l151 217h-66l4 37h189l-5 -37h-73l-181 -259l152 -357h61l-5 -37h-312l4 37h96l-106 251l-176 -251h86z" />
    <glyph glyph-name="Y" unicode="Y" horiz-adv-x="595" 
d="M432 0h-307l5 37h82l33 272l-137 344h-67l5 37h319l-5 -37h-97l109 -275l171 275h-85l5 37h202l-5 -37h-68l-202 -323l-36 -293h83z" />
    <glyph glyph-name="Z" unicode="Z" horiz-adv-x="540" 
d="M481 0h-480.998l3 27l403 626h-132c-54 0 -93.333 -11 -118 -33s-40.334 -60.333 -47.001 -115l-4 -35h-38l27 220h463l-4 -27l-404 -626h163c48 0 84.167 11.833 108.5 35.5s40.166 64.5 47.499 122.5l3 29h38z" />
    <glyph glyph-name="bracketleft" unicode="[" horiz-adv-x="353" 
d="M258 -250h-250l123 1000h249l-4 -37h-114l-114 -926h115z" />
    <glyph glyph-name="backslash" unicode="\" horiz-adv-x="454" 
d="M415 -83l-46 -19l-323 852l46 19z" />
    <glyph glyph-name="bracketright" unicode="]" horiz-adv-x="353" 
d="M216 -250h-250l5 37h114l113 926h-114l5 37h249z" />
    <glyph glyph-name="asciicircum" unicode="^" horiz-adv-x="396" 
d="M109 384h-52l175 303h35l98 -303h-54l-73 232z" />
    <glyph glyph-name="underscore" unicode="_" horiz-adv-x="456" 
d="M407 -100h-456l4 40h456z" />
    <glyph glyph-name="grave" unicode="`" horiz-adv-x="412" 
d="M351 589h-38l-200 123c-12.667 7.33301 -17.5 15.333 -14.5 24s12.167 13 27.5 13h120c13.333 0 23.833 -2.5 31.5 -7.5s13.5 -13.167 17.5 -24.5z" />
    <glyph glyph-name="a" unicode="a" horiz-adv-x="628" 
d="M177 263c-7.33301 -69.333 -5.5 -121.332 5.5 -155.999s31.5 -52 61.5 -52c33.333 0 61 16.833 83 50.5s37 81.5 45 143.5c2 13.333 3.5 24.166 4.5 32.499s1.5 13.5 1.5 15.5c6 60 2.66699 105 -10 135s-35 45.333 -67 46c-33.333 0.666992 -60.333 -17 -81 -53
s-35 -90 -43 -162zM196 -13.999c-58 0 -101.832 24.501 -131.499 73.501s-40.167 114.167 -31.5 195.5c9.33301 76.667 37.833 139.5 85.5 188.5s106.5 73.5 176.5 73.5c32 0 60 -7.66699 84 -23s43 -37.333 57 -66l66 89h39l-51 -417c-2.66699 -20.667 -2 -36.167 2 -46.5
s11.333 -15.5 22 -15.5c14 0 25.167 9.16699 33.5 27.5s14.833 47.166 19.5 86.499h39c-9.33301 -64.667 -23.833 -108.334 -43.5 -131.001s-49.5 -34 -89.5 -34c-35.333 0 -61 10.333 -77 31s-22.667 52.334 -20 95.001l5 42c-16.667 -54.667 -40.834 -96.5 -72.501 -125.5
s-69.167 -43.5 -112.5 -43.5z" />
    <glyph glyph-name="b" unicode="b" horiz-adv-x="597" 
d="M210 213c-5.33301 -60.667 -0.168945 -107.334 15.498 -140.001s40.5 -49 74.5 -49c32.667 0 59.334 19.833 80.001 59.5s33.667 96.5 39 170.5c4.66699 67.333 0 117.5 -14 150.5s-37.333 49.5 -70 49.5c-30 0 -55.667 -17.5 -77 -52.5s-35.666 -81.5 -42.999 -139.5
c-0.666992 -5.33301 -1.66699 -14.166 -3 -26.499s-2 -19.833 -2 -22.5zM308.997 -14c-36 0 -67.333 7.83203 -94 23.499s-46.667 37.834 -60 66.501l-70 -96h-39l81 731h-77l5 37c54 0 96.833 1 128.5 3s52.834 5 63.501 9l20 -10l-58 -385c14 49.333 36 87 66 113
s67 39 111 39c61.333 0 107.833 -23.333 139.5 -70s44.167 -110 37.5 -190c-6.66699 -78.667 -33.334 -143.5 -80.001 -194.5s-104.667 -76.5 -174 -76.5z" />
    <glyph glyph-name="c" unicode="c" horiz-adv-x="493" 
d="M248 -14c-72.667 0 -128.665 24.666 -167.998 73.999s-54.666 113 -45.999 191c9.33301 80 39.333 144.333 90 193s112 73 184 73c50 0 89.5 -11.5 118.5 -34.5s42.5 -54.5 40.5 -94.5c-2 -23.333 -10.167 -42 -24.5 -56s-33.5 -21 -57.5 -21c-22.667 0 -40 6 -52 18
s-17.333 28.333 -16 49c0.666992 20.667 7 38 19 52s27.667 23 47 27c-8.66699 8 -18.5 14 -29.5 18s-23.167 6 -36.5 6c-38.667 0 -69.834 -19 -93.501 -57s-39.834 -94.333 -48.501 -169c-8 -71.333 -3.33301 -126.333 14 -165s46.666 -58 87.999 -58
c31.333 0 58.833 11.333 82.5 34s40.167 53.334 49.5 92.001l39 -6c-14.667 -54 -39 -95.167 -73 -123.5s-76.333 -42.5 -127 -42.5z" />
    <glyph glyph-name="d" unicode="d" horiz-adv-x="637" 
d="M185 259c-6.66699 -68 -3.66699 -119.002 9 -153.002s35 -51 67 -51c29.333 0 54.5 17.5 75.5 52.5s35.833 82.167 44.5 141.5c1.33301 14.667 2.66602 26.5 3.99902 35.5s2 14.5 2 16.5c4.66699 56.667 -0.5 100.334 -15.5 131.001s-38.167 46 -69.5 46
c-30 0 -55.167 -19.167 -75.5 -57.5s-34.166 -92.166 -41.499 -161.499zM481 -13.002c-34 0 -58.8291 9.83105 -74.4961 29.498s-22.834 49.5 -21.501 89.5c0 0.666992 0.166992 2.5 0.5 5.5s0.833008 9.16699 1.5 18.5c0.666992 8.66699 1.16699 14.5 1.5 17.5
s0.5 4.83301 0.5 5.5c-16 -54.667 -39.667 -96.167 -71 -124.5s-69.333 -42.5 -114 -42.5c-57.333 0 -100.833 24.333 -130.5 73s-40.5 114 -32.5 196c7.33301 76.667 34.666 139.5 81.999 188.5s105.666 73.5 174.999 73.5c23.333 0 44.5 -5.16699 63.5 -15.5
s34.5 -25.166 46.5 -44.499c0 4 2 27.167 6 69.5s10 103.833 18 184.5h-76l4 37c52.667 0 95.5 1 128.5 3s54.5 5 64.5 9l21 -10l-76 -650c-2 -21.333 -1 -37 3 -47s11 -15 21 -15c14 0 25.167 9 33.5 27s15.166 47 20.499 87h38
c-9.33301 -65.333 -23.833 -109.166 -43.5 -131.499s-49.5 -33.5 -89.5 -33.5z" />
    <glyph glyph-name="e" unicode="e" horiz-adv-x="506" 
d="M241 -14c-70 0 -124.17 24.667 -162.503 74s-53.166 113 -44.499 191c9.33301 80 39 144.333 89 193s110.333 73 181 73c52 0 93.833 -12.333 125.5 -37s46.834 -56.667 45.501 -96c-1.33301 -52 -28.333 -92.167 -81 -120.5s-126.667 -43.166 -222 -44.499
c-4 -63.333 2.33301 -110.333 19 -141s44.334 -46 83.001 -46c34.667 0 63.167 10.167 85.5 30.5s39.833 52.166 52.5 95.499l39 -6c-14.667 -55.333 -39.5 -96.833 -74.5 -124.5s-80.167 -41.5 -135.5 -41.5zM289.997 479c-29.333 0 -54.001 -19 -74.001 -57
s-33.667 -92.667 -41 -164c54.667 2.66699 96 16.167 124 40.5s43 59.833 45 106.5c0.666992 23.333 -3.66602 41.5 -12.999 54.5s-23 19.5 -41 19.5z" />
    <glyph glyph-name="f" unicode="f" horiz-adv-x="373" 
d="M-37 -259c-40 0 -72.001 9 -96.001 27s-36 43 -36 75c0 26 7.33301 47.167 22 63.5s34.334 24.5 59.001 24.5c20 0 35.833 -5.66699 47.5 -17s17.5 -26.666 17.5 -45.999c0 -21.333 -6.5 -38.833 -19.5 -52.5s-30.833 -21.834 -53.5 -24.501
c4.66699 -4 11.334 -7.33301 20.001 -10s17.667 -4 27 -4c28.667 0 52 12.667 70 38s30.333 63.333 37 114l66 537h-79l4 38h80c10 82.667 37.333 146.667 82 192s101.334 68 170.001 68c40 0 72 -9.16699 96 -27.5s36 -43.5 36 -75.5c0 -26 -7.16699 -47 -21.5 -63
s-33.833 -24 -58.5 -24c-20 0 -36 5.66699 -48 17s-18 26.333 -18 45c0 22 6.5 39.833 19.5 53.5s30.833 21.834 53.5 24.501c-4.66699 4 -11.167 7.16699 -19.5 9.5s-17.5 3.5 -27.5 3.5c-33.333 0 -59.833 -12.333 -79.5 -37s-32.834 -62.667 -39.501 -114l-10 -72h117
l-4 -38h-117l-54 -440c-12 -92.667 -38.833 -163.334 -80.5 -212.001s-95.834 -73 -162.501 -73z" />
    <glyph glyph-name="g" unicode="g" horiz-adv-x="523" 
d="M190 354c-6 -40 -2.99805 -71.667 9.00195 -95s30.333 -35 55 -35s44.667 10.833 60 32.5s26 54.167 32 97.5c5.33301 40.667 2.16602 72.5 -9.50098 95.5s-29.834 34.5 -54.501 34.5s-44.667 -10.833 -60 -32.5s-26 -54.167 -32 -97.5zM473.002 -45
c0 -61.333 -24.999 -112.334 -74.999 -153.001s-113.667 -61 -191 -61c-72.667 0 -130.834 12.5 -174.501 37.5s-65.5 58.833 -65.5 101.5c0 34.667 14.5 64 43.5 88s67.5 38 115.5 42c-30 5.33301 -52.5 15.5 -67.5 30.5s-22.5 34.5 -22.5 58.5c0 26 10.5 48.667 31.5 68
s49.833 32.666 86.5 39.999c-35.333 14 -62 34.333 -80 61s-25 56.667 -21 90c6 48.667 30.167 87.334 72.5 116.001s95.833 43 160.5 43c16.667 0 32.667 -1.33301 48 -4s29.666 -6.33398 42.999 -11.001l149 2l-2 -38l-89 3c18 -15.333 31.167 -33.333 39.5 -54
s11.166 -42.667 8.49902 -66c-6 -47.333 -30.5 -85.666 -73.5 -114.999s-96.167 -44 -159.5 -44c-36 0 -65 -4.16699 -87 -12.5s-33.333 -19.833 -34 -34.5c-0.666992 -13.333 5.83301 -23 19.5 -29s42.834 -9.66699 87.501 -11
c80.667 -2.66699 140.334 -16.167 179.001 -40.5s58 -60.166 58 -107.499zM76.0029 -115.001c0 -34 12.166 -60.001 36.499 -78.001s59.833 -27 106.5 -27c48.667 0 88 11.833 118 35.5s45 53.5 45 89.5c0 28.667 -10.167 49.334 -30.5 62.001s-63.166 21 -128.499 25
c-1.33301 0 -3.5 0.166992 -6.5 0.5s-8.83301 0.5 -17.5 0.5c-9.33301 0.666992 -15.5 1.16699 -18.5 1.5s-5.16699 0.5 -6.5 0.5c-31.333 -8 -55.5 -21.5 -72.5 -40.5s-25.5 -42.167 -25.5 -69.5z" />
    <glyph glyph-name="h" unicode="h" horiz-adv-x="611" 
d="M456 -13c-42 0 -72.167 12.3311 -90.5 36.998s-24.5 61.667 -18.5 111l28 222c4 32.667 2.16699 56.834 -5.5 72.501s-21.5 23.5 -41.5 23.5c-28.667 0 -53.167 -16.667 -73.5 -50s-34.166 -81.333 -41.499 -144l-31 -259h-137l88 711h-76l4 37c54 0 97.333 1 130 3
s54 5 64 9l21 -10c-17.333 -108.667 -31 -192.167 -41 -250.5s-16 -91.5 -18 -99.5c16 38 38.333 67 67 87s62 30 100 30c48 0 82.667 -14.5 104 -43.5s28.666 -71.167 21.999 -126.5l-30 -247c-2.66699 -22 -2.16699 -37.833 1.5 -47.5s10.834 -14.5 21.501 -14.5
c13.333 0 24.666 9.33301 33.999 28s16.333 47.334 21 86.001h38c-9.33301 -64 -24.5 -107.5 -45.5 -130.5s-52.5 -34.5 -94.5 -34.5z" />
    <glyph glyph-name="i" unicode="i" horiz-adv-x="348" 
d="M285 673c0 -22.667 -8.33301 -42 -25 -58s-38.667 -24 -66 -24c-25.333 0 -45.166 7.16699 -59.499 21.5s-21.5 32.5 -21.5 54.5c0 22.667 8.33301 42.167 25 58.5s38.667 24.5 66 24.5c25.333 0 45.166 -7.33301 59.499 -22s21.5 -33 21.5 -55zM189 -13
c-43.333 0 -74.332 12.333 -92.999 37s-25 61.667 -19 111l40 331h-76l4 38c55.333 0 99.166 1 131.499 3s53.166 4.66699 62.499 8l20 -9l-49 -409c-2.66699 -20.667 -2.16699 -35.667 1.5 -45s10.834 -14 21.501 -14c14 0 25.5 9.33301 34.5 28s15.833 47 20.5 85h38
c-8.66699 -63.333 -23.5 -106.5 -44.5 -129.5s-51.833 -34.5 -92.5 -34.5z" />
    <glyph glyph-name="j" unicode="j" horiz-adv-x="341" 
d="M297 673c0 -22.667 -8.33301 -42 -25 -58s-38.667 -24 -66 -24c-25.333 0 -45.166 7.16699 -59.499 21.5s-21.5 32.5 -21.5 54.5c0 22.667 8.33301 42.167 25 58.5s38.667 24.5 66 24.5c25.333 0 45.166 -7.33301 59.499 -22s21.5 -33 21.5 -55zM-24 -260
c-42 0 -74.6729 9.99902 -98.0059 29.999s-33.666 47.667 -30.999 83c1.33301 23.333 9 42.333 23 57s32.667 22 56 22c22.667 0 39.834 -5.66699 51.501 -17s16.834 -27.666 15.501 -48.999c-1.33301 -22 -8.16602 -39.333 -20.499 -52s-29.5 -20 -51.5 -22
c6.66699 -5.33301 14 -9.33301 22 -12s16.333 -4 25 -4c28.667 0 50.834 13.667 66.501 41s28.167 77.333 37.5 150l60 499h-87l5 38c57.333 0 103 1 137 3s56.333 4.66699 67 8l21 -9l-59 -485c-12 -92.667 -38.167 -162.667 -78.5 -210s-94.166 -71 -161.499 -71z" />
    <glyph glyph-name="k" unicode="k" horiz-adv-x="572" 
d="M334 458c-27.333 0 -52.332 -20.332 -74.999 -60.999s-38.667 -97.334 -48 -170.001l-29 -227h-137l88 711h-76l4 37c52.667 0 95.5 1 128.5 3s54.833 5 65.5 9l21 -10c-16 -110.667 -28.333 -195.834 -37 -255.501s-14 -93.834 -16 -102.501
c18 41.333 41.167 72.5 69.5 93.5s61.5 31.5 99.5 31.5s68.167 -10.167 90.5 -30.5s33.5 -47.833 33.5 -82.5c0 -36 -12 -67.167 -36 -93.5s-59.667 -47.166 -107 -62.499l103 -211h55l-3 -37h-184l-104 217l4 33c43.333 4 77.166 19.333 101.499 46
s36.5 60.334 36.5 101.001c0 20 -4 35.167 -12 45.5s-20 15.5 -36 15.5z" />
    <glyph glyph-name="l" unicode="l" horiz-adv-x="336" 
d="M177 -13c-44 0 -75.167 12.166 -93.5 36.499s-24.5 61.5 -18.5 111.5l71 576h-77l5 37c52.667 0 95.5 1 128.5 3s54.5 5 64.5 9l21 -10l-80 -653c-2.66699 -20.667 -2.16699 -35.667 1.5 -45s10.834 -14 21.501 -14c13.333 0 24.666 9.33301 33.999 28
s16.333 47.334 21 86.001h38c-10 -64 -25.333 -107.5 -46 -130.5s-51 -34.5 -91 -34.5z" />
    <glyph glyph-name="m" unicode="m" horiz-adv-x="873" 
d="M718 -13c-42 0 -72.165 12.333 -90.498 37s-24.5 61.667 -18.5 111l28 219c4 33.333 2.5 58.166 -4.5 74.499s-19.5 24.5 -37.5 24.5c-22.667 0 -41.5 -12.167 -56.5 -36.5s-26.833 -61.833 -35.5 -112.5l-38 -304h-138l46 354c4.66699 34.667 3.66699 59.834 -3 75.501
s-19.334 23.5 -38.001 23.5c-26.667 0 -47.834 -15.167 -63.501 -45.5s-27.5 -77.5 -35.5 -141.5l-33 -266h-136l57 466h-77l5 38c46 0 83.5 1 112.5 3s48.167 4.66699 57.5 8l21 -9l-15 -119c14.667 43.333 35.667 75.833 63 97.5s60.666 32.5 99.999 32.5
c31.333 0 57 -7.83301 77 -23.5s33 -38.5 39 -68.5c16 30.667 36.167 53.667 60.5 69s52.833 23 85.5 23c46 0 79.333 -14.833 100 -44.5s27.667 -72.5 21 -128.5l-29 -244c-2.66699 -22 -2.16699 -37.833 1.5 -47.5s10.834 -14.5 21.501 -14.5c14 0 25.333 9 34 27
s15.667 46.667 21 86h38c-8.66699 -63.333 -23.667 -106.5 -45 -129.5s-53 -34.5 -95 -34.5z" />
    <glyph glyph-name="n" unicode="n" horiz-adv-x="632" 
d="M476 -13c-42 0 -72 12.332 -90 36.999s-24 61.667 -18 111l28 220c4 34 2 58.833 -6 74.5s-22.667 23.5 -44 23.5c-27.333 0 -51.333 -17.167 -72 -51.5s-34.667 -81.833 -42 -142.5l-32 -259h-136l57 466h-77l5 38c46 0 83.5 1 112.5 3s48.167 4.66699 57.5 8l21 -9
l-16 -128c16.667 44.667 40.334 79 71.001 103s67 36 109 36c48 0 82.667 -14.667 104 -44s28.666 -72.333 21.999 -129l-29 -244c-2.66699 -22 -2.16699 -37.833 1.5 -47.5s10.834 -14.5 21.501 -14.5c13.333 0 24.666 9.33301 33.999 28s16.333 47.334 21 86.001h38
c-10 -64 -25.5 -107.5 -46.5 -130.5s-52.5 -34.5 -94.5 -34.5z" />
    <glyph glyph-name="o" unicode="o" horiz-adv-x="566" 
d="M533 247c-8.66699 -76 -39.001 -138.5 -91.001 -187.5s-113.333 -73.5 -184 -73.5s-127.667 26.333 -171 79s-60.666 117.334 -51.999 194.001c9.33301 76 40 138 92 186s113.667 72 185 72c70.667 0 127.5 -25.833 170.5 -77.5s59.833 -115.834 50.5 -192.501z
M175.999 259c-8.66699 -81.333 -6 -140.5 8 -177.5s40 -55.5 78 -55.5c37.333 0 66 16.667 86 50s34.667 90.333 44 171c8.66699 80.667 6.16699 139.334 -7.5 176.001s-39.5 55 -77.5 55c-37.333 0 -66 -16.333 -86 -49s-35 -89.334 -45 -170.001z" />
    <glyph glyph-name="p" unicode="p" horiz-adv-x="610" 
d="M225 223c-6.66699 -64 -2.66699 -111.499 12 -142.499s40.667 -46.5 78 -46.5c32 0 58 18.167 78 54.5s33.333 89.5 40 159.5c6.66699 72 3.66699 124.833 -9 158.5s-36 50.5 -70 50.5c-32 0.666992 -59 -16.333 -81 -51s-36.667 -82.334 -44 -143.001
c-0.666992 -1.33301 -1.5 -7.83301 -2.5 -19.5s-1.5 -18.5 -1.5 -20.5zM282 -249.999l-330.002 0.000976562l5 37h78l83 679h-76l5 38c46 0 83.333 1 112 3s47.667 4.66699 57 8l21 -9l-18 -142c13.333 47.333 36.166 84.666 68.499 111.999s70.5 41 114.5 41
c60.667 0 106.834 -23.833 138.501 -71.5s43.5 -111.167 35.5 -190.5c-7.33301 -76.667 -33.166 -140.667 -77.499 -192s-96.166 -77 -155.499 -77c-32.667 0.666992 -61 7 -85 19s-42 29 -54 51l-33 -269h115z" />
    <glyph glyph-name="q" unicode="q" horiz-adv-x="589" 
d="M540 -213l-4.99805 -37h-330l5 37h116c18 108 31.833 190.667 41.5 248s15.167 89.333 16.5 96c-17.333 -48 -41 -84.167 -71 -108.5s-65.667 -36.5 -107 -36.5c-56.667 0 -100.167 25 -130.5 75s-40.833 114.667 -31.5 194c9.33301 78.667 37.333 142 84 190
s105 72 175 72c33.333 0 62.166 -7.5 86.499 -22.5s43.166 -36.833 56.499 -65.5l61 88h45l-90 -730h78zM188.002 263c-7.33301 -66 -5 -117.167 7 -153.5s33 -54.5 63 -54.5c32.667 0 59.334 16.333 80.001 49s35.334 81 44.001 145c0 0.666992 0.166992 2.5 0.5 5.5
s1.16602 8.5 2.49902 16.5c1.33301 7.33301 2.16602 12.5 2.49902 15.5s0.5 4.83301 0.5 5.5c6 60 2 106 -12 138s-37 48 -69 48c-31.333 0 -57 -18.167 -77 -54.5s-34 -89.833 -42 -160.5z" />
    <glyph glyph-name="r" unicode="r" horiz-adv-x="491" 
d="M200 0l-135.998 0.00195312l57 466h-77l5 38c46 0 83.5 1 112.5 3s48.167 4.66699 57.5 8l21 -9l-18 -146c14.667 49.333 35.667 87.833 63 115.5s59 41.5 95 41.5c33.333 0 59.666 -8.83301 78.999 -26.5s29 -41.5 29 -71.5c0 -28.667 -8.33301 -52.334 -25 -71.001
s-37.667 -28 -63 -28c-22.667 0 -40.334 6.16699 -53.001 18.5s-19 29.5 -19 51.5c0 16 3.83301 30.167 11.5 42.5s17.5 21.166 29.5 26.499c-2 0.666992 -4.16699 1.16699 -6.5 1.5s-4.83301 0.5 -7.5 0.5c-28 0 -54 -21.5 -78 -64.5s-40.333 -98.833 -49 -167.5z" />
    <glyph glyph-name="s" unicode="s" horiz-adv-x="455" 
d="M37 -14l-23 0.000976562l23 184h38c-4.66699 -40.667 4.33301 -74.834 27 -102.501s52.667 -41.5 90 -41.5c32.667 0 58.167 7.16699 76.5 21.5s27.5 34.5 27.5 60.5c0 13.333 -3 25 -9 35s-16 19 -30 27c-5.33301 4 -12 7.66699 -20 11s-25.667 10 -53 20
c-41.333 13.333 -72.166 33 -92.499 59s-29.833 58 -28.5 96c2 48.667 19.667 87.667 53 117s77 44 131 44c24 0 45.833 -2.66699 65.5 -8s36.167 -13.333 49.5 -24l27 32h22l-22 -178h-38c4.66699 44 -2.16602 78.5 -20.499 103.5s-45.166 37.5 -80.499 37.5
c-26 0 -47 -6.66699 -63 -20s-24 -31.333 -24 -54c-0.666992 -20 5.16602 -36.667 17.499 -50s38.5 -27.666 78.5 -42.999c51.333 -19.333 87.166 -41.833 107.499 -67.5s29.5 -56.834 27.5 -93.501c-2.66699 -52 -20.834 -92.667 -54.501 -122s-79.5 -44 -137.5 -44
c-26 0 -50.833 3.66699 -74.5 11s-43.5 17.333 -59.5 30z" />
    <glyph glyph-name="t" unicode="t" horiz-adv-x="393" 
d="M196 -14c-48.667 0 -83.668 12.833 -105.001 38.5s-29 64.167 -23 115.5l40 326h-80l5 34c52.667 0 96.5 15.5 131.5 46.5s59.167 76.167 72.5 135.5h35l-23 -178h139l-5 -38h-138l-43 -352c-4 -28 -3 -48.833 3 -62.5s17.333 -20.5 34 -20.5
c20.667 0 36.834 10.833 48.501 32.5s21.167 57.167 28.5 106.5h37c-10 -70.667 -26.667 -119 -50 -145s-59 -39 -107 -39z" />
    <glyph glyph-name="u" unicode="u" horiz-adv-x="626" 
d="M382 144c-14.667 -52 -37.166 -91.3301 -67.499 -117.997s-67.5 -40 -111.5 -40c-47.333 0 -82.666 15.667 -105.999 47s-31.666 74.666 -24.999 129.999l37 301h-76l5 38c54.667 0 98 0.833008 130 2.5s52.667 4.5 62 8.5l21 -9l-43 -351
c-4 -34.667 -1.83301 -60.334 6.5 -77.001s23.166 -25 44.499 -25c28.667 0 52.167 16.333 70.5 49s31.5 81 39.5 145l27 219h-59l5 38c49.333 0 88.666 1 117.999 3s48.333 4.66699 57 8l21 -9l-49 -404c-2.66699 -20.667 -2 -36.167 2 -46.5s11.333 -15.5 22 -15.5
c14 0 25.167 9.16699 33.5 27.5s14.833 47.166 19.5 86.499h38c-9.33301 -65.333 -23.833 -109.166 -43.5 -131.499s-49.5 -33.5 -89.5 -33.5c-31.333 0 -54.833 9 -70.5 27s-23.5 45 -23.5 81l0.5 5c0.333008 3.33301 1.16602 10 2.49902 20
c0.666992 9.33301 1.16699 15.666 1.5 18.999z" />
    <glyph glyph-name="v" unicode="v" horiz-adv-x="494" 
d="M245 -7h-52l-117 473h-63l5 38h259l-5 -38h-64l71 -302l143 302h-72l5 38h172l-5 -38h-52z" />
    <glyph glyph-name="w" unicode="w" horiz-adv-x="711" 
d="M227 -7h-52l-109 473h-62l4 38h243l-5 -38h-49l62 -305l98 225l-15 80h-47l5 38h230l-4 -38h-62l54 -294l125 294h-62l5 38h158l-5 -38h-52l-200 -473h-52l-64 326z" />
    <glyph glyph-name="x" unicode="x" 
d="M291 125c-18.667 -44.667 -42.167 -79.0039 -70.5 -103.004s-59.5 -36 -93.5 -36s-60.833 9 -80.5 27s-29.5 43 -29.5 75c0 24.667 7.33301 45.167 22 61.5s34.334 24.5 59.001 24.5c20.667 0 36.5 -5.16699 47.5 -15.5s16.5 -25.166 16.5 -44.499
c0 -20.667 -6.83301 -38 -20.5 -52s-31.167 -21.667 -52.5 -23c4 -5.33301 8.66699 -9.33301 14 -12s11.666 -4 18.999 -4c32 0 58.5 26.333 79.5 79s33.167 121.334 36.5 206.001c3.33301 52.667 0 92.834 -10 120.501s-26 41.5 -48 41.5c-24 0 -44.333 -10.333 -61 -31
s-29.334 -51.667 -38.001 -93l-39 6c13.333 58 32.5 100.167 57.5 126.5s57.5 39.5 97.5 39.5c35.333 0 63.666 -11.833 84.999 -35.5s34.666 -58.167 39.999 -103.5c18.667 44.667 42.167 79 70.5 103s59.5 36 93.5 36s60.833 -9 80.5 -27s29.5 -42.667 29.5 -74
c0 -25.333 -7.33301 -46.166 -22 -62.499s-34.334 -24.5 -59.001 -24.5c-20.667 0 -36.5 5.16699 -47.5 15.5s-16.5 25.5 -16.5 45.5s6.83301 37 20.5 51s31.167 21.667 52.5 23c-4 5.33301 -8.66699 9.33301 -14 12s-11.666 4 -18.999 4c-32 0 -58.5 -26.167 -79.5 -78.5
s-33.167 -120.833 -36.5 -205.5c-3.33301 -52.667 0 -93 10 -121s26 -42 48 -42c24 0 44.333 10.5 61 31.5s29.334 52.167 38.001 93.5l39 -6c-13.333 -58.667 -32.5 -101.167 -57.5 -127.5s-57.5 -39.5 -97.5 -39.5c-35.333 0 -63.666 12 -84.999 36
s-34.666 58.333 -39.999 103z" />
    <glyph glyph-name="y" unicode="y" horiz-adv-x="597" 
d="M205 -260c-47.333 0 -86 11.502 -116 34.502s-45 52.833 -45 89.5c0 25.333 7.33301 45.5 22 60.5s34.334 22.5 59.001 22.5c20.667 0 36.667 -5.66699 48 -17s17 -26.666 17 -45.999c0 -20.667 -5.83301 -38.334 -17.5 -53.001s-27.5 -23.334 -47.5 -26.001
c9.33301 -9.33301 20 -16.333 32 -21s25.667 -7 41 -7c44.667 0 79 15.167 103 45.5s39.667 79.5 47 147.5c0 1.33301 0.333008 4.33301 1 9s2.33398 14.667 5.00098 30c4.66699 34.667 8 58.667 10 72s3.33301 21 4 23c-16.667 -34 -38.834 -59.833 -66.501 -77.5
s-60.5 -26.5 -98.5 -26.5c-48 0 -83.167 14.667 -105.5 44s-30.5 71.333 -24.5 126l36 294h-76l5 38c54.667 0 98 0.833008 130 2.5s52.667 4.5 62 8.5l21 -9l-42 -343c-4 -32.667 -2 -56.834 6 -72.501s22 -23.5 42 -23.5c32 0 57.833 15.667 77.5 47s33.167 78 40.5 140
l26 212h-59l5 38c49.333 0 88.666 1 117.999 3s48.333 4.66699 57 8l21 -9l-56 -454c-13.333 -108 -42.333 -186.667 -87 -236s-109.667 -74 -195 -74z" />
    <glyph glyph-name="z" unicode="z" horiz-adv-x="482" 
d="M408 0h-409l3 27l310 439h-95c-39.333 0 -68.333 -8.5 -87 -25.5s-31 -48.5 -37 -94.5l-2 -22h-38l22 180h393l-3 -28l-310 -439h112c38.667 0 67.5 9 86.5 27s31.167 50.333 36.5 97l3 23h37z" />
    <glyph glyph-name="braceleft" unicode="{" horiz-adv-x="364" 
d="M271 -233l-4.00098 -27c-54.667 0 -98.834 7 -132.501 21s-56.834 35 -69.501 63c-10 21.333 -14.5 47.666 -13.5 78.999s10.167 80.333 27.5 147c10 37.333 16.5 64.333 19.5 81s4.5 31 4.5 43c0 25.333 -6.66699 43.833 -20 55.5s-33.666 17.5 -60.999 17.5l4 32
c26 0 46.833 5.16699 62.5 15.5s26.834 26.166 33.501 47.499c3.33301 12 5.66602 26.333 6.99902 43s1.33301 44 0 82c-2 67.333 0.666992 116.5 8 147.5s20 56.833 38 77.5c20.667 24 49 42 85 54s80.333 18 133 18l-4 -31c-26.667 0 -48.334 -5.66699 -65.001 -17
s-29 -28.666 -37 -51.999c-4 -12.667 -7.16699 -28 -9.5 -46s-4.16602 -46.667 -5.49902 -86c-2 -51.333 -5.16699 -89.166 -9.5 -113.499s-10.5 -45.166 -18.5 -62.499c-12.667 -28 -30.834 -49.5 -54.501 -64.5s-53.5 -24.5 -89.5 -28.5
c37.333 -4.66699 66.333 -16 87 -34s33.334 -43 38.001 -75c3.33301 -18.667 4 -40.5 2 -65.5s-8.33301 -63.5 -19 -115.5c-7.33301 -38 -12.166 -65.667 -14.499 -83s-3.16602 -32.333 -2.49902 -45c0.666992 -26.667 7.66699 -46.334 21 -59.001s33 -19 59 -19z" />
    <glyph glyph-name="bar" unicode="|" horiz-adv-x="203" 
d="M60 -250h-52l140 1140h52z" />
    <glyph glyph-name="braceright" unicode="}" horiz-adv-x="360" 
d="M172 -181c-20.667 -26.667 -49.1641 -46.5039 -85.4971 -59.5039s-80.833 -19.5 -133.5 -19.5l5 30c25.333 0 45.833 5.83301 61.5 17.5s27.5 30.167 35.5 55.5c3.33301 12.667 6.16602 27.834 8.49902 45.501s4.5 46.167 6.5 85.5c2 54 5.33301 93.833 10 119.5
s11 48.167 19 67.5c13.333 30 32.333 53.333 57 70s55.667 27.334 93 32.001c-35.333 4 -63 14 -83 30s-32.667 39 -38 69c-2.66699 17.333 -3.16699 37.5 -1.5 60.5s7.5 59.167 17.5 108.5c8 38 13 65.667 15 83s2.66699 32.333 2 45c-2 25.333 -10 44 -24 56
s-34.667 18 -62 18l4 31c54 0 97.833 -6.33301 131.5 -19s57.5 -32 71.5 -58c11.333 -20.667 16.666 -46.167 15.999 -76.5s-10 -78.166 -28 -143.499c-10 -36 -16.5 -62 -19.5 -78s-4.5 -30 -4.5 -42c0.666992 -23.333 7.5 -40.5 20.5 -51.5s33.167 -16.5 60.5 -16.5
l-4 -32c-26.667 0 -47.834 -5.5 -63.501 -16.5s-26.834 -28.167 -33.501 -51.5c-4 -12 -6.66699 -26.667 -8 -44s-1.66602 -45.666 -0.999023 -84.999c1.33301 -68.667 -1.66699 -119 -9 -151s-19.333 -58.667 -36 -80z" />
    <glyph glyph-name="asciitilde" unicode="~" horiz-adv-x="488" 
d="M333 213c-22 0 -42.3311 4.5 -60.998 13.5s-41 27.167 -67 54.5c-18.667 19.333 -33 31.833 -43 37.5s-20 8.5 -30 8.5c-20.667 0 -36.834 -8.66699 -48.501 -26s-19.5 -44.333 -23.5 -81h-38c8 62 23.167 106.667 45.5 134s53.833 41 94.5 41c22 0 42.333 -4.5 61 -13.5
s41 -26.833 67 -53.5c19.333 -20 34.166 -32.833 44.499 -38.5s20.833 -8.5 31.5 -8.5c19.333 0 34.333 8.66699 45 26s18 44.333 22 81h38c-10 -69.333 -25.5 -115.833 -46.5 -139.5s-51.5 -35.5 -91.5 -35.5z" />
    <glyph glyph-name="exclamdown" unicode="&#xa1;" horiz-adv-x="292" 
d="M105 618c0.666992 22.667 9.83008 42.667 27.4971 60s39.834 26 66.501 26c25.333 0 44.333 -7.33301 57 -22s18.334 -33 17.001 -55c-1.33301 -24 -10.666 -44.333 -27.999 -61s-39.333 -25 -66 -25c-24.667 0 -43.5 7.5 -56.5 22.5s-18.833 33.167 -17.5 54.5z
M150.996 482h40.001c-5.33301 -42.667 -7.5 -85.834 -6.5 -129.501s5.83301 -99.834 14.5 -168.501c4.66699 -35.333 7.5 -60.333 8.5 -75s0.833008 -27 -0.5 -37c-3.33301 -24.667 -13.5 -45.167 -30.5 -61.5s-38.5 -24.5 -64.5 -24.5s-45.5 8.33301 -58.5 25
s-17.833 37 -14.5 61c1.33301 10.667 4.16602 23.334 8.49902 38.001s12.833 40.334 25.5 77.001c25.333 68 43.333 123.667 54 167s18.667 86 24 128z" />
    <glyph glyph-name="cent" unicode="&#xa2;" horiz-adv-x="493" 
d="M248 -14l-5.00098 0.000976562l-13 -105h-34l14 108c-61.333 8.66699 -108 37 -140 85s-44 107 -36 177c8.66699 73.333 35 133.833 79 181.5s98.333 75.167 163 82.5l17 136h35l-17 -134c49.333 -0.666992 88.166 -12.334 116.499 -35.001s41.5 -54 39.5 -94
c-2 -23.333 -10.167 -42 -24.5 -56s-33.5 -21 -57.5 -21c-22.667 0 -40 6 -52 18s-17.333 28.333 -16 49c0.666992 20.667 7 38 19 52s27.667 23 47 27c-8.66699 8 -18.5 14 -29.5 18s-23.167 6 -36.5 6h-7c-1.33301 0 -2.66602 -0.333008 -3.99902 -1l-56 -445
c4 -0.666992 8.33301 -1.33398 13 -2.00098s9.33398 -1 14.001 -1c31.333 0 58.833 11.333 82.5 34s40.167 53.334 49.5 92.001l39 -6c-14.667 -54 -39 -95.167 -73 -123.5s-76.333 -42.5 -127 -42.5zM174.999 255.001c-5.33301 -50 -4.5 -92.5 2.5 -127.5
s20.167 -60.167 39.5 -75.5l53 418c-24.667 -13.333 -45 -38 -61 -74s-27.333 -83 -34 -141z" />
    <glyph glyph-name="sterling" unicode="&#xa3;" horiz-adv-x="570" 
d="M147 33c-24 0 -46.3311 -3.33301 -66.998 -10s-41.334 -17 -62.001 -31l-17 28c72.667 44 121.834 79.833 147.501 107.5s40.5 57.5 44.5 89.5c0.666992 10.667 0.5 21 -0.5 31s-3.16699 20 -6.5 30h-118l6 41h94c-2 4 -6.5 12.167 -13.5 24.5s-12.167 22.833 -15.5 31.5
c-4.66699 10.667 -8.33398 21 -11.001 31s-4.66699 20.333 -6 31c-1.33301 9.33301 -2 19.5 -2 30.5s0.666992 22.167 2 33.5c7.33301 60.667 31.5 109.667 72.5 147s92.167 56 153.5 56c54 0 96.833 -14.167 128.5 -42.5s44.5 -64.833 38.5 -109.5
c-4 -23.333 -13.667 -42.333 -29 -57s-34 -22 -56 -22c-24.667 0 -43 6.33301 -55 19s-16.667 30.334 -14 53.001c2 22 9.66699 39.667 23 53s32.333 22.666 57 27.999c-8 13.333 -20.167 23.666 -36.5 30.999s-35.166 11 -56.499 11c-34.667 0 -63 -9.5 -85 -28.5
s-35 -44.5 -39 -76.5c-2 -20 -0.833008 -38.667 3.5 -56s15.5 -39 33.5 -65c17.333 -26.667 28.833 -48.667 34.5 -66s8.16699 -36.333 7.5 -57h129l-5 -41h-126c-4.66699 -36 -19.667 -70.167 -45 -102.5s-64.333 -65.5 -117 -99.5c23.333 12 45.166 20.833 65.499 26.5
s40.833 8.5 61.5 8.5c8.66699 0 18 -1 28 -3s25 -6 45 -12c18 -6 31.667 -10 41 -12s17.666 -3 24.999 -3c20.667 0 35.5 7 44.5 21s15.833 39.333 20.5 76l38 -2c-8.66699 -74 -23.167 -123.167 -43.5 -147.5s-52.833 -36.5 -97.5 -36.5c-16 0 -31.5 1.33301 -46.5 4
s-35.833 8 -62.5 16c-26.667 8.66699 -47.667 14.334 -63 17.001s-31.333 4 -48 4z" />
    <glyph glyph-name="yen" unicode="&#xa5;" horiz-adv-x="595" 
d="M432 0h-307l5 37h82l21 173h-135l5 38h135l8 64h-134l5 37h112l-121 304h-67l5 37h319l-5 -37h-97l109 -275l171 275h-85l5 37h202l-5 -37h-68l-190 -304h121l-5 -37h-130l-9 -64h130l-5 -38h-129l-21 -173h83z" />
    <glyph glyph-name="section" unicode="&#xa7;" horiz-adv-x="527" 
d="M226 171c37.333 -20.667 64.666 -37.833 81.999 -51.5s31.666 -28.167 42.999 -43.5c10 8.66699 17.833 18.167 23.5 28.5s8.83398 20.833 9.50098 31.5c2.66699 23.333 -2.5 43.833 -15.5 61.5s-44.5 40.167 -94.5 67.5c-37.333 20 -64.666 36.5 -81.999 49.5
s-32 26.833 -44 41.5c-9.33301 -7.33301 -16.5 -15.333 -21.5 -24s-8.16699 -18.334 -9.5 -29.001c-2.66699 -23.333 2.5 -44.166 15.5 -62.499s44.167 -41.5 93.5 -69.5zM409 -79.999c-6.66699 -54 -30.0098 -97.3359 -70.0098 -130.003s-90 -49 -150 -49
c-61.333 0 -108.833 14 -142.5 42s-47.167 66 -40.5 114c3.33301 22.667 12.333 40.334 27 53.001s33.334 19 56.001 19c25.333 0 44.333 -6.83301 57 -20.5s17.667 -32.5 15 -56.5c-2 -18.667 -8.66699 -34.167 -20 -46.5s-27.333 -22.166 -48 -29.499
c6 -12 16.333 -21.333 31 -28s32 -10 52 -10c35.333 0 63.833 9.16699 85.5 27.5s34.167 42.5 37.5 72.5c2.66699 23.333 1.33398 44.5 -3.99902 63.5s-15 36.167 -29 51.5c-9.33301 10 -21 19.833 -35 29.5s-36.667 22.5 -68 38.5c-31.333 16.667 -54 30 -68 40
s-25.667 20 -35 30c-14 16 -23.667 33.5 -29 52.5s-6.66602 40.5 -3.99902 64.5c3.33301 30 13.333 56.333 30 79s39.334 41 68.001 55c-15.333 20 -26 41.667 -32 65s-7.33301 49 -4 77c6.66699 52 31.5 95 74.5 129s94.167 51 153.5 51
c58.667 0 103.834 -13.667 135.501 -41s44.834 -64.333 39.501 -111c-2.66699 -22.667 -11.167 -40.667 -25.5 -54s-32.166 -20 -53.499 -20c-25.333 0 -44.5 7.16699 -57.5 21.5s-17.833 32.833 -14.5 55.5c2.66699 19.333 9.66699 35.333 21 48s27 21.334 47 26.001
c-6 11.333 -16.167 20.333 -30.5 27s-30.5 10 -48.5 10c-35.333 0 -64.833 -9.66699 -88.5 -29s-37.167 -43.666 -40.5 -72.999c-2.66699 -22.667 -1.16699 -43.334 4.5 -62.001s16.167 -36 31.5 -52c8.66699 -10 19.834 -20 33.501 -30s35.834 -23.667 66.501 -41
c32 -18 55 -32.167 69 -42.5s25.667 -20.5 35 -30.5c15.333 -16.667 25.833 -34.834 31.5 -54.501s7.16699 -41.167 4.5 -64.5c-3.33301 -30.667 -13.833 -58.167 -31.5 -82.5s-41.5 -43.833 -71.5 -58.5c15.333 -19.333 25.833 -39.166 31.5 -59.499
s6.83398 -42.5 3.50098 -66.5z" />
    <glyph glyph-name="dieresis" unicode="&#xa8;" horiz-adv-x="453" 
d="M217 675c-0.666992 -21.333 -9.16602 -40.002 -25.499 -56.002s-36.833 -24 -61.5 -24c-22.667 0 -40.167 6.83301 -52.5 20.5s-18.166 31.5 -17.499 53.5c1.33301 22.667 10.166 41.834 26.499 57.501s37.166 23.5 62.499 23.5c22 0 39.167 -7.16699 51.5 -21.5
s17.833 -32.166 16.5 -53.499zM430.001 674.998c-0.666992 -21.333 -9.16602 -40.002 -25.499 -56.002s-37.166 -24 -62.499 -24c-22.667 0 -40 6.83301 -52 20.5s-17.667 31.5 -17 53.5c1.33301 22.667 10.166 41.834 26.499 57.501s37.166 23.5 62.499 23.5
c22 0 39.167 -7.16699 51.5 -21.5s17.833 -32.166 16.5 -53.499z" />
    <glyph glyph-name="copyright" unicode="&#xa9;" horiz-adv-x="805" 
d="M762 351c-12 -106 -54.332 -193.333 -126.999 -262s-161.334 -103 -266.001 -103c-103.333 0 -183.333 34 -240 102s-79.334 155.667 -68.001 263c10.667 100.667 53.667 184.667 129 252s163.333 101 264 101c101.333 0 181.333 -33.667 240 -101
s81.334 -151.333 68.001 -252zM108.001 351c-13.333 -92.667 5.33301 -170.334 56 -233.001s119.667 -94 207 -94c93.333 0 170.833 29.333 232.5 88s99.167 138.334 112.5 239.001c12 90 -7 164.167 -57 222.5s-119 87.5 -207 87.5c-91.333 0 -169 -28.667 -233 -86
s-101 -132 -111 -224zM387 124c-55.333 0 -99.3311 22.666 -131.998 67.999s-45 97.333 -37 156c7.33301 58.667 33.166 110.834 77.499 156.501s93.166 68.5 146.499 68.5c16 0 31.333 -2 46 -6s27.667 -9.66699 39 -17l25 20h20l-20 -145h-28
c4 39.333 -0.166992 68.666 -12.5 87.999s-33.166 29 -62.499 29c-38 0 -67.333 -15.833 -88 -47.5s-34.334 -80.5 -41.001 -146.5c-8 -64.667 -5.5 -113.167 7.5 -145.5s36.5 -48.5 70.5 -48.5c30.667 0 55.167 9.5 73.5 28.5s31.166 48.833 38.499 89.5h29l-20 -146h-19
l-19 28c-13.333 -9.33301 -28.166 -16.666 -44.499 -21.999s-32.833 -8 -49.5 -8z" />
    <glyph glyph-name="ordfeminine" unicode="&#xaa;" horiz-adv-x="388" 
d="M268 558c-8.66699 -22 -21.001 -38.833 -37.001 -50.5s-34.333 -17.5 -55 -17.5c-31.333 0 -55.5 12.667 -72.5 38s-23.167 58.333 -18.5 99c4.66699 38.667 20.334 71 47.001 97s58.334 39 95.001 39c16.667 0 31.667 -3.83301 45 -11.5s23.666 -18.167 30.999 -31.5
l37 43h25l-27 -217c-0.666992 -8 0 -14 2 -18s5.66699 -6 11 -6c6.66699 0 12.334 4.16699 17.001 12.5s9 21.833 13 40.5h24c-6 -31.333 -14.833 -53.333 -26.5 -66s-27.834 -19 -48.501 -19s-36.667 6.16699 -48 18.5s-16 28.833 -14 49.5zM171.999 632
c-4 -38 -4 -64.334 0 -79.001s13.333 -22 28 -22c18 0 32.333 8.16699 43 24.5s18.667 42.5 24 78.5c5.33301 37.333 5.5 63.833 0.5 79.5s-16.167 23.834 -33.5 24.501c-18 0 -31.833 -8.33301 -41.5 -25s-16.5 -43.667 -20.5 -81z" />
    <glyph glyph-name="guillemotleft" unicode="&#xab;" horiz-adv-x="532" 
d="M266 48l-3 -33l-239 232l4 32l292 210l-4 -38l-150 -188zM459 84l-3 -32l-217 197l3 28l262 176l-4 -38l-126 -152z" />
    <glyph glyph-name="logicalnot" unicode="&#xac;" horiz-adv-x="556" 
d="M479 149h-50l17 140h-400l6 47h450z" />
    <glyph glyph-name="registered" unicode="&#xae;" horiz-adv-x="598" 
d="M570 452c-9.33301 -77.333 -39.998 -140.001 -91.998 -188.001s-115.333 -72 -190 -72c-72.667 0 -130.334 25.167 -173.001 75.5s-59 111.833 -49 184.5c8 72.667 38.667 132.834 92 180.501s116.666 71.5 189.999 71.5c74.667 0 132.5 -23.5 173.5 -70.5
s57.167 -107.5 48.5 -181.5zM106.002 451.999c-10 -66 2.33105 -120.333 36.998 -163s84 -64 148 -64s117.667 20.667 161 62s69.333 96.333 78 165c8 66 -4.83301 118.833 -38.5 158.5s-82.5 59.5 -146.5 59.5c-63.333 0 -117.166 -20.167 -161.499 -60.5
s-70.166 -92.833 -77.499 -157.5zM400 318.999c-18 0 -30.8291 3.99902 -38.4961 11.999s-12.834 25.667 -15.501 53c-1.33301 21.333 -5.5 36.5 -12.5 45.5s-17.5 13.833 -31.5 14.5h-11l-13 -96h34l-4 -22h-128l3 22h34l30 220h-36l2 22h112
c39.333 0 68.666 -6.16699 87.999 -18.5s27.666 -29.833 24.999 -52.5c-2.66699 -15.333 -13 -28.833 -31 -40.5s-40.667 -19.5 -68 -23.5c26.667 -8 45.167 -16.5 55.5 -25.5s16.166 -22.833 17.499 -41.5c0.666992 -14.667 1.83398 -25.167 3.50098 -31.5
s4.83398 -9.5 9.50098 -9.5s8.66699 3.33301 12 10s5.66602 16.334 6.99902 29.001h18c-3.33301 -24.667 -9.83301 -42 -19.5 -52s-23.834 -15 -42.501 -15zM308.004 567.998l-14 -103.001h8c20.667 0 37.334 4.83301 50.001 14.5s20 22.834 22 39.501s-1.33301 29 -10 37
s-23.334 12 -44.001 12h-12z" />
    <glyph glyph-name="macron" unicode="&#xaf;" horiz-adv-x="312" 
d="M338 667h-268l6 55h269z" />
    <glyph glyph-name="degree" unicode="&#xb0;" horiz-adv-x="329" 
d="M315 595c-4.66699 -34 -17.999 -61.001 -39.999 -81.001s-50.333 -30 -85 -30c-32 0 -56.833 10.5 -74.5 31.5s-24.5 47.5 -20.5 79.5c3.33301 30 16.666 55 39.999 75s51 30 83 30s57 -9.66699 75 -29s25.333 -44.666 22 -75.999zM147.001 592.999
c-2.66699 -19.333 0.498047 -35 9.49805 -47s22.5 -18 40.5 -18c17.333 0 32 6 44 18s19 27.667 21 47c2 17.333 -1.66699 32 -11 44s-22.333 18 -39 18c-17.333 0 -32.166 -5.83301 -44.499 -17.5s-19.166 -26.5 -20.499 -44.5z" />
    <glyph glyph-name="plusminus" unicode="&#xb1;" horiz-adv-x="443" 
d="M238 209h-50l19 157h-161l7 47h161l19 158h50l-19 -158h161l-7 -47h-161zM387 118h-372l7 47h372z" />
    <glyph glyph-name="uni00B2" unicode="&#xb2;" horiz-adv-x="376" 
d="M394 665l-31.002 -144.999h-294l2 21c22 20 63.333 57.5 124 112.5s99.334 93.5 116.001 115.5c-7.33301 -9.33301 -17.5 -17 -30.5 -23s-26.833 -9 -41.5 -9c-42.667 0 -77.167 10 -103.5 30s-37.5 45.667 -33.5 77s22.5 56.666 55.5 75.999s72.833 29 119.5 29
c42 0 75 -9.5 99 -28.5s34 -44.5 30 -76.5c-2 -16 -7.66699 -31.5 -17 -46.5s-23.666 -32.167 -42.999 -51.5c-6.66699 -6.66699 -14.5 -14.167 -23.5 -22.5s-24.167 -22.5 -45.5 -42.5c-26 -23.333 -46.5 -42 -61.5 -56s-29.5 -27.667 -43.5 -41h98
c29.333 0 50 3.16699 62 9.5s20 17.5 24 33.5l9 38h29zM261.998 918.001c-22 0 -40.165 -6.49902 -54.498 -19.499s-22.833 -31.5 -25.5 -55.5c-3.33301 -24 0.5 -42.5 11.5 -55.5s28.167 -19.5 51.5 -19.5c22.667 0 41.167 6.5 55.5 19.5s23.166 31.5 26.499 55.5
c2.66699 23.333 -1.83301 41.666 -13.5 54.999s-28.834 20 -51.501 20z" />
    <glyph glyph-name="uni00B3" unicode="&#xb3;" horiz-adv-x="358" 
d="M376 644c-4.66699 -36.667 -22.6699 -67.5 -54.0029 -92.5s-70.666 -37.5 -117.999 -37.5c-46.667 0 -81.834 10 -105.501 30s-33.5 46.333 -29.5 79c2.66699 14 9 25.5 19 34.5s22.333 13.5 37 13.5c14 0 24.667 -4 32 -12s10.333 -18 9 -30
s-6.66602 -21.667 -15.999 -29s-21.333 -11 -36 -11c5.33301 -13.333 15.333 -23.333 30 -30s32.667 -10 54 -10c26.667 0 47.834 8.16699 63.501 24.5s25.5 39.833 29.5 70.5c4 32 -0.166992 56.5 -12.5 73.5s-31.166 25.5 -56.499 25.5c-8 0 -15.167 -1 -21.5 -3
s-12.833 -5.33301 -19.5 -10l-10 18l133 131h-71c-36.667 0 -60 -3 -70 -9s-16.333 -19.333 -19 -40l-3 -22h-30l17 136h265l-3 -27l-143 -142c46.667 -7.33301 81 -22 103 -44s30.667 -51 26 -87z" />
    <glyph glyph-name="acute" unicode="&#xb4;" horiz-adv-x="550" 
d="M72 590l-37 -0.000976562l96 128c7.33301 10.667 16 18.334 26 23.001s22.333 7 37 7h104c16.667 0 25 -4 25 -12s-7.66699 -16 -23 -24z" />
    <glyph glyph-name="uni00B5" unicode="&#xb5;" horiz-adv-x="633" 
d="M543 504l-48.9951 -403.998c-2 -21.333 -1 -37 3 -47s11.333 -15 22 -15c14 0 25.167 9.16699 33.5 27.5s14.833 47.166 19.5 86.499h38c-9.33301 -65.333 -23.833 -109.166 -43.5 -131.499s-49.5 -33.5 -89.5 -33.5c-31.333 0 -54.833 9 -70.5 27s-23.5 45 -23.5 81
l0.5 5c0.333008 3.33301 1.16602 10 2.49902 20c0.666992 9.33301 1.16699 15.666 1.5 18.999l0.5 5c-15.333 -52 -38 -91.333 -68 -118s-67 -40 -111 -40c-22.667 0 -42.834 3.66699 -60.501 11s-31.834 18.333 -42.501 33c-0.666992 -28 -0.5 -52.833 0.5 -74.5
s3.83301 -44.167 8.5 -67.5c1.33301 -10.667 2.33301 -18.5 3 -23.5s1 -10.167 1 -15.5c0 -18 -6.16699 -32.833 -18.5 -44.5s-28.5 -17.5 -48.5 -17.5c-18.667 0 -33.334 5 -44.001 15s-16 23 -16 39c0 7.33301 1 14.666 3 21.999s7 19.333 15 36
c18.667 40.667 33.167 81.834 43.5 123.501s18.833 89.5 25.5 143.5l36 298h-76l5 38c54.667 0 98 0.833008 130 2.5s52.667 4.5 62 8.5l21 -9l-43 -351c-4 -34.667 -1.83301 -60.334 6.5 -77.001s23.166 -25 44.499 -25c28.667 0 52.167 16.333 70.5 49s31.5 81 39.5 145
l27 219h-59l5 38c49.333 0 88.5 0.833008 117.5 2.5s48.167 4.5 57.5 8.5z" />
    <glyph glyph-name="paragraph" unicode="&#xb6;" horiz-adv-x="610" 
d="M508 -250h-357l4 37h95l56 466c-86.667 0 -152 21.167 -196 63.5s-61.667 96.833 -53 163.5c6.66699 64 36 115 88 153s121 57 207 57h272l-5 -37h-84l-107 -866h85zM403 653l-105 -866h82l106 866h-83z" />
    <glyph glyph-name="periodcentered" unicode="&#xb7;" horiz-adv-x="292" 
d="M240 317c-1.33301 -24.667 -11.332 -46.335 -29.999 -65.002s-42 -28 -70 -28c-26.667 0 -46.834 7.83301 -60.501 23.5s-19.5 35.834 -17.5 60.501c0.666992 24.667 10.167 46.334 28.5 65.001s41.833 28 70.5 28c26 0 46 -8 60 -24s20.333 -36 19 -60z" />
    <glyph glyph-name="cedilla" unicode="&#xb8;" horiz-adv-x="460" 
d="M296 -134c-2.66699 -23.333 -15.332 -41.833 -37.999 -55.5s-52 -20.5 -88 -20.5c-28 0 -52 3.5 -72 10.5s-35 17.167 -45 30.5l19 25c5.33301 -8 13.833 -14.167 25.5 -18.5s24.5 -6.5 38.5 -6.5c17.333 0 30.333 3.16699 39 9.5s14 15.833 16 28.5
c2 16 -2.33301 27.833 -13 35.5s-29 11.5 -55 11.5l-5 15l66 76h47l-52 -56c36 0 65.167 -7.66699 87.5 -23s32.166 -36 29.499 -62z" />
    <glyph glyph-name="uni00B9" unicode="&#xb9;" horiz-adv-x="281" 
d="M299 553l-4.00195 -32.999h-240l4 33h81l41 334h-81l4 33c39.333 0 72 3.16699 98 9.5s44.667 15.833 56 28.5l18 -8c-3.33301 -6 -6.66602 -15.833 -9.99902 -29.5s-5.66602 -27.834 -6.99902 -42.501l-40 -325h80z" />
    <glyph glyph-name="ordmasculine" unicode="&#xba;" horiz-adv-x="366" 
d="M367 629c-6 -40.667 -24.668 -74 -56.001 -100s-66.333 -39 -105 -39c-38 0 -68.667 13 -92 39s-33 59.667 -29 101c6 38.667 24 70.5 54 95.5s64 37.5 102 37.5s69.333 -12.667 94 -38s35.334 -57.333 32.001 -96zM164.999 630
c-4 -43.333 -2.49805 -72.499 4.50195 -87.499s21.167 -22.5 42.5 -22.5c22 0 39.167 8.83301 51.5 26.5s20.166 45.167 23.499 82.5c4 38.667 2.16699 66.5 -5.5 83.5s-21.834 25.5 -42.501 25.5c-22 0 -38.833 -8.33301 -50.5 -25s-19.5 -44.334 -23.5 -83.001z" />
    <glyph glyph-name="guillemotright" unicode="&#xbb;" horiz-adv-x="536" 
d="M499 247l-296 -232l4 33l153 215l-103 188l4 38l242 -210zM284 249l-264 -197l4 32l128 179l-88 152l4 38l220 -176z" />
    <glyph glyph-name="questiondown" unicode="&#xbf;" horiz-adv-x="439" 
d="M188 618c1.33301 23.333 10.8301 43.5 28.4971 60.5s39.834 25.5 66.501 25.5c24.667 0 43.334 -7 56.001 -21s18.667 -32.667 18 -56c-1.33301 -24 -10.666 -44.333 -27.999 -61s-39.333 -25 -66 -25c-24.667 0 -43.5 7.16699 -56.5 21.5s-19.167 32.833 -18.5 55.5z
M123.997 400c0 28 11.334 51.6641 34.001 70.9971s52.334 29 89.001 29c35.333 0 63.166 -9.83301 83.499 -29.5s29.5 -45.834 27.5 -78.501c-0.666992 -25.333 -8.16699 -48.833 -22.5 -70.5s-43.166 -48.167 -86.499 -79.5c-40.667 -30 -67.334 -54.167 -80.001 -72.5
s-19.334 -38.166 -20.001 -59.499c-0.666992 -28.667 6 -50.167 20 -64.5s35.333 -21.5 64 -21.5c14.667 0 28.5 2.33301 41.5 7s23.833 11.334 32.5 20.001c-18.667 5.33301 -32.334 13.833 -41.001 25.5s-12.667 26.167 -12 43.5c1.33301 24 9.83301 43.167 25.5 57.5
s36.5 21.5 62.5 21.5c21.333 0 37.5 -6.66699 48.5 -20s15.833 -31.666 14.5 -54.999c-2 -37.333 -22 -69.666 -60 -96.999s-84.667 -41 -140 -41s-98.833 12.5 -130.5 37.5s-46.5 59.5 -44.5 103.5c1.33301 30.667 10.5 58.667 27.5 84s50.833 55.666 101.5 90.999
c39.333 26.667 65 48 77 64s18.333 33 19 51c0.666992 12 -2.33301 21.667 -9 29s-16 11 -28 11c-14 0 -26.167 -5.33301 -36.5 -16s-15.166 -23.667 -14.499 -39c0 -6.66699 1.16699 -13.5 3.5 -20.5s5.83301 -13.833 10.5 -20.5l-29 -18
c-9.33301 6.66699 -16.333 14.834 -21 24.501s-7 20.5 -7 32.5z" />
    <glyph glyph-name="Agrave" unicode="&#xc0;" 
d="M283 521l-113 -248h166zM160 0h-208l5 37h62l305 663h66l144 -663h64l-5 -37h-319l5 37h107l-42 199h-190l-91 -199h101zM414 741l-38.002 -0.000976562l-209 102c-12 6.66699 -17.167 14.334 -15.5 23.001s10.167 13 25.5 13h120c12.667 0 22.834 -2.33301 30.501 -7
s14.834 -12.667 21.501 -24z" />
    <glyph glyph-name="Aacute" unicode="&#xc1;" 
d="M283 521l-113 -248h166zM160 0h-208l5 37h62l305 663h66l144 -663h64l-5 -37h-319l5 37h107l-42 199h-190l-91 -199h101zM370 740l-37 -0.000976562l83 108c7.33301 10.667 16 18.334 26 23.001s22.333 7 37 7h110c16.667 0 25 -4 25 -12s-7.33301 -16 -22 -24z" />
    <glyph glyph-name="Acircumflex" unicode="&#xc2;" 
d="M283 521l-113 -248h166zM160 0h-208l5 37h62l305 663h66l144 -663h64l-5 -37h-319l5 37h107l-42 199h-190l-91 -199h101zM237 741h-35l163 176h43l113 -176h-29l-118 74z" />
    <glyph glyph-name="Atilde" unicode="&#xc3;" 
d="M283 521l-113 -248h166zM160 0h-208l5 37h62l305 663h66l144 -663h64l-5 -37h-319l5 37h107l-42 199h-190l-91 -199h101zM437 754c-16 0 -30.998 3.00098 -44.998 9.00098s-31.667 18 -53 36c-15.333 13.333 -26.833 22 -34.5 26s-15.5 6 -23.5 6
c-16.667 0.666992 -29.334 -4.83301 -38.001 -16.5s-13.667 -29.167 -15 -52.5h-29c3.33301 46 14.166 81.167 32.499 105.5s43.5 36.5 75.5 36.5c17.333 0 33.166 -2.83301 47.499 -8.5s32.166 -17.167 53.499 -34.5c14.667 -12.667 26.167 -20.834 34.5 -24.501
s16.5 -5.5 24.5 -5.5c14.667 0 25.834 4.5 33.501 13.5s13.834 26.167 18.501 51.5h29c-6.66699 -50.667 -19 -87 -37 -109s-42.667 -33 -74 -33z" />
    <glyph glyph-name="Adieresis" unicode="&#xc4;" 
d="M283 521l-113 -248h166zM160 0h-208l5 37h62l305 663h66l144 -663h64l-5 -37h-319l5 37h107l-42 199h-190l-91 -199h101zM343 829c-0.666992 -21.333 -9.16602 -40.002 -25.499 -56.002s-36.833 -24 -61.5 -24c-22.667 0 -40.167 6.83301 -52.5 20.5
s-18.166 31.5 -17.499 53.5c1.33301 22.667 10.166 41.834 26.499 57.501s37.166 23.5 62.499 23.5c22 0 39.167 -7.16699 51.5 -21.5s17.833 -32.166 16.5 -53.499zM556.001 828.998c-0.666992 -21.333 -9.16602 -40.002 -25.499 -56.002s-37.166 -24 -62.499 -24
c-22.667 0 -40 6.83301 -52 20.5s-17.667 31.5 -17 53.5c1.33301 22.667 10.166 41.834 26.499 57.501s37.166 23.5 62.499 23.5c22 0 39.167 -7.16699 51.5 -21.5s17.833 -32.166 16.5 -53.499z" />
    <glyph glyph-name="Aring" unicode="&#xc5;" 
d="M283 521l-113 -248h166zM160 0h-208l5 37h62l305 663h66l144 -663h64l-5 -37h-319l5 37h107l-42 199h-190l-91 -199h101zM470 827c-4 -25.333 -14.832 -45.832 -32.499 -61.499s-40.167 -23.5 -67.5 -23.5c-29.333 0 -51 8 -65 24s-19.667 37 -17 63
c3.33301 25.333 14.166 46.166 32.499 62.499s41.833 24.5 70.5 24.5s50 -8.5 64 -25.5s19 -38.167 15 -63.5zM338.001 829.001c-1.33301 -12.667 1.16797 -22.999 7.50098 -30.999s16.166 -12 29.499 -12c12.667 0 23 3.66699 31 11s13 17.333 15 30
c2 13.333 0 24.166 -6 32.499s-16 12.5 -30 12.5s-25 -3.66699 -33 -11s-12.667 -18 -14 -32z" />
    <glyph glyph-name="AE" unicode="&#xc6;" horiz-adv-x="835" 
d="M404 572l-221 -318h182zM129 0h-208l5 37h63l422 616h-97l5 37h499l-27 -220h-37l4 35c6.66699 52.667 -1 90.5 -23 113.5s-61.667 34.5 -119 34.5h-60l-33 -270h114l9 74h43l-24 -195h-43l11 83h-115l-38 -308h98c49.333 0 86.5 11.833 111.5 35.5
s41.167 64.5 48.5 122.5l4 29h37l-28 -224h-520l5 37h102l23 180h-203l-125 -180h100z" />
    <glyph glyph-name="Ccedilla" unicode="&#xc7;" horiz-adv-x="588" 
d="M297 -14c-45.333 0 -85.834 10 -121.501 30s-65.167 49 -88.5 87c-20 32.667 -33.833 70.167 -41.5 112.5s-8.83398 85.833 -3.50098 130.5c5.33301 44 17.5 87.333 36.5 130s42.833 80.667 71.5 114c32 36.667 68 64.834 108 84.501s82 29.5 126 29.5
c27.333 0 52 -3.33301 74 -10s40.333 -16.334 55 -29.001l44 35h23l-29 -230h-37c7.33301 60.667 0.666016 108 -20.001 142s-53.667 51 -99 51c-56.667 0 -101.167 -25.5 -133.5 -76.5s-55.166 -131.167 -68.499 -240.5c-12.667 -108.667 -9 -189 11 -241
s57.667 -78 113 -78c47.333 0 85.833 17.333 115.5 52s48.5 83 56.5 145h37l-29 -234h-22l-35 39c-23.333 -14.667 -46.666 -25.5 -69.999 -32.5s-47.666 -10.5 -72.999 -10.5zM391.999 -134c-2.66699 -23.333 -15.332 -41.833 -37.999 -55.5s-52 -20.5 -88 -20.5
c-28 0 -52 3.5 -72 10.5s-35 17.167 -45 30.5l19 25c5.33301 -8 13.833 -14.167 25.5 -18.5s24.5 -6.5 38.5 -6.5c17.333 0 30.333 3.16699 39 9.5s14 15.833 16 28.5c2 16 -2.33301 27.833 -13 35.5s-29 11.5 -55 11.5l-5 15l66 76h47l-52 -56
c36 0 65.167 -7.66699 87.5 -23s32.166 -36 29.499 -62z" />
    <glyph glyph-name="Egrave" unicode="&#xc8;" horiz-adv-x="588" 
d="M504 0h-502l5 37h76l75 616h-76l5 37h484l-27 -220h-38l4 35c7.33301 52 0 89.667 -22 113s-62 35 -120 35h-68l-35 -283h124l9 74h42l-24 -195h-42l10 84h-124l-36 -296h107c49.333 0 86.5 11.833 111.5 35.5s41.167 64.5 48.5 122.5l3 29h38zM384 741
l-38.002 -0.000976562l-209 102c-12 6.66699 -17.167 14.334 -15.5 23.001s10.167 13 25.5 13h120c12.667 0 22.834 -2.33301 30.501 -7s14.834 -12.667 21.501 -24z" />
    <glyph glyph-name="Eacute" unicode="&#xc9;" horiz-adv-x="588" 
d="M504 0h-502l5 37h76l75 616h-76l5 37h484l-27 -220h-38l4 35c7.33301 52 0 89.667 -22 113s-62 35 -120 35h-68l-35 -283h124l9 74h42l-24 -195h-42l10 84h-124l-36 -296h107c49.333 0 86.5 11.833 111.5 35.5s41.167 64.5 48.5 122.5l3 29h38zM341 740l-37 -0.000976562
l83 108c7.33301 10.667 16 18.334 26 23.001s22.333 7 37 7h110c16.667 0 25 -4 25 -12s-7.33301 -16 -22 -24z" />
    <glyph glyph-name="Ecircumflex" unicode="&#xca;" horiz-adv-x="588" 
d="M504 0h-502l5 37h76l75 616h-76l5 37h484l-27 -220h-38l4 35c7.33301 52 0 89.667 -22 113s-62 35 -120 35h-68l-35 -283h124l9 74h42l-24 -195h-42l10 84h-124l-36 -296h107c49.333 0 86.5 11.833 111.5 35.5s41.167 64.5 48.5 122.5l3 29h38zM219 741h-35l163 176h43
l113 -176h-29l-118 74z" />
    <glyph glyph-name="Edieresis" unicode="&#xcb;" horiz-adv-x="588" 
d="M328 830c-0.666992 -21.333 -9.16602 -40.002 -25.499 -56.002s-36.833 -24 -61.5 -24c-22.667 0 -40.167 6.83301 -52.5 20.5s-18.166 31.5 -17.499 53.5c1.33301 22.667 10.166 41.834 26.499 57.501s37.166 23.5 62.499 23.5c22 0 39.167 -7.16699 51.5 -21.5
s17.833 -32.166 16.5 -53.499zM541.001 829.998c-0.666992 -21.333 -9.16602 -40.002 -25.499 -56.002s-37.166 -24 -62.499 -24c-22.667 0 -40 6.83301 -52 20.5s-17.667 31.5 -17 53.5c1.33301 22.667 10.166 41.834 26.499 57.501s37.166 23.5 62.499 23.5
c22 0 39.167 -7.16699 51.5 -21.5s17.833 -32.166 16.5 -53.499zM504.002 -0.00390625h-502l5 37h76l75 616h-76l5 37h484l-27 -220h-38l4 35c7.33301 52 0 89.667 -22 113s-62 35 -120 35h-68l-35 -283h124l9 74h42l-24 -195h-42l10 84h-124l-36 -296h107
c49.333 0 86.5 11.833 111.5 35.5s41.167 64.5 48.5 122.5l3 29h38z" />
    <glyph glyph-name="Igrave" unicode="&#xcc;" horiz-adv-x="371" 
d="M302 0h-300l5 37h79l75 616h-79l5 37h299l-4 -37h-79l-75 -616h78zM295 741l-38.002 -0.000976562l-209 102c-12 6.66699 -17.167 14.334 -15.5 23.001s10.167 13 25.5 13h120c12.667 0 22.834 -2.33301 30.501 -7s14.834 -12.667 21.501 -24z" />
    <glyph glyph-name="Iacute" unicode="&#xcd;" horiz-adv-x="371" 
d="M302 0h-300l5 37h79l75 616h-79l5 37h299l-4 -37h-79l-75 -616h78zM256 740l-37 -0.000976562l83 108c7.33301 10.667 16 18.334 26 23.001s22.333 7 37 7h110c16.667 0 25 -4 25 -12s-7.33301 -16 -22 -24z" />
    <glyph glyph-name="Icircumflex" unicode="&#xce;" horiz-adv-x="371" 
d="M302 0h-300l5 37h79l75 616h-79l5 37h299l-4 -37h-79l-75 -616h78zM125 741h-35l163 176h43l113 -176h-29l-118 74z" />
    <glyph glyph-name="Idieresis" unicode="&#xcf;" horiz-adv-x="371" 
d="M302 0h-300l5 37h79l75 616h-79l5 37h299l-4 -37h-79l-75 -616h78zM232 829c-0.666992 -21.333 -9.16602 -40.002 -25.499 -56.002s-36.833 -24 -61.5 -24c-22.667 0 -40.167 6.83301 -52.5 20.5s-18.166 31.5 -17.499 53.5c1.33301 22.667 10.166 41.834 26.499 57.501
s37.166 23.5 62.499 23.5c22 0 39.167 -7.16699 51.5 -21.5s17.833 -32.166 16.5 -53.499zM445.001 828.998c-0.666992 -21.333 -9.16602 -40.002 -25.499 -56.002s-37.166 -24 -62.499 -24c-22.667 0 -40 6.83301 -52 20.5s-17.667 31.5 -17 53.5
c1.33301 22.667 10.166 41.834 26.499 57.501s37.166 23.5 62.499 23.5c22 0 39.167 -7.16699 51.5 -21.5s17.833 -32.166 16.5 -53.499z" />
    <glyph glyph-name="Ntilde" unicode="&#xd1;" horiz-adv-x="697" 
d="M218 0h-216l5 37h76l75 616h-76l5 37h196l253 -482l55 445h-93l5 37h216l-5 -37h-76l-80 -659h-70l-295 558l-63 -515h92zM500 755c-16 0 -30.998 3.00098 -44.998 9.00098s-31.667 18 -53 36c-15.333 13.333 -26.833 22 -34.5 26s-15.5 6 -23.5 6
c-16.667 0.666992 -29.334 -4.83301 -38.001 -16.5s-13.667 -29.167 -15 -52.5h-29c3.33301 46 14.166 81.167 32.499 105.5s43.5 36.5 75.5 36.5c17.333 0 33.166 -2.83301 47.499 -8.5s32.166 -17.167 53.499 -34.5c14.667 -12.667 26.167 -20.834 34.5 -24.501
s16.5 -5.5 24.5 -5.5c14.667 0 25.834 4.5 33.501 13.5s13.834 26.167 18.501 51.5h29c-6.66699 -50.667 -19 -87 -37 -109s-42.667 -33 -74 -33z" />
    <glyph glyph-name="Ograve" unicode="&#xd2;" horiz-adv-x="662" 
d="M639 346c-13.333 -102 -51.498 -187.5 -114.498 -256.5s-138.833 -103.5 -227.5 -103.5c-90 0 -158.167 34.5 -204.5 103.5s-63.166 154.5 -50.499 256.5c12.667 101.333 50.667 186.333 114 255s139.666 103 228.999 103s157.166 -34.333 203.499 -103
s63.166 -153.667 50.499 -255zM193.002 346c-13.333 -111.333 -11.498 -192.833 5.50195 -244.5s51.167 -77.5 102.5 -77.5c52 0 92.667 25.667 122 77s50.666 133 63.999 245c13.333 111.333 11.666 192.5 -5.00098 243.5s-50.667 76.5 -102 76.5
c-52 0 -92.667 -25.5 -122 -76.5s-51 -132.167 -65 -243.5zM424.004 741l-38.002 -0.000976562l-209 102c-12 6.66699 -17.167 14.334 -15.5 23.001s10.167 13 25.5 13h120c12.667 0 22.834 -2.33301 30.501 -7s14.834 -12.667 21.501 -24z" />
    <glyph glyph-name="Oacute" unicode="&#xd3;" horiz-adv-x="662" 
d="M639 346c-13.333 -102 -51.498 -187.5 -114.498 -256.5s-138.833 -103.5 -227.5 -103.5c-90 0 -158.167 34.5 -204.5 103.5s-63.166 154.5 -50.499 256.5c12.667 101.333 50.667 186.333 114 255s139.666 103 228.999 103s157.166 -34.333 203.499 -103
s63.166 -153.667 50.499 -255zM193.002 346c-13.333 -111.333 -11.498 -192.833 5.50195 -244.5s51.167 -77.5 102.5 -77.5c52 0 92.667 25.667 122 77s50.666 133 63.999 245c13.333 111.333 11.666 192.5 -5.00098 243.5s-50.667 76.5 -102 76.5
c-52 0 -92.667 -25.5 -122 -76.5s-51 -132.167 -65 -243.5zM376.004 740l-37 -0.000976562l83 108c7.33301 10.667 16 18.334 26 23.001s22.333 7 37 7h110c16.667 0 25 -4 25 -12s-7.33301 -16 -22 -24z" />
    <glyph glyph-name="Ocircumflex" unicode="&#xd4;" horiz-adv-x="662" 
d="M274 735h-35l163 176h43l113 -176h-29l-118 74zM639 346c-13.333 -102 -51.498 -187.5 -114.498 -256.5s-138.833 -103.5 -227.5 -103.5c-90 0 -158.167 34.5 -204.5 103.5s-63.166 154.5 -50.499 256.5c12.667 101.333 50.667 186.333 114 255s139.666 103 228.999 103
s157.166 -34.333 203.499 -103s63.166 -153.667 50.499 -255zM193.002 346c-13.333 -111.333 -11.498 -192.833 5.50195 -244.5s51.167 -77.5 102.5 -77.5c52 0 92.667 25.667 122 77s50.666 133 63.999 245c13.333 111.333 11.666 192.5 -5.00098 243.5
s-50.667 76.5 -102 76.5c-52 0 -92.667 -25.5 -122 -76.5s-51 -132.167 -65 -243.5z" />
    <glyph glyph-name="Otilde" unicode="&#xd5;" horiz-adv-x="662" 
d="M639 346c-13.333 -102 -51.498 -187.5 -114.498 -256.5s-138.833 -103.5 -227.5 -103.5c-90 0 -158.167 34.5 -204.5 103.5s-63.166 154.5 -50.499 256.5c12.667 101.333 50.667 186.333 114 255s139.666 103 228.999 103s157.166 -34.333 203.499 -103
s63.166 -153.667 50.499 -255zM193.002 346c-13.333 -111.333 -11.498 -192.833 5.50195 -244.5s51.167 -77.5 102.5 -77.5c52 0 92.667 25.667 122 77s50.666 133 63.999 245c13.333 111.333 11.666 192.5 -5.00098 243.5s-50.667 76.5 -102 76.5
c-52 0 -92.667 -25.5 -122 -76.5s-51 -132.167 -65 -243.5zM473.004 754c-16 0 -30.998 3.00098 -44.998 9.00098s-31.667 18 -53 36c-15.333 13.333 -26.833 22 -34.5 26s-15.5 6 -23.5 6c-16.667 0.666992 -29.334 -4.83301 -38.001 -16.5s-13.667 -29.167 -15 -52.5h-29
c3.33301 46 14.166 81.167 32.499 105.5s43.5 36.5 75.5 36.5c17.333 0 33.166 -2.83301 47.499 -8.5s32.166 -17.167 53.499 -34.5c14.667 -12.667 26.167 -20.834 34.5 -24.501s16.5 -5.5 24.5 -5.5c14.667 0 25.834 4.5 33.501 13.5s13.834 26.167 18.501 51.5h29
c-6.66699 -50.667 -19 -87 -37 -109s-42.667 -33 -74 -33z" />
    <glyph glyph-name="Odieresis" unicode="&#xd6;" horiz-adv-x="662" 
d="M639 346c-13.333 -102 -51.498 -187.5 -114.498 -256.5s-138.833 -103.5 -227.5 -103.5c-90 0 -158.167 34.5 -204.5 103.5s-63.166 154.5 -50.499 256.5c12.667 101.333 50.667 186.333 114 255s139.666 103 228.999 103s157.166 -34.333 203.499 -103
s63.166 -153.667 50.499 -255zM193.002 346c-13.333 -111.333 -11.498 -192.833 5.50195 -244.5s51.167 -77.5 102.5 -77.5c52 0 92.667 25.667 122 77s50.666 133 63.999 245c13.333 111.333 11.666 192.5 -5.00098 243.5s-50.667 76.5 -102 76.5
c-52 0 -92.667 -25.5 -122 -76.5s-51 -132.167 -65 -243.5zM373.004 830c-0.666992 -21.333 -9.16602 -40.002 -25.499 -56.002s-36.833 -24 -61.5 -24c-22.667 0 -40.167 6.83301 -52.5 20.5s-18.166 31.5 -17.499 53.5c1.33301 22.667 10.166 41.834 26.499 57.501
s37.166 23.5 62.499 23.5c22 0 39.167 -7.16699 51.5 -21.5s17.833 -32.166 16.5 -53.499zM586.005 829.998c-0.666992 -21.333 -9.16602 -40.002 -25.499 -56.002s-37.166 -24 -62.499 -24c-22.667 0 -40 6.83301 -52 20.5s-17.667 31.5 -17 53.5
c1.33301 22.667 10.166 41.834 26.499 57.501s37.166 23.5 62.499 23.5c22 0 39.167 -7.16699 51.5 -21.5s17.833 -32.166 16.5 -53.499z" />
    <glyph glyph-name="multiply" unicode="&#xd7;" horiz-adv-x="446" 
d="M388 172l-41 -35l-125 151l-153 -151l-36 32l157 156l-121 145l40 35l119 -142l146 145l37 -33l-151 -149z" />
    <glyph glyph-name="Oslash" unicode="&#xd8;" horiz-adv-x="663" 
d="M379 666c-52 0 -92.5 -25.333 -121.5 -76s-50.5 -132 -64.5 -244c-4.66699 -35.333 -7.5 -67.5 -8.5 -96.5s-0.5 -55.167 1.5 -78.5l299 407c-8 30 -20.5 52.167 -37.5 66.5s-39.833 21.5 -68.5 21.5zM301 24c51.333 0 91.668 25.668 121.001 77.001
s50.666 133 63.999 245c4 33.333 6.66699 64.166 8 92.499s1.33301 54.5 0 78.5l-298 -407c8.66699 -29.333 21.5 -51 38.5 -65s39.167 -21 66.5 -21zM638.002 346.001c-12.667 -102 -50.499 -187.499 -113.499 -256.499s-139.167 -103.5 -228.5 -103.5
c-30 0 -58 4.16699 -84 12.5s-49.333 20.833 -70 37.5l-63 -85h-55l86 116c-28.667 33.333 -49 74.5 -61 123.5s-14.667 100.833 -8 155.5c13.333 101.333 51.5 186.333 114.5 255s139.167 103 228.5 103c30.667 0 59.167 -4.33301 85.5 -13s49.833 -21.334 70.5 -38.001
l68 92h54l-90 -123c28 -33.333 47.667 -74.333 59 -123s13.666 -99.667 6.99902 -153z" />
    <glyph glyph-name="Ugrave" unicode="&#xd9;" horiz-adv-x="650" 
d="M305 -14c-84 0 -143.335 20.5 -178.002 61.5s-46.667 105.167 -36 192.5l50 413h-75l5 37h307l-5 -37h-90l-53 -435c-8.66699 -66.667 -4 -115.167 14 -145.5s49.667 -45.5 95 -45.5c47.333 0 84 15.667 110 47s43.333 82 52 152l53 427h-90l5 37h213l-5 -37h-76
l-51 -417c-11.333 -89.333 -36.166 -153.333 -74.499 -192s-95.166 -58 -170.499 -58zM457.998 741l-38.002 -0.000976562l-209 102c-12 6.66699 -17.167 14.334 -15.5 23.001s10.167 13 25.5 13h120c12.667 0 22.834 -2.33301 30.501 -7s14.834 -12.667 21.501 -24z" />
    <glyph glyph-name="Uacute" unicode="&#xda;" horiz-adv-x="650" 
d="M434 740l-37 -0.000976562l83 108c7.33301 10.667 16 18.334 26 23.001s22.333 7 37 7h110c16.667 0 25 -4 25 -12s-7.33301 -16 -22 -24zM305 -14.001c-84 0 -143.335 20.5 -178.002 61.5s-46.667 105.167 -36 192.5l50 413h-75l5 37h307l-5 -37h-90l-53 -435
c-8.66699 -66.667 -4 -115.167 14 -145.5s49.667 -45.5 95 -45.5c47.333 0 84 15.667 110 47s43.333 82 52 152l53 427h-90l5 37h213l-5 -37h-76l-51 -417c-11.333 -89.333 -36.166 -153.333 -74.499 -192s-95.166 -58 -170.499 -58z" />
    <glyph glyph-name="Ucircumflex" unicode="&#xdb;" horiz-adv-x="650" 
d="M305 -14c-84 0 -143.335 20.5 -178.002 61.5s-46.667 105.167 -36 192.5l50 413h-75l5 37h307l-5 -37h-90l-53 -435c-8.66699 -66.667 -4 -115.167 14 -145.5s49.667 -45.5 95 -45.5c47.333 0 84 15.667 110 47s43.333 82 52 152l53 427h-90l5 37h213l-5 -37h-76
l-51 -417c-11.333 -89.333 -36.166 -153.333 -74.499 -192s-95.166 -58 -170.499 -58zM284.998 741h-35l163 176h43l113 -176h-29l-118 74z" />
    <glyph glyph-name="Udieresis" unicode="&#xdc;" horiz-adv-x="650" 
d="M305 -14c-84 0 -143.335 20.5 -178.002 61.5s-46.667 105.167 -36 192.5l50 413h-75l5 37h307l-5 -37h-90l-53 -435c-8.66699 -66.667 -4 -115.167 14 -145.5s49.667 -45.5 95 -45.5c47.333 0 84 15.667 110 47s43.333 82 52 152l53 427h-90l5 37h213l-5 -37h-76
l-51 -417c-11.333 -89.333 -36.166 -153.333 -74.499 -192s-95.166 -58 -170.499 -58zM390.998 829c-0.666992 -21.333 -9.16602 -40.002 -25.499 -56.002s-36.833 -24 -61.5 -24c-22.667 0 -40.167 6.83301 -52.5 20.5s-18.166 31.5 -17.499 53.5
c1.33301 22.667 10.166 41.834 26.499 57.501s37.166 23.5 62.499 23.5c22 0 39.167 -7.16699 51.5 -21.5s17.833 -32.166 16.5 -53.499zM603.999 828.998c-0.666992 -21.333 -9.16602 -40.002 -25.499 -56.002s-37.166 -24 -62.499 -24c-22.667 0 -40 6.83301 -52 20.5
s-17.667 31.5 -17 53.5c1.33301 22.667 10.166 41.834 26.499 57.501s37.166 23.5 62.499 23.5c22 0 39.167 -7.16699 51.5 -21.5s17.833 -32.166 16.5 -53.499z" />
    <glyph glyph-name="Yacute" unicode="&#xdd;" horiz-adv-x="595" 
d="M425 740l-37 -0.000976562l83 108c7.33301 10.667 16 18.334 26 23.001s22.333 7 37 7h110c16.667 0 25 -4 25 -12s-7.33301 -16 -22 -24zM432 -0.000976562h-307l5 37h82l33 272l-137 344h-67l5 37h319l-5 -37h-97l109 -275l171 275h-85l5 37h202l-5 -37h-68l-202 -323
l-36 -293h83z" />
    <glyph glyph-name="germandbls" unicode="&#xdf;" horiz-adv-x="648" 
d="M604 161c-6.66699 -52 -31.1738 -94.1631 -73.5068 -126.496s-94.833 -48.5 -157.5 -48.5c-24.667 0 -45.667 1.5 -63 4.5s-31 7.5 -41 13.5l10 36c18.667 -7.33301 31.334 -11.5 38.001 -12.5s14 -1.5 22 -1.5c32.667 0 58.834 10.5 78.501 31.5
s31.834 51.167 36.501 90.5c3.33301 27.333 1.33301 51.5 -6 72.5s-24.666 45.167 -51.999 72.5c-23.333 22 -37.833 40.5 -43.5 55.5s-7.5 31.833 -5.5 50.5c1.33301 12 4.83301 23.667 10.5 35s17.167 27.333 34.5 48c23.333 28 39.666 52.333 48.999 73s16 43.667 20 69
c5.33301 34 2.66602 59.833 -8.00098 77.5s-29 26.5 -55 26.5c-33.333 0 -58.666 -13.667 -75.999 -41s-30.666 -77 -39.999 -149l-67 -538h-136c3.33301 29.333 11.5 97.166 24.5 203.499s23.833 192.833 32.5 259.5h-92l4 37h93
c11.333 89.333 39.166 155.666 83.499 198.999s106.833 65 187.5 65c62.667 0 111.834 -13.167 147.501 -39.5s50.834 -59.833 45.501 -100.5c-3.33301 -26.667 -13.833 -51 -31.5 -73s-50.167 -47.667 -97.5 -77c-31.333 -19.333 -51.666 -34 -60.999 -44
s-14.666 -20.333 -15.999 -31c-1.33301 -11.333 2.66699 -21.833 12 -31.5s31 -22.834 65 -39.501c56 -28.667 92.333 -55.334 109 -80.001s23 -53.667 19 -87z" />
    <glyph glyph-name="agrave" unicode="&#xe0;" horiz-adv-x="628" 
d="M177 263c-7.33301 -69.333 -5.5 -121.332 5.5 -155.999s31.5 -52 61.5 -52c33.333 0 61 16.833 83 50.5s37 81.5 45 143.5c2 13.333 3.5 24.166 4.5 32.499s1.5 13.5 1.5 15.5c6 60 2.66699 105 -10 135s-35 45.333 -67 46c-33.333 0.666992 -60.333 -17 -81 -53
s-35 -90 -43 -162zM196 -13.999c-58 0 -101.832 24.501 -131.499 73.501s-40.167 114.167 -31.5 195.5c9.33301 76.667 37.833 139.5 85.5 188.5s106.5 73.5 176.5 73.5c32 0 60 -7.66699 84 -23s43 -37.333 57 -66l66 89h39l-51 -417c-2.66699 -20.667 -2 -36.167 2 -46.5
s11.333 -15.5 22 -15.5c14 0 25.167 9.16699 33.5 27.5s14.833 47.166 19.5 86.499h39c-9.33301 -64.667 -23.833 -108.334 -43.5 -131.001s-49.5 -34 -89.5 -34c-35.333 0 -61 10.333 -77 31s-22.667 52.334 -20 95.001l5 42c-16.667 -54.667 -40.834 -96.5 -72.501 -125.5
s-69.167 -43.5 -112.5 -43.5zM392.001 589.002h-38l-200 123c-12.667 7.33301 -17.5 15.333 -14.5 24s12.167 13 27.5 13h120c13.333 0 23.833 -2.5 31.5 -7.5s13.5 -13.167 17.5 -24.5z" />
    <glyph glyph-name="aacute" unicode="&#xe1;" horiz-adv-x="628" 
d="M177 263c-7.33301 -69.333 -5.5 -121.332 5.5 -155.999s31.5 -52 61.5 -52c33.333 0 61 16.833 83 50.5s37 81.5 45 143.5c2 13.333 3.5 24.166 4.5 32.499s1.5 13.5 1.5 15.5c6 60 2.66699 105 -10 135s-35 45.333 -67 46c-33.333 0.666992 -60.333 -17 -81 -53
s-35 -90 -43 -162zM196 -13.999c-58 0 -101.832 24.501 -131.499 73.501s-40.167 114.167 -31.5 195.5c9.33301 76.667 37.833 139.5 85.5 188.5s106.5 73.5 176.5 73.5c32 0 60 -7.66699 84 -23s43 -37.333 57 -66l66 89h39l-51 -417c-2.66699 -20.667 -2 -36.167 2 -46.5
s11.333 -15.5 22 -15.5c14 0 25.167 9.16699 33.5 27.5s14.833 47.166 19.5 86.499h39c-9.33301 -64.667 -23.833 -108.334 -43.5 -131.001s-49.5 -34 -89.5 -34c-35.333 0 -61 10.333 -77 31s-22.667 52.334 -20 95.001l5 42c-16.667 -54.667 -40.834 -96.5 -72.501 -125.5
s-69.167 -43.5 -112.5 -43.5zM352.001 590.002l-37 -0.000976562l96 128c7.33301 10.667 16 18.334 26 23.001s22.333 7 37 7h104c16.667 0 25 -4 25 -12s-7.66699 -16 -23 -24z" />
    <glyph glyph-name="acircumflex" unicode="&#xe2;" horiz-adv-x="628" 
d="M177 263c-7.33301 -69.333 -5.5 -121.332 5.5 -155.999s31.5 -52 61.5 -52c33.333 0 61 16.833 83 50.5s37 81.5 45 143.5c2 13.333 3.5 24.166 4.5 32.499s1.5 13.5 1.5 15.5c6 60 2.66699 105 -10 135s-35 45.333 -67 46c-33.333 0.666992 -60.333 -17 -81 -53
s-35 -90 -43 -162zM196 -13.999c-58 0 -101.832 24.501 -131.499 73.501s-40.167 114.167 -31.5 195.5c9.33301 76.667 37.833 139.5 85.5 188.5s106.5 73.5 176.5 73.5c32 0 60 -7.66699 84 -23s43 -37.333 57 -66l66 89h39l-51 -417c-2.66699 -20.667 -2 -36.167 2 -46.5
s11.333 -15.5 22 -15.5c14 0 25.167 9.16699 33.5 27.5s14.833 47.166 19.5 86.499h39c-9.33301 -64.667 -23.833 -108.334 -43.5 -131.001s-49.5 -34 -89.5 -34c-35.333 0 -61 10.333 -77 31s-22.667 52.334 -20 95.001l5 42c-16.667 -54.667 -40.834 -96.5 -72.501 -125.5
s-69.167 -43.5 -112.5 -43.5zM210.001 581.002h-35l163 176h43l113 -176h-29l-118 74z" />
    <glyph glyph-name="atilde" unicode="&#xe3;" horiz-adv-x="628" 
d="M177 263c-7.33301 -69.333 -5.5 -121.332 5.5 -155.999s31.5 -52 61.5 -52c33.333 0 61 16.833 83 50.5s37 81.5 45 143.5c2 13.333 3.5 24.166 4.5 32.499s1.5 13.5 1.5 15.5c6 60 2.66699 105 -10 135s-35 45.333 -67 46c-33.333 0.666992 -60.333 -17 -81 -53
s-35 -90 -43 -162zM196 -13.999c-58 0 -101.832 24.501 -131.499 73.501s-40.167 114.167 -31.5 195.5c9.33301 76.667 37.833 139.5 85.5 188.5s106.5 73.5 176.5 73.5c32 0 60 -7.66699 84 -23s43 -37.333 57 -66l66 89h39l-51 -417c-2.66699 -20.667 -2 -36.167 2 -46.5
s11.333 -15.5 22 -15.5c14 0 25.167 9.16699 33.5 27.5s14.833 47.166 19.5 86.499h39c-9.33301 -64.667 -23.833 -108.334 -43.5 -131.001s-49.5 -34 -89.5 -34c-35.333 0 -61 10.333 -77 31s-22.667 52.334 -20 95.001l5 42c-16.667 -54.667 -40.834 -96.5 -72.501 -125.5
s-69.167 -43.5 -112.5 -43.5zM414.001 618.002c-16 0 -30.998 3.00098 -44.998 9.00098s-31.667 18 -53 36c-15.333 13.333 -26.833 22 -34.5 26s-15.5 6 -23.5 6c-16.667 0.666992 -29.334 -4.83301 -38.001 -16.5s-13.667 -29.167 -15 -52.5h-29
c3.33301 46 14.166 81.167 32.499 105.5s43.5 36.5 75.5 36.5c17.333 0 33.166 -2.83301 47.499 -8.5s32.166 -17.167 53.499 -34.5c14.667 -12.667 26.167 -20.834 34.5 -24.501s16.5 -5.5 24.5 -5.5c14.667 0 25.834 4.5 33.501 13.5s13.834 26.167 18.501 51.5h29
c-6.66699 -50.667 -19 -87 -37 -109s-42.667 -33 -74 -33z" />
    <glyph glyph-name="adieresis" unicode="&#xe4;" horiz-adv-x="628" 
d="M177 263c-7.33301 -69.333 -5.5 -121.332 5.5 -155.999s31.5 -52 61.5 -52c33.333 0 61 16.833 83 50.5s37 81.5 45 143.5c2 13.333 3.5 24.166 4.5 32.499s1.5 13.5 1.5 15.5c6 60 2.66699 105 -10 135s-35 45.333 -67 46c-33.333 0.666992 -60.333 -17 -81 -53
s-35 -90 -43 -162zM196 -13.999c-58 0 -101.832 24.501 -131.499 73.501s-40.167 114.167 -31.5 195.5c9.33301 76.667 37.833 139.5 85.5 188.5s106.5 73.5 176.5 73.5c32 0 60 -7.66699 84 -23s43 -37.333 57 -66l66 89h39l-51 -417c-2.66699 -20.667 -2 -36.167 2 -46.5
s11.333 -15.5 22 -15.5c14 0 25.167 9.16699 33.5 27.5s14.833 47.166 19.5 86.499h39c-9.33301 -64.667 -23.833 -108.334 -43.5 -131.001s-49.5 -34 -89.5 -34c-35.333 0 -61 10.333 -77 31s-22.667 52.334 -20 95.001l5 42c-16.667 -54.667 -40.834 -96.5 -72.501 -125.5
s-69.167 -43.5 -112.5 -43.5zM322.001 675.002c-0.666992 -21.333 -9.16602 -40.002 -25.499 -56.002s-36.833 -24 -61.5 -24c-22.667 0 -40.167 6.83301 -52.5 20.5s-18.166 31.5 -17.499 53.5c1.33301 22.667 10.166 41.834 26.499 57.501s37.166 23.5 62.499 23.5
c22 0 39.167 -7.16699 51.5 -21.5s17.833 -32.166 16.5 -53.499zM535.002 675c-0.666992 -21.333 -9.16602 -40.002 -25.499 -56.002s-37.166 -24 -62.499 -24c-22.667 0 -40 6.83301 -52 20.5s-17.667 31.5 -17 53.5c1.33301 22.667 10.166 41.834 26.499 57.501
s37.166 23.5 62.499 23.5c22 0 39.167 -7.16699 51.5 -21.5s17.833 -32.166 16.5 -53.499z" />
    <glyph glyph-name="aring" unicode="&#xe5;" horiz-adv-x="628" 
d="M177 263c-7.33301 -69.333 -5.5 -121.332 5.5 -155.999s31.5 -52 61.5 -52c33.333 0 61 16.833 83 50.5s37 81.5 45 143.5c2 13.333 3.5 24.166 4.5 32.499s1.5 13.5 1.5 15.5c6 60 2.66699 105 -10 135s-35 45.333 -67 46c-33.333 0.666992 -60.333 -17 -81 -53
s-35 -90 -43 -162zM196 -13.999c-58 0 -101.832 24.501 -131.499 73.501s-40.167 114.167 -31.5 195.5c9.33301 76.667 37.833 139.5 85.5 188.5s106.5 73.5 176.5 73.5c32 0 60 -7.66699 84 -23s43 -37.333 57 -66l66 89h39l-51 -417c-2.66699 -20.667 -2 -36.167 2 -46.5
s11.333 -15.5 22 -15.5c14 0 25.167 9.16699 33.5 27.5s14.833 47.166 19.5 86.499h39c-9.33301 -64.667 -23.833 -108.334 -43.5 -131.001s-49.5 -34 -89.5 -34c-35.333 0 -61 10.333 -77 31s-22.667 52.334 -20 95.001l5 42c-16.667 -54.667 -40.834 -96.5 -72.501 -125.5
s-69.167 -43.5 -112.5 -43.5zM452.001 677.002c-4 -25.333 -14.832 -45.832 -32.499 -61.499s-40.167 -23.5 -67.5 -23.5c-29.333 0 -51 8 -65 24s-19.667 37 -17 63c3.33301 25.333 14.166 46.166 32.499 62.499s41.833 24.5 70.5 24.5s50 -8.5 64 -25.5
s19 -38.167 15 -63.5zM320.002 679.003c-1.33301 -12.667 1.16797 -22.999 7.50098 -30.999s16.166 -12 29.499 -12c12.667 0 23 3.66699 31 11s13 17.333 15 30c2 13.333 0 24.166 -6 32.499s-16 12.5 -30 12.5s-25 -3.66699 -33 -11s-12.667 -18 -14 -32z" />
    <glyph glyph-name="ae" unicode="&#xe6;" horiz-adv-x="865" 
d="M197 -14c-58 0 -101.83 24.499 -131.497 73.499s-39.834 114.167 -30.501 195.5c9.33301 77.333 37.666 140.333 84.999 189s106 73 176 73c31.333 0 58.166 -8.16699 80.499 -24.5s37.833 -38.833 46.5 -67.5l54 92h32l-11 -87c20 29.333 44.5 51.166 73.5 65.499
s62.833 21.5 101.5 21.5c48 0 87.167 -12.5 117.5 -37.5s44.833 -56.833 43.5 -95.5c-1.33301 -52 -28.333 -92.167 -81 -120.5s-126.667 -43.166 -222 -44.499c-4 -63.333 2.33301 -110.333 19 -141s44.334 -46 83.001 -46c34 0 62.167 10 84.5 30s40.166 52 53.499 96
l39 -6c-14.667 -55.333 -39.5 -96.833 -74.5 -124.5s-80.167 -41.5 -135.5 -41.5c-56 0 -102.333 17.333 -139 52s-58 81.334 -64 140.001l-5 1c-13.333 -62 -36.833 -109.667 -70.5 -143s-75.167 -50 -124.5 -50zM649.003 478.999c-29.333 0 -54 -19 -74 -57
s-33.667 -92.667 -41 -164c55.333 2.66699 96.833 16.167 124.5 40.5s42.167 59.833 43.5 106.5c1.33301 23.333 -2.66699 41.5 -12 54.5s-23 19.5 -41 19.5zM178.003 262.999c-7.33301 -70 -5.33301 -122.168 6 -156.501s32 -51.5 62 -51.5c32.667 0 60 16.833 82 50.5
s37 81.5 45 143.5c0.666992 2 1.66699 8.83301 3 20.5s2 18.167 2 19.5c7.33301 62 4.83301 108.833 -7.5 140.5s-34.833 47.834 -67.5 48.501c-33.333 0.666992 -60.5 -17 -81.5 -53s-35.5 -90 -43.5 -162z" />
    <glyph glyph-name="ccedilla" unicode="&#xe7;" horiz-adv-x="493" 
d="M248 -14c-72.667 0 -128.665 24.666 -167.998 73.999s-54.666 113 -45.999 191c9.33301 80 39.333 144.333 90 193s112 73 184 73c50 0 89.5 -11.5 118.5 -34.5s42.5 -54.5 40.5 -94.5c-2 -23.333 -10.167 -42 -24.5 -56s-33.5 -21 -57.5 -21c-22.667 0 -40 6 -52 18
s-17.333 28.333 -16 49c0.666992 20.667 7 38 19 52s27.667 23 47 27c-8.66699 8 -18.5 14 -29.5 18s-23.167 6 -36.5 6c-38.667 0 -69.834 -19 -93.501 -57s-39.834 -94.333 -48.501 -169c-8 -71.333 -3.33301 -126.333 14 -165s46.666 -58 87.999 -58
c31.333 0 58.833 11.333 82.5 34s40.167 53.334 49.5 92.001l39 -6c-14.667 -54 -39 -95.167 -73 -123.5s-76.333 -42.5 -127 -42.5zM324.002 -134.001c-2.66699 -23.333 -15.332 -41.833 -37.999 -55.5s-52 -20.5 -88 -20.5c-28 0 -52 3.5 -72 10.5s-35 17.167 -45 30.5
l19 25c5.33301 -8 13.833 -14.167 25.5 -18.5s24.5 -6.5 38.5 -6.5c17.333 0 30.333 3.16699 39 9.5s14 15.833 16 28.5c2 16 -2.33301 27.833 -13 35.5s-29 11.5 -55 11.5l-5 15l66 76h47l-52 -56c36 0 65.167 -7.66699 87.5 -23s32.166 -36 29.499 -62z" />
    <glyph glyph-name="egrave" unicode="&#xe8;" horiz-adv-x="506" 
d="M241 -14c-70 0 -124.17 24.667 -162.503 74s-53.166 113 -44.499 191c9.33301 80 39 144.333 89 193s110.333 73 181 73c52 0 93.833 -12.333 125.5 -37s46.834 -56.667 45.501 -96c-1.33301 -52 -28.333 -92.167 -81 -120.5s-126.667 -43.166 -222 -44.499
c-4 -63.333 2.33301 -110.333 19 -141s44.334 -46 83.001 -46c34.667 0 63.167 10.167 85.5 30.5s39.833 52.166 52.5 95.499l39 -6c-14.667 -55.333 -39.5 -96.833 -74.5 -124.5s-80.167 -41.5 -135.5 -41.5zM289.997 479c-29.333 0 -54.001 -19 -74.001 -57
s-33.667 -92.667 -41 -164c54.667 2.66699 96 16.167 124 40.5s43 59.833 45 106.5c0.666992 23.333 -3.66602 41.5 -12.999 54.5s-23 19.5 -41 19.5zM325.996 589h-38l-200 123c-12.667 7.33301 -17.5 15.333 -14.5 24s12.167 13 27.5 13h120
c13.333 0 23.833 -2.5 31.5 -7.5s13.5 -13.167 17.5 -24.5z" />
    <glyph glyph-name="eacute" unicode="&#xe9;" horiz-adv-x="506" 
d="M241 -14c-70 0 -124.17 24.667 -162.503 74s-53.166 113 -44.499 191c9.33301 80 39 144.333 89 193s110.333 73 181 73c52 0 93.833 -12.333 125.5 -37s46.834 -56.667 45.501 -96c-1.33301 -52 -28.333 -92.167 -81 -120.5s-126.667 -43.166 -222 -44.499
c-4 -63.333 2.33301 -110.333 19 -141s44.334 -46 83.001 -46c34.667 0 63.167 10.167 85.5 30.5s39.833 52.166 52.5 95.499l39 -6c-14.667 -55.333 -39.5 -96.833 -74.5 -124.5s-80.167 -41.5 -135.5 -41.5zM289.997 479c-29.333 0 -54.001 -19 -74.001 -57
s-33.667 -92.667 -41 -164c54.667 2.66699 96 16.167 124 40.5s43 59.833 45 106.5c0.666992 23.333 -3.66602 41.5 -12.999 54.5s-23 19.5 -41 19.5zM305.996 590l-37 -0.000976562l96 128c7.33301 10.667 16 18.334 26 23.001s22.333 7 37 7h104c16.667 0 25 -4 25 -12
s-7.66699 -16 -23 -24z" />
    <glyph glyph-name="ecircumflex" unicode="&#xea;" horiz-adv-x="506" 
d="M241 -14c-70 0 -124.17 24.667 -162.503 74s-53.166 113 -44.499 191c9.33301 80 39 144.333 89 193s110.333 73 181 73c52 0 93.833 -12.333 125.5 -37s46.834 -56.667 45.501 -96c-1.33301 -52 -28.333 -92.167 -81 -120.5s-126.667 -43.166 -222 -44.499
c-4 -63.333 2.33301 -110.333 19 -141s44.334 -46 83.001 -46c34.667 0 63.167 10.167 85.5 30.5s39.833 52.166 52.5 95.499l39 -6c-14.667 -55.333 -39.5 -96.833 -74.5 -124.5s-80.167 -41.5 -135.5 -41.5zM289.997 479c-29.333 0 -54.001 -19 -74.001 -57
s-33.667 -92.667 -41 -164c54.667 2.66699 96 16.167 124 40.5s43 59.833 45 106.5c0.666992 23.333 -3.66602 41.5 -12.999 54.5s-23 19.5 -41 19.5zM186.996 581h-35l163 176h43l113 -176h-29l-118 74z" />
    <glyph glyph-name="edieresis" unicode="&#xeb;" horiz-adv-x="506" 
d="M241 -14c-70 0 -124.17 24.667 -162.503 74s-53.166 113 -44.499 191c9.33301 80 39 144.333 89 193s110.333 73 181 73c52 0 93.833 -12.333 125.5 -37s46.834 -56.667 45.501 -96c-1.33301 -52 -28.333 -92.167 -81 -120.5s-126.667 -43.166 -222 -44.499
c-4 -63.333 2.33301 -110.333 19 -141s44.334 -46 83.001 -46c34.667 0 63.167 10.167 85.5 30.5s39.833 52.166 52.5 95.499l39 -6c-14.667 -55.333 -39.5 -96.833 -74.5 -124.5s-80.167 -41.5 -135.5 -41.5zM289.997 479c-29.333 0 -54.001 -19 -74.001 -57
s-33.667 -92.667 -41 -164c54.667 2.66699 96 16.167 124 40.5s43 59.833 45 106.5c0.666992 23.333 -3.66602 41.5 -12.999 54.5s-23 19.5 -41 19.5zM284.996 670c-0.666992 -21.333 -9.16602 -40.002 -25.499 -56.002s-36.833 -24 -61.5 -24
c-22.667 0 -40.167 6.83301 -52.5 20.5s-18.166 31.5 -17.499 53.5c1.33301 22.667 10.166 41.834 26.499 57.501s37.166 23.5 62.499 23.5c22 0 39.167 -7.16699 51.5 -21.5s17.833 -32.166 16.5 -53.499zM497.997 669.998
c-0.666992 -21.333 -9.16602 -40.002 -25.499 -56.002s-37.166 -24 -62.499 -24c-22.667 0 -40 6.83301 -52 20.5s-17.667 31.5 -17 53.5c1.33301 22.667 10.166 41.834 26.499 57.501s37.166 23.5 62.499 23.5c22 0 39.167 -7.16699 51.5 -21.5
s17.833 -32.166 16.5 -53.499z" />
    <glyph glyph-name="igrave" unicode="&#xec;" horiz-adv-x="348" 
d="M189 -13c-43.333 0 -74.332 12.333 -92.999 37s-25 61.667 -19 111l40 331h-76l4 38c55.333 0 99.166 1 131.499 3s53.166 4.66699 62.499 8l20 -9l-49 -409c-2.66699 -20.667 -2.16699 -35.667 1.5 -45s10.834 -14 21.501 -14c14 0 25.5 9.33301 34.5 28
s15.833 47 20.5 85h38c-8.66699 -63.333 -23.5 -106.5 -44.5 -129.5s-51.833 -34.5 -92.5 -34.5zM255.001 589h-38l-200 123c-12.667 7.33301 -17.5 15.333 -14.5 24s12.167 13 27.5 13h120c13.333 0 23.833 -2.5 31.5 -7.5s13.5 -13.167 17.5 -24.5z" />
    <glyph glyph-name="iacute" unicode="&#xed;" horiz-adv-x="348" 
d="M189 -13c-43.333 0 -74.332 12.333 -92.999 37s-25 61.667 -19 111l40 331h-76l4 38c55.333 0 99.166 1 131.499 3s53.166 4.66699 62.499 8l20 -9l-49 -409c-2.66699 -20.667 -2.16699 -35.667 1.5 -45s10.834 -14 21.501 -14c14 0 25.5 9.33301 34.5 28
s15.833 47 20.5 85h38c-8.66699 -63.333 -23.5 -106.5 -44.5 -129.5s-51.833 -34.5 -92.5 -34.5zM192.001 590l-37 -0.000976562l96 128c7.33301 10.667 16 18.334 26 23.001s22.333 7 37 7h104c16.667 0 25 -4 25 -12s-7.66699 -16 -23 -24z" />
    <glyph glyph-name="icircumflex" unicode="&#xee;" horiz-adv-x="348" 
d="M189 -13c-43.333 0 -74.332 12.333 -92.999 37s-25 61.667 -19 111l40 331h-76l4 38c55.333 0 99.166 1 131.499 3s53.166 4.66699 62.499 8l20 -9l-49 -409c-2.66699 -20.667 -2.16699 -35.667 1.5 -45s10.834 -14 21.501 -14c14 0 25.5 9.33301 34.5 28
s15.833 47 20.5 85h38c-8.66699 -63.333 -23.5 -106.5 -44.5 -129.5s-51.833 -34.5 -92.5 -34.5zM79.001 581h-35l163 176h43l113 -176h-29l-118 74z" />
    <glyph glyph-name="idieresis" unicode="&#xef;" horiz-adv-x="348" 
d="M189 -13c-43.333 0 -74.332 12.333 -92.999 37s-25 61.667 -19 111l40 331h-76l4 38c55.333 0 99.166 1 131.499 3s53.166 4.66699 62.499 8l20 -9l-49 -409c-2.66699 -20.667 -2.16699 -35.667 1.5 -45s10.834 -14 21.501 -14c14 0 25.5 9.33301 34.5 28
s15.833 47 20.5 85h38c-8.66699 -63.333 -23.5 -106.5 -44.5 -129.5s-51.833 -34.5 -92.5 -34.5zM183.001 675c-0.666992 -21.333 -9.16602 -40.002 -25.499 -56.002s-36.833 -24 -61.5 -24c-22.667 0 -40.167 6.83301 -52.5 20.5s-18.166 31.5 -17.499 53.5
c1.33301 22.667 10.166 41.834 26.499 57.501s37.166 23.5 62.499 23.5c22 0 39.167 -7.16699 51.5 -21.5s17.833 -32.166 16.5 -53.499zM396.002 674.998c-0.666992 -21.333 -9.16602 -40.002 -25.499 -56.002s-37.166 -24 -62.499 -24c-22.667 0 -40 6.83301 -52 20.5
s-17.667 31.5 -17 53.5c1.33301 22.667 10.166 41.834 26.499 57.501s37.166 23.5 62.499 23.5c22 0 39.167 -7.16699 51.5 -21.5s17.833 -32.166 16.5 -53.499z" />
    <glyph glyph-name="ntilde" unicode="&#xf1;" horiz-adv-x="632" 
d="M476 -13c-42 0 -72 12.332 -90 36.999s-24 61.667 -18 111l28 220c4 34 2 58.833 -6 74.5s-22.667 23.5 -44 23.5c-27.333 0 -51.333 -17.167 -72 -51.5s-34.667 -81.833 -42 -142.5l-32 -259h-136l57 466h-77l5 38c46 0 83.5 1 112.5 3s48.167 4.66699 57.5 8l21 -9
l-16 -128c16.667 44.667 40.334 79 71.001 103s67 36 109 36c48 0 82.667 -14.667 104 -44s28.666 -72.333 21.999 -129l-29 -244c-2.66699 -22 -2.16699 -37.833 1.5 -47.5s10.834 -14.5 21.501 -14.5c13.333 0 24.666 9.33301 33.999 28s16.333 47.334 21 86.001h38
c-10 -64 -25.5 -107.5 -46.5 -130.5s-52.5 -34.5 -94.5 -34.5zM432 617.999c-16 0 -30.998 3.00098 -44.998 9.00098s-31.667 18 -53 36c-15.333 13.333 -26.833 22 -34.5 26s-15.5 6 -23.5 6c-16.667 0.666992 -29.334 -4.83301 -38.001 -16.5s-13.667 -29.167 -15 -52.5
h-29c3.33301 46 14.166 81.167 32.499 105.5s43.5 36.5 75.5 36.5c17.333 0 33.166 -2.83301 47.499 -8.5s32.166 -17.167 53.499 -34.5c14.667 -12.667 26.167 -20.834 34.5 -24.501s16.5 -5.5 24.5 -5.5c14.667 0 25.834 4.5 33.501 13.5s13.834 26.167 18.501 51.5h29
c-6.66699 -50.667 -19 -87 -37 -109s-42.667 -33 -74 -33z" />
    <glyph glyph-name="ograve" unicode="&#xf2;" horiz-adv-x="566" 
d="M533 247c-8.66699 -76 -39.001 -138.5 -91.001 -187.5s-113.333 -73.5 -184 -73.5s-127.667 26.333 -171 79s-60.666 117.334 -51.999 194.001c9.33301 76 40 138 92 186s113.667 72 185 72c70.667 0 127.5 -25.833 170.5 -77.5s59.833 -115.834 50.5 -192.501z
M175.999 259c-8.66699 -81.333 -6 -140.5 8 -177.5s40 -55.5 78 -55.5c37.333 0 66 16.667 86 50s34.667 90.333 44 171c8.66699 80.667 6.16699 139.334 -7.5 176.001s-39.5 55 -77.5 55c-37.333 0 -66 -16.333 -86 -49s-35 -89.334 -45 -170.001zM337.999 589h-38
l-200 123c-12.667 7.33301 -17.5 15.333 -14.5 24s12.167 13 27.5 13h120c13.333 0 23.833 -2.5 31.5 -7.5s13.5 -13.167 17.5 -24.5z" />
    <glyph glyph-name="oacute" unicode="&#xf3;" horiz-adv-x="566" 
d="M533 247c-8.66699 -76 -39.001 -138.5 -91.001 -187.5s-113.333 -73.5 -184 -73.5s-127.667 26.333 -171 79s-60.666 117.334 -51.999 194.001c9.33301 76 40 138 92 186s113.667 72 185 72c70.667 0 127.5 -25.833 170.5 -77.5s59.833 -115.834 50.5 -192.501z
M175.999 259c-8.66699 -81.333 -6 -140.5 8 -177.5s40 -55.5 78 -55.5c37.333 0 66 16.667 86 50s34.667 90.333 44 171c8.66699 80.667 6.16699 139.334 -7.5 176.001s-39.5 55 -77.5 55c-37.333 0 -66 -16.333 -86 -49s-35 -89.334 -45 -170.001zM326.999 590
l-37 -0.000976562l96 128c7.33301 10.667 16 18.334 26 23.001s22.333 7 37 7h104c16.667 0 25 -4 25 -12s-7.66699 -16 -23 -24z" />
    <glyph glyph-name="ocircumflex" unicode="&#xf4;" horiz-adv-x="566" 
d="M533 247c-8.66699 -76 -39.001 -138.5 -91.001 -187.5s-113.333 -73.5 -184 -73.5s-127.667 26.333 -171 79s-60.666 117.334 -51.999 194.001c9.33301 76 40 138 92 186s113.667 72 185 72c70.667 0 127.5 -25.833 170.5 -77.5s59.833 -115.834 50.5 -192.501z
M175.999 259c-8.66699 -81.333 -6 -140.5 8 -177.5s40 -55.5 78 -55.5c37.333 0 66 16.667 86 50s34.667 90.333 44 171c8.66699 80.667 6.16699 139.334 -7.5 176.001s-39.5 55 -77.5 55c-37.333 0 -66 -16.333 -86 -49s-35 -89.334 -45 -170.001zM190.999 581h-35l163 176
h43l113 -176h-29l-118 74z" />
    <glyph glyph-name="otilde" unicode="&#xf5;" horiz-adv-x="566" 
d="M533 247c-8.66699 -76 -39.001 -138.5 -91.001 -187.5s-113.333 -73.5 -184 -73.5s-127.667 26.333 -171 79s-60.666 117.334 -51.999 194.001c9.33301 76 40 138 92 186s113.667 72 185 72c70.667 0 127.5 -25.833 170.5 -77.5s59.833 -115.834 50.5 -192.501z
M175.999 259c-8.66699 -81.333 -6 -140.5 8 -177.5s40 -55.5 78 -55.5c37.333 0 66 16.667 86 50s34.667 90.333 44 171c8.66699 80.667 6.16699 139.334 -7.5 176.001s-39.5 55 -77.5 55c-37.333 0 -66 -16.333 -86 -49s-35 -89.334 -45 -170.001zM402.999 618
c-16 0 -30.998 3.00098 -44.998 9.00098s-31.667 18 -53 36c-15.333 13.333 -26.833 22 -34.5 26s-15.5 6 -23.5 6c-16.667 0.666992 -29.334 -4.83301 -38.001 -16.5s-13.667 -29.167 -15 -52.5h-29c3.33301 46 14.166 81.167 32.499 105.5s43.5 36.5 75.5 36.5
c17.333 0 33.166 -2.83301 47.499 -8.5s32.166 -17.167 53.499 -34.5c14.667 -12.667 26.167 -20.834 34.5 -24.501s16.5 -5.5 24.5 -5.5c14.667 0 25.834 4.5 33.501 13.5s13.834 26.167 18.501 51.5h29c-6.66699 -50.667 -19 -87 -37 -109s-42.667 -33 -74 -33z" />
    <glyph glyph-name="odieresis" unicode="&#xf6;" horiz-adv-x="566" 
d="M533 247c-8.66699 -76 -39.001 -138.5 -91.001 -187.5s-113.333 -73.5 -184 -73.5s-127.667 26.333 -171 79s-60.666 117.334 -51.999 194.001c9.33301 76 40 138 92 186s113.667 72 185 72c70.667 0 127.5 -25.833 170.5 -77.5s59.833 -115.834 50.5 -192.501z
M175.999 259c-8.66699 -81.333 -6 -140.5 8 -177.5s40 -55.5 78 -55.5c37.333 0 66 16.667 86 50s34.667 90.333 44 171c8.66699 80.667 6.16699 139.334 -7.5 176.001s-39.5 55 -77.5 55c-37.333 0 -66 -16.333 -86 -49s-35 -89.334 -45 -170.001zM300.999 675
c-0.666992 -21.333 -9.16602 -40.002 -25.499 -56.002s-36.833 -24 -61.5 -24c-22.667 0 -40.167 6.83301 -52.5 20.5s-18.166 31.5 -17.499 53.5c1.33301 22.667 10.166 41.834 26.499 57.501s37.166 23.5 62.499 23.5c22 0 39.167 -7.16699 51.5 -21.5
s17.833 -32.166 16.5 -53.499zM514 674.998c-0.666992 -21.333 -9.16602 -40.002 -25.499 -56.002s-37.166 -24 -62.499 -24c-22.667 0 -40 6.83301 -52 20.5s-17.667 31.5 -17 53.5c1.33301 22.667 10.166 41.834 26.499 57.501s37.166 23.5 62.499 23.5
c22 0 39.167 -7.16699 51.5 -21.5s17.833 -32.166 16.5 -53.499z" />
    <glyph glyph-name="divide" unicode="&#xf7;" horiz-adv-x="516" 
d="M339 478c-2.66699 -16 -9.49902 -29.167 -20.499 -39.5s-24.833 -15.5 -41.5 -15.5s-29 5 -37 15s-11.667 23.333 -11 40c2.66699 16.667 9.5 30.167 20.5 40.5s24.833 15.5 41.5 15.5c16 0 28.167 -5 36.5 -15s12.166 -23.667 11.499 -41zM482.001 286h-446l6 46h446z
M292.001 133c-2.66699 -16.667 -9.33301 -30 -20 -40s-24.334 -15 -41.001 -15s-29.334 5.16699 -38.001 15.5s-12 23.5 -10 39.5c2.66699 16.667 9.33398 30.167 20.001 40.5s24.334 15.5 41.001 15.5s29.167 -5.16699 37.5 -15.5s11.833 -23.833 10.5 -40.5z" />
    <glyph glyph-name="oslash" unicode="&#xf8;" horiz-adv-x="566" 
d="M306 478c-37.333 0 -65.998 -16.333 -85.998 -49s-35 -89.334 -45 -170.001c-2.66699 -24.667 -4.33398 -46.667 -5.00098 -66s-0.333984 -36.666 0.999023 -51.999l215 276c-6.66699 20.667 -16.667 36 -30 46s-30 15 -50 15zM261.002 26
c37.333 0 65.998 16.666 85.998 49.999s34.667 90.333 44 171c2.66699 20.667 4.33398 40.834 5.00098 60.501s0.333984 38.167 -0.999023 55.5l-214 -276c6.66699 -20.667 16.667 -36 30 -46s30 -15 50 -15zM532 246.999c-8.66699 -76 -39 -138.499 -91 -187.499
s-113.333 -73.5 -184 -73.5c-22.667 0 -44.667 3.16699 -66 9.5s-41.333 15.833 -60 28.5l-56 -73h-51l76 98c-26 26 -44.667 57.167 -56 93.5s-14.666 75.166 -9.99902 116.499c9.33301 76 40 138 92 186s113.667 72 185 72c22.667 0 44.5 -3 65.5 -9s40.5 -15 58.5 -27
l64 82h51l-84 -108c26 -24.667 44.667 -55 56 -91s14.666 -75 9.99902 -117z" />
    <glyph glyph-name="ugrave" unicode="&#xf9;" horiz-adv-x="627" 
d="M382 144c-14.667 -52 -37.166 -91.3301 -67.499 -117.997s-67.5 -40 -111.5 -40c-47.333 0 -82.666 15.667 -105.999 47s-31.666 74.666 -24.999 129.999l37 301h-76l5 38c54.667 0 98 0.833008 130 2.5s52.667 4.5 62 8.5l21 -9l-43 -351
c-4 -34.667 -1.83301 -60.334 6.5 -77.001s23.166 -25 44.499 -25c28.667 0 52.167 16.333 70.5 49s31.5 81 39.5 145l27 219h-59l5 38c49.333 0 88.666 1 117.999 3s48.333 4.66699 57 8l21 -9l-49 -404c-2.66699 -20.667 -2 -36.167 2 -46.5s11.333 -15.5 22 -15.5
c14 0 25.167 9.16699 33.5 27.5s14.833 47.166 19.5 86.499h38c-9.33301 -65.333 -23.833 -109.166 -43.5 -131.499s-49.5 -33.5 -89.5 -33.5c-31.333 0 -54.833 9 -70.5 27s-23.5 45 -23.5 81l0.5 5c0.333008 3.33301 1.16602 10 2.49902 20
c0.666992 9.33301 1.16699 15.666 1.5 18.999zM346.001 589.003h-38l-200 123c-12.667 7.33301 -17.5 15.333 -14.5 24s12.167 13 27.5 13h120c13.333 0 23.833 -2.5 31.5 -7.5s13.5 -13.167 17.5 -24.5z" />
    <glyph glyph-name="uacute" unicode="&#xfa;" horiz-adv-x="627" 
d="M382 144c-14.667 -52 -37.166 -91.3301 -67.499 -117.997s-67.5 -40 -111.5 -40c-47.333 0 -82.666 15.667 -105.999 47s-31.666 74.666 -24.999 129.999l37 301h-76l5 38c54.667 0 98 0.833008 130 2.5s52.667 4.5 62 8.5l21 -9l-43 -351
c-4 -34.667 -1.83301 -60.334 6.5 -77.001s23.166 -25 44.499 -25c28.667 0 52.167 16.333 70.5 49s31.5 81 39.5 145l27 219h-59l5 38c49.333 0 88.666 1 117.999 3s48.333 4.66699 57 8l21 -9l-49 -404c-2.66699 -20.667 -2 -36.167 2 -46.5s11.333 -15.5 22 -15.5
c14 0 25.167 9.16699 33.5 27.5s14.833 47.166 19.5 86.499h38c-9.33301 -65.333 -23.833 -109.166 -43.5 -131.499s-49.5 -33.5 -89.5 -33.5c-31.333 0 -54.833 9 -70.5 27s-23.5 45 -23.5 81l0.5 5c0.333008 3.33301 1.16602 10 2.49902 20
c0.666992 9.33301 1.16699 15.666 1.5 18.999zM329.001 590.003l-37 -0.000976562l96 128c7.33301 10.667 16 18.334 26 23.001s22.333 7 37 7h104c16.667 0 25 -4 25 -12s-7.66699 -16 -23 -24z" />
    <glyph glyph-name="ucircumflex" unicode="&#xfb;" horiz-adv-x="627" 
d="M382 144c-14.667 -52 -37.166 -91.3301 -67.499 -117.997s-67.5 -40 -111.5 -40c-47.333 0 -82.666 15.667 -105.999 47s-31.666 74.666 -24.999 129.999l37 301h-76l5 38c54.667 0 98 0.833008 130 2.5s52.667 4.5 62 8.5l21 -9l-43 -351
c-4 -34.667 -1.83301 -60.334 6.5 -77.001s23.166 -25 44.499 -25c28.667 0 52.167 16.333 70.5 49s31.5 81 39.5 145l27 219h-59l5 38c49.333 0 88.666 1 117.999 3s48.333 4.66699 57 8l21 -9l-49 -404c-2.66699 -20.667 -2 -36.167 2 -46.5s11.333 -15.5 22 -15.5
c14 0 25.167 9.16699 33.5 27.5s14.833 47.166 19.5 86.499h38c-9.33301 -65.333 -23.833 -109.166 -43.5 -131.499s-49.5 -33.5 -89.5 -33.5c-31.333 0 -54.833 9 -70.5 27s-23.5 45 -23.5 81l0.5 5c0.333008 3.33301 1.16602 10 2.49902 20
c0.666992 9.33301 1.16699 15.666 1.5 18.999zM213.001 581.003h-35l163 176h43l113 -176h-29l-118 74z" />
    <glyph glyph-name="udieresis" unicode="&#xfc;" horiz-adv-x="627" 
d="M382 144c-14.667 -52 -37.166 -91.3301 -67.499 -117.997s-67.5 -40 -111.5 -40c-47.333 0 -82.666 15.667 -105.999 47s-31.666 74.666 -24.999 129.999l37 301h-76l5 38c54.667 0 98 0.833008 130 2.5s52.667 4.5 62 8.5l21 -9l-43 -351
c-4 -34.667 -1.83301 -60.334 6.5 -77.001s23.166 -25 44.499 -25c28.667 0 52.167 16.333 70.5 49s31.5 81 39.5 145l27 219h-59l5 38c49.333 0 88.666 1 117.999 3s48.333 4.66699 57 8l21 -9l-49 -404c-2.66699 -20.667 -2 -36.167 2 -46.5s11.333 -15.5 22 -15.5
c14 0 25.167 9.16699 33.5 27.5s14.833 47.166 19.5 86.499h38c-9.33301 -65.333 -23.833 -109.166 -43.5 -131.499s-49.5 -33.5 -89.5 -33.5c-31.333 0 -54.833 9 -70.5 27s-23.5 45 -23.5 81l0.5 5c0.333008 3.33301 1.16602 10 2.49902 20
c0.666992 9.33301 1.16699 15.666 1.5 18.999zM317.001 675.003c-0.666992 -21.333 -9.16602 -40.002 -25.499 -56.002s-36.833 -24 -61.5 -24c-22.667 0 -40.167 6.83301 -52.5 20.5s-18.166 31.5 -17.499 53.5c1.33301 22.667 10.166 41.834 26.499 57.501
s37.166 23.5 62.499 23.5c22 0 39.167 -7.16699 51.5 -21.5s17.833 -32.166 16.5 -53.499zM530.002 675.001c-0.666992 -21.333 -9.16602 -40.002 -25.499 -56.002s-37.166 -24 -62.499 -24c-22.667 0 -40 6.83301 -52 20.5s-17.667 31.5 -17 53.5
c1.33301 22.667 10.166 41.834 26.499 57.501s37.166 23.5 62.499 23.5c22 0 39.167 -7.16699 51.5 -21.5s17.833 -32.166 16.5 -53.499z" />
    <glyph glyph-name="yacute" unicode="&#xfd;" horiz-adv-x="597" 
d="M205 -260c-47.333 0 -86 11.502 -116 34.502s-45 52.833 -45 89.5c0 25.333 7.33301 45.5 22 60.5s34.334 22.5 59.001 22.5c20.667 0 36.667 -5.66699 48 -17s17 -26.666 17 -45.999c0 -20.667 -5.83301 -38.334 -17.5 -53.001s-27.5 -23.334 -47.5 -26.001
c9.33301 -9.33301 20 -16.333 32 -21s25.667 -7 41 -7c44.667 0 79 15.167 103 45.5s39.667 79.5 47 147.5c0 1.33301 0.333008 4.33301 1 9s2.33398 14.667 5.00098 30c4.66699 34.667 8 58.667 10 72s3.33301 21 4 23c-16.667 -34 -38.834 -59.833 -66.501 -77.5
s-60.5 -26.5 -98.5 -26.5c-48 0 -83.167 14.667 -105.5 44s-30.5 71.333 -24.5 126l36 294h-76l5 38c54.667 0 98 0.833008 130 2.5s52.667 4.5 62 8.5l21 -9l-42 -343c-4 -32.667 -2 -56.834 6 -72.501s22 -23.5 42 -23.5c32 0 57.833 15.667 77.5 47s33.167 78 40.5 140
l26 212h-59l5 38c49.333 0 88.666 1 117.999 3s48.333 4.66699 57 8l21 -9l-56 -454c-13.333 -108 -42.333 -186.667 -87 -236s-109.667 -74 -195 -74zM339 597.002l-37 -0.000976562l96 128c7.33301 10.667 16 18.334 26 23.001s22.333 7 37 7h104c16.667 0 25 -4 25 -12
s-7.66699 -16 -23 -24z" />
    <glyph glyph-name="ydieresis" unicode="&#xff;" horiz-adv-x="597" 
d="M205 -260c-47.333 0 -86 11.502 -116 34.502s-45 52.833 -45 89.5c0 25.333 7.33301 45.5 22 60.5s34.334 22.5 59.001 22.5c20.667 0 36.667 -5.66699 48 -17s17 -26.666 17 -45.999c0 -20.667 -5.83301 -38.334 -17.5 -53.001s-27.5 -23.334 -47.5 -26.001
c9.33301 -9.33301 20 -16.333 32 -21s25.667 -7 41 -7c44.667 0 79 15.167 103 45.5s39.667 79.5 47 147.5c0 1.33301 0.333008 4.33301 1 9s2.33398 14.667 5.00098 30c4.66699 34.667 8 58.667 10 72s3.33301 21 4 23c-16.667 -34 -38.834 -59.833 -66.501 -77.5
s-60.5 -26.5 -98.5 -26.5c-48 0 -83.167 14.667 -105.5 44s-30.5 71.333 -24.5 126l36 294h-76l5 38c54.667 0 98 0.833008 130 2.5s52.667 4.5 62 8.5l21 -9l-42 -343c-4 -32.667 -2 -56.834 6 -72.501s22 -23.5 42 -23.5c32 0 57.833 15.667 77.5 47s33.167 78 40.5 140
l26 212h-59l5 38c49.333 0 88.666 1 117.999 3s48.333 4.66699 57 8l21 -9l-56 -454c-13.333 -108 -42.333 -186.667 -87 -236s-109.667 -74 -195 -74zM318 675.002c-0.666992 -21.333 -9.16602 -40.002 -25.499 -56.002s-36.833 -24 -61.5 -24
c-22.667 0 -40.167 6.83301 -52.5 20.5s-18.166 31.5 -17.499 53.5c1.33301 22.667 10.166 41.834 26.499 57.501s37.166 23.5 62.499 23.5c22 0 39.167 -7.16699 51.5 -21.5s17.833 -32.166 16.5 -53.499zM531.001 675c-0.666992 -21.333 -9.16602 -40.002 -25.499 -56.002
s-37.166 -24 -62.499 -24c-22.667 0 -40 6.83301 -52 20.5s-17.667 31.5 -17 53.5c1.33301 22.667 10.166 41.834 26.499 57.501s37.166 23.5 62.499 23.5c22 0 39.167 -7.16699 51.5 -21.5s17.833 -32.166 16.5 -53.499z" />
    <glyph glyph-name="Amacron" unicode="&#x100;" 
d="M283 521l-113 -248h166zM160 0h-208l5 37h62l305 663h66l144 -663h64l-5 -37h-319l5 37h107l-42 199h-190l-91 -199h101zM507 801h-268l6 55h269z" />
    <glyph glyph-name="amacron" unicode="&#x101;" horiz-adv-x="628" 
d="M177 263c-7.33301 -69.333 -5.5 -121.332 5.5 -155.999s31.5 -52 61.5 -52c33.333 0 61 16.833 83 50.5s37 81.5 45 143.5c2 13.333 3.5 24.166 4.5 32.499s1.5 13.5 1.5 15.5c6 60 2.66699 105 -10 135s-35 45.333 -67 46c-33.333 0.666992 -60.333 -17 -81 -53
s-35 -90 -43 -162zM196 -13.999c-58 0 -101.832 24.501 -131.499 73.501s-40.167 114.167 -31.5 195.5c9.33301 76.667 37.833 139.5 85.5 188.5s106.5 73.5 176.5 73.5c32 0 60 -7.66699 84 -23s43 -37.333 57 -66l66 89h39l-51 -417c-2.66699 -20.667 -2 -36.167 2 -46.5
s11.333 -15.5 22 -15.5c14 0 25.167 9.16699 33.5 27.5s14.833 47.166 19.5 86.499h39c-9.33301 -64.667 -23.833 -108.334 -43.5 -131.001s-49.5 -34 -89.5 -34c-35.333 0 -61 10.333 -77 31s-22.667 52.334 -20 95.001l5 42c-16.667 -54.667 -40.834 -96.5 -72.501 -125.5
s-69.167 -43.5 -112.5 -43.5zM492.001 667.002h-268l6 55h269z" />
    <glyph glyph-name="Aogonek" unicode="&#x104;" 
d="M283 521l-113 -248h166zM160 0h-208l5 37h62l305 663h66l144 -663h64l-5 -37h-319l5 37h107l-42 199h-190l-91 -199h101zM543 -137c-35.333 0 -62.5 6.83301 -81.5 20.5s-27.167 32.167 -24.5 55.5c3.33301 24.667 18 43.167 44 55.5s64 18.5 114 18.5l-1 -13
c-16.667 0 -30.834 -4.5 -42.501 -13.5s-18.5 -21.167 -20.5 -36.5s2 -27.5 12 -36.5s24.667 -13.5 44 -13.5c12 0 22.833 1.66699 32.5 5s17.834 8 24.501 14l11 -16c-14 -14.667 -29.833 -25 -47.5 -31s-39.167 -9 -64.5 -9z" />
    <glyph glyph-name="aogonek" unicode="&#x105;" horiz-adv-x="628" 
d="M498 -137c-34.667 0 -60.835 5.33496 -78.502 16.002s-26.167 26.334 -25.5 47.001c0.666992 14.667 5.83398 27.167 15.501 37.5s25.167 18.833 46.5 25.5c-30 5.33301 -51.333 17.833 -64 37.5s-18 48.5 -16 86.5l5 42c-16.667 -54.667 -40.834 -96.5 -72.501 -125.5
s-69.167 -43.5 -112.5 -43.5c-58 0 -101.833 24.5 -131.5 73.5s-40.167 114.167 -31.5 195.5c9.33301 76.667 37.833 139.5 85.5 188.5s106.5 73.5 176.5 73.5c32 0 60 -7.66699 84 -23s43 -37.333 57 -66l66 89h39l-51 -417c-2.66699 -20.667 -2 -36.167 2 -46.5
s11.333 -15.5 22 -15.5c14 0 25.167 9.16699 33.5 27.5s14.833 47.166 19.5 86.499h39c-7.33301 -50.667 -17.166 -87.334 -29.499 -110.001s-29.5 -38.334 -51.5 -47.001c-12.667 -5.33301 -21.834 -12 -27.501 -20s-8.5 -18 -8.5 -30c-0.666992 -14 3.83301 -25 13.5 -33
s23.834 -12 42.501 -12c12 0 22.833 1.66699 32.5 5s17.834 8 24.501 14l10 -16c-14 -14.667 -30 -25 -48 -31s-40 -9 -66 -9zM176.999 263.002c-7.33301 -69.333 -5.50293 -121.333 5.49707 -156s31.5 -52 61.5 -52c29.333 0 54.333 13.667 75 41s36.334 67 47.001 119
c0.666992 2 1.33398 5.66699 2.00098 11s2 14.333 4 27c1.33301 8.66699 2.33301 14.5 3 17.5s1 5.5 1 7.5c8.66699 66.667 6.83398 116.5 -5.49902 149.5s-35.5 49.833 -69.5 50.5c-33.333 0.666992 -60.333 -17 -81 -53s-35 -90 -43 -162z" />
    <glyph glyph-name="Cacute" unicode="&#x106;" horiz-adv-x="588" 
d="M297 -14c-45.333 0 -85.834 10 -121.501 30s-65.167 49 -88.5 87c-20 32.667 -33.833 70.167 -41.5 112.5s-8.83398 85.833 -3.50098 130.5c5.33301 44 17.5 87.333 36.5 130s42.833 80.667 71.5 114c32 36.667 68 64.834 108 84.501s82 29.5 126 29.5
c27.333 0 52 -3.33301 74 -10s40.333 -16.334 55 -29.001l44 35h23l-29 -230h-37c7.33301 60.667 0.666016 108 -20.001 142s-53.667 51 -99 51c-56.667 0 -101.167 -25.5 -133.5 -76.5s-55.166 -131.167 -68.499 -240.5c-12.667 -108.667 -9 -189 11 -241
s57.667 -78 113 -78c47.333 0 85.833 17.333 115.5 52s48.5 83 56.5 145h37l-29 -234h-22l-35 39c-23.333 -14.667 -46.666 -25.5 -69.999 -32.5s-47.666 -10.5 -72.999 -10.5zM378.999 740l-37 -0.000976562l83 108c7.33301 10.667 16 18.334 26 23.001s22.333 7 37 7h110
c16.667 0 25 -4 25 -12s-7.33301 -16 -22 -24z" />
    <glyph glyph-name="cacute" unicode="&#x107;" horiz-adv-x="493" 
d="M248 -14c-72.667 0 -128.665 24.666 -167.998 73.999s-54.666 113 -45.999 191c9.33301 80 39.333 144.333 90 193s112 73 184 73c50 0 89.5 -11.5 118.5 -34.5s42.5 -54.5 40.5 -94.5c-2 -23.333 -10.167 -42 -24.5 -56s-33.5 -21 -57.5 -21c-22.667 0 -40 6 -52 18
s-17.333 28.333 -16 49c0.666992 20.667 7 38 19 52s27.667 23 47 27c-8.66699 8 -18.5 14 -29.5 18s-23.167 6 -36.5 6c-38.667 0 -69.834 -19 -93.501 -57s-39.834 -94.333 -48.501 -169c-8 -71.333 -3.33301 -126.333 14 -165s46.666 -58 87.999 -58
c31.333 0 58.833 11.333 82.5 34s40.167 53.334 49.5 92.001l39 -6c-14.667 -54 -39 -95.167 -73 -123.5s-76.333 -42.5 -127 -42.5zM286.002 589.999l-37 -0.000976562l96 128c7.33301 10.667 16 18.334 26 23.001s22.333 7 37 7h104c16.667 0 25 -4 25 -12
s-7.66699 -16 -23 -24z" />
    <glyph glyph-name="Ccaron" unicode="&#x10c;" horiz-adv-x="588" 
d="M297 -14c-45.333 0 -85.834 10 -121.501 30s-65.167 49 -88.5 87c-20 32.667 -33.833 70.167 -41.5 112.5s-8.83398 85.833 -3.50098 130.5c5.33301 44 17.5 87.333 36.5 130s42.833 80.667 71.5 114c32 36.667 68 64.834 108 84.501s82 29.5 126 29.5
c27.333 0 52 -3.33301 74 -10s40.333 -16.334 55 -29.001l44 35h23l-29 -230h-37c7.33301 60.667 0.666016 108 -20.001 142s-53.667 51 -99 51c-56.667 0 -101.167 -25.5 -133.5 -76.5s-55.166 -131.167 -68.499 -240.5c-12.667 -108.667 -9 -189 11 -241
s57.667 -78 113 -78c47.333 0 85.833 17.333 115.5 52s48.5 83 56.5 145h37l-29 -234h-22l-35 39c-23.333 -14.667 -46.666 -25.5 -69.999 -32.5s-47.666 -10.5 -72.999 -10.5zM415.999 753h-43l-123 176h35l124 -74l131 74h29z" />
    <glyph glyph-name="ccaron" unicode="&#x10d;" horiz-adv-x="493" 
d="M248 -14c-72.667 0 -128.665 24.666 -167.998 73.999s-54.666 113 -45.999 191c9.33301 80 39.333 144.333 90 193s112 73 184 73c50 0 89.5 -11.5 118.5 -34.5s42.5 -54.5 40.5 -94.5c-2 -23.333 -10.167 -42 -24.5 -56s-33.5 -21 -57.5 -21c-22.667 0 -40 6 -52 18
s-17.333 28.333 -16 49c0.666992 20.667 7 38 19 52s27.667 23 47 27c-8.66699 8 -18.5 14 -29.5 18s-23.167 6 -36.5 6c-38.667 0 -69.834 -19 -93.501 -57s-39.834 -94.333 -48.501 -169c-8 -71.333 -3.33301 -126.333 14 -165s46.666 -58 87.999 -58
c31.333 0 58.833 11.333 82.5 34s40.167 53.334 49.5 92.001l39 -6c-14.667 -54 -39 -95.167 -73 -123.5s-76.333 -42.5 -127 -42.5zM323.002 580.999h-43l-123 176h35l124 -74l131 74h29z" />
    <glyph glyph-name="Dcaron" unicode="&#x10e;" horiz-adv-x="696" 
d="M405 753h-43l-123 176h35l124 -74l131 74h29zM282 0l-280 0.00195312l5 37h76l75 616h-76l5 37h279c48 0 92 -8.5 132 -25.5s74 -41.5 102 -73.5c28.667 -32.667 49.167 -70.334 61.5 -113.001s15.5 -86.667 9.5 -132c-5.33301 -45.333 -19.5 -89.333 -42.5 -132
s-52.167 -80.334 -87.5 -113.001c-36 -32.667 -76.167 -57.667 -120.5 -75s-90.5 -26 -138.5 -26zM300 653.002l-75.999 -616.001h39c71.333 0 128.166 25.833 170.499 77.5s69.833 128.834 82.5 231.501c12.667 102 4 178.667 -26 230s-80.667 77 -152 77h-38z" />
    <glyph glyph-name="dcaron" unicode="&#x10f;" horiz-adv-x="731" 
d="M766 693c0 -39.333 -11.3311 -76.332 -33.998 -110.999s-53 -62.334 -91 -83.001l-22 25c20.667 12.667 38.667 28 54 46s25.666 36.333 30.999 55c-2.66699 -1.33301 -5.83398 -2.5 -9.50098 -3.5s-7.16699 -1.5 -10.5 -1.5c-19.333 0 -35 6 -47 18s-18 27.333 -18 46
c0 22.667 7.33301 41.834 22 57.501s34 23.5 58 23.5c21.333 0 37.833 -6.33301 49.5 -19s17.5 -30.334 17.5 -53.001zM185.002 259.001c-6.66699 -68 -3.66699 -119.002 9 -153.002s35 -51 67 -51c29.333 0 54.5 17.5 75.5 52.5s35.833 82.167 44.5 141.5
c1.33301 14.667 2.66602 26.5 3.99902 35.5s2 14.5 2 16.5c4.66699 56.667 -0.5 100.334 -15.5 131.001s-38.167 46 -69.5 46c-30 0 -55.167 -19.167 -75.5 -57.5s-34.166 -92.166 -41.499 -161.499zM481.002 -13.001c-34 0 -58.8291 9.83105 -74.4961 29.498
s-22.834 49.5 -21.501 89.5c0 0.666992 0.166992 2.5 0.5 5.5s0.833008 9.16699 1.5 18.5c0.666992 8.66699 1.16699 14.5 1.5 17.5s0.5 4.83301 0.5 5.5c-16 -54.667 -39.667 -96.167 -71 -124.5s-69.333 -42.5 -114 -42.5c-57.333 0 -100.833 24.333 -130.5 73
s-40.5 114 -32.5 196c7.33301 76.667 34.666 139.5 81.999 188.5s105.666 73.5 174.999 73.5c23.333 0 44.5 -5.16699 63.5 -15.5s34.5 -25.166 46.5 -44.499c0 4 2 27.167 6 69.5s10 103.833 18 184.5h-76l4 37c52.667 0 95.5 1 128.5 3s54.5 5 64.5 9l21 -10l-76 -650
c-2 -21.333 -1 -37 3 -47s11 -15 21 -15c14 0 25.167 9 33.5 27s15.166 47 20.499 87h38c-9.33301 -65.333 -23.833 -109.166 -43.5 -131.499s-49.5 -33.5 -89.5 -33.5z" />
    <glyph glyph-name="Emacron" unicode="&#x112;" horiz-adv-x="588" 
d="M504 0h-502l5 37h76l75 616h-76l5 37h484l-27 -220h-38l4 35c7.33301 52 0 89.667 -22 113s-62 35 -120 35h-68l-35 -283h124l9 74h42l-24 -195h-42l10 84h-124l-36 -296h107c49.333 0 86.5 11.833 111.5 35.5s41.167 64.5 48.5 122.5l3 29h38zM496 801h-268l6 55h269z
" />
    <glyph glyph-name="emacron" unicode="&#x113;" horiz-adv-x="506" 
d="M241 -14c-70 0 -124.17 24.667 -162.503 74s-53.166 113 -44.499 191c9.33301 80 39 144.333 89 193s110.333 73 181 73c52 0 93.833 -12.333 125.5 -37s46.834 -56.667 45.501 -96c-1.33301 -52 -28.333 -92.167 -81 -120.5s-126.667 -43.166 -222 -44.499
c-4 -63.333 2.33301 -110.333 19 -141s44.334 -46 83.001 -46c34.667 0 63.167 10.167 85.5 30.5s39.833 52.166 52.5 95.499l39 -6c-14.667 -55.333 -39.5 -96.833 -74.5 -124.5s-80.167 -41.5 -135.5 -41.5zM289.997 479c-29.333 0 -54.001 -19 -74.001 -57
s-33.667 -92.667 -41 -164c54.667 2.66699 96 16.167 124 40.5s43 59.833 45 106.5c0.666992 23.333 -3.66602 41.5 -12.999 54.5s-23 19.5 -41 19.5zM449.996 667h-268l6 55h269z" />
    <glyph glyph-name="Edotaccent" unicode="&#x116;" horiz-adv-x="588" 
d="M504 0h-502l5 37h76l75 616h-76l5 37h484l-27 -220h-38l4 35c7.33301 52 0 89.667 -22 113s-62 35 -120 35h-68l-35 -283h124l9 74h42l-24 -195h-42l10 84h-124l-36 -296h107c49.333 0 86.5 11.833 111.5 35.5s41.167 64.5 48.5 122.5l3 29h38zM450 840
c-1.33301 -22.667 -10.833 -42 -28.5 -58s-40.167 -24 -67.5 -24c-25.333 0 -44.666 7.16699 -57.999 21.5s-19.333 32.5 -18 54.5c1.33301 23.333 10.833 43 28.5 59s40.167 24 67.5 24c25.333 0 44.666 -7.33301 57.999 -22s19.333 -33 18 -55z" />
    <glyph glyph-name="edotaccent" unicode="&#x117;" horiz-adv-x="506" 
d="M412 670c-1.33301 -22 -10.667 -40.834 -28 -56.501s-39.333 -23.5 -66 -23.5c-24.667 0 -43.5 7 -56.5 21s-18.833 32 -17.5 54c1.33301 22.667 10.5 41.834 27.5 57.501s38.833 23.5 65.5 23.5c24.667 0 43.667 -7.16699 57 -21.5s19.333 -32.5 18 -54.5z
M240.999 -14.001c-70 0 -124.17 24.667 -162.503 74s-53.166 113 -44.499 191c9.33301 80 39 144.333 89 193s110.333 73 181 73c52 0 93.833 -12.333 125.5 -37s46.834 -56.667 45.501 -96c-1.33301 -52 -28.333 -92.167 -81 -120.5s-126.667 -43.166 -222 -44.499
c-4 -63.333 2.33301 -110.333 19 -141s44.334 -46 83.001 -46c34.667 0 63.167 10.167 85.5 30.5s39.833 52.166 52.5 95.499l39 -6c-14.667 -55.333 -39.5 -96.833 -74.5 -124.5s-80.167 -41.5 -135.5 -41.5zM289.996 478.999c-29.333 0 -54.001 -19 -74.001 -57
s-33.667 -92.667 -41 -164c54.667 2.66699 96 16.167 124 40.5s43 59.833 45 106.5c0.666992 23.333 -3.66602 41.5 -12.999 54.5s-23 19.5 -41 19.5z" />
    <glyph glyph-name="Eogonek" unicode="&#x118;" horiz-adv-x="588" 
d="M504 0h-502l5 37h76l75 616h-76l5 37h484l-27 -220h-38l4 35c7.33301 52 0 89.667 -22 113s-62 35 -120 35h-68l-35 -283h124l9 74h42l-24 -195h-42l10 84h-124l-36 -296h107c49.333 0 86.5 11.833 111.5 35.5s41.167 64.5 48.5 122.5l3 29h38zM448 -137
c-35.333 0 -62.5 6.83301 -81.5 20.5s-27.167 32.167 -24.5 55.5c3.33301 24.667 18 43.167 44 55.5s64 18.5 114 18.5l-1 -13c-16.667 0 -30.834 -4.5 -42.501 -13.5s-18.5 -21.167 -20.5 -36.5s2 -27.5 12 -36.5s24.667 -13.5 44 -13.5c12 0 22.833 1.66699 32.5 5
s17.834 8 24.501 14l11 -16c-14 -14.667 -29.833 -25 -47.5 -31s-39.167 -9 -64.5 -9z" />
    <glyph glyph-name="eogonek" unicode="&#x119;" horiz-adv-x="506" 
d="M325 -137c-35.333 0 -62.3369 5.83203 -81.0039 17.499s-27 28.5 -25 50.5c0.666992 12.667 6.33398 23.667 17.001 33s28.334 18 53.001 26c-6.66699 -1.33301 -14.167 -2.33301 -22.5 -3s-16.833 -1 -25.5 -1c-70 0 -124.167 24.667 -162.5 74s-53.166 113 -44.499 191
c9.33301 80 39 144.333 89 193s110.333 73 181 73c52 0 93.833 -12.333 125.5 -37s46.834 -56.667 45.501 -96c-1.33301 -52 -28.333 -92.167 -81 -120.5s-126.667 -43.166 -222 -44.499c-4 -63.333 2.33301 -110.333 19 -141s44.334 -46 83.001 -46
c34.667 0 63.167 10.167 85.5 30.5s39.833 52.166 52.5 95.499l39 -6c-8 -30 -19 -56.167 -33 -78.5s-36 -45.166 -66 -68.499c-18.667 -14 -30.5 -25.167 -35.5 -33.5s-7.5 -17.833 -7.5 -28.5c0 -13.333 5 -23.833 15 -31.5s24 -11.5 42 -11.5
c12.667 0 24.167 1.66699 34.5 5s18.833 8 25.5 14l10 -16c-12.667 -14.667 -27.834 -25 -45.501 -31s-39.5 -9 -65.5 -9zM289.996 478.999c-29.333 0 -54.001 -19 -74.001 -57s-33.667 -92.667 -41 -164c54.667 2.66699 96 16.167 124 40.5s43 59.833 45 106.5
c0.666992 23.333 -3.66602 41.5 -12.999 54.5s-23 19.5 -41 19.5z" />
    <glyph glyph-name="Ecaron" unicode="&#x11a;" horiz-adv-x="588" 
d="M504 0h-502l5 37h76l75 616h-76l5 37h484l-27 -220h-38l4 35c7.33301 52 0 89.667 -22 113s-62 35 -120 35h-68l-35 -283h124l9 74h42l-24 -195h-42l10 84h-124l-36 -296h107c49.333 0 86.5 11.833 111.5 35.5s41.167 64.5 48.5 122.5l3 29h38zM359 753h-43l-123 176h35
l124 -74l131 74h29z" />
    <glyph glyph-name="ecaron" unicode="&#x11b;" horiz-adv-x="506" 
d="M241 -14c-70 0 -124.17 24.667 -162.503 74s-53.166 113 -44.499 191c9.33301 80 39 144.333 89 193s110.333 73 181 73c52 0 93.833 -12.333 125.5 -37s46.834 -56.667 45.501 -96c-1.33301 -52 -28.333 -92.167 -81 -120.5s-126.667 -43.166 -222 -44.499
c-4 -63.333 2.33301 -110.333 19 -141s44.334 -46 83.001 -46c34.667 0 63.167 10.167 85.5 30.5s39.833 52.166 52.5 95.499l39 -6c-14.667 -55.333 -39.5 -96.833 -74.5 -124.5s-80.167 -41.5 -135.5 -41.5zM289.997 479c-29.333 0 -54.001 -19 -74.001 -57
s-33.667 -92.667 -41 -164c54.667 2.66699 96 16.167 124 40.5s43 59.833 45 106.5c0.666992 23.333 -3.66602 41.5 -12.999 54.5s-23 19.5 -41 19.5zM325.996 581h-43l-123 176h35l124 -74l131 74h29z" />
    <glyph glyph-name="uni0122" unicode="&#x122;" horiz-adv-x="654" 
d="M297 -14c-45.333 0 -85.8281 10.001 -121.495 30.001s-65.167 49 -88.5 87c-20 32.667 -33.833 70.167 -41.5 112.5s-8.83398 85.833 -3.50098 130.5s18.166 88.667 38.499 132s46.166 81.666 77.499 114.999c34 36 71.833 63.5 113.5 82.5s85.5 28.5 131.5 28.5
c29.333 0 56.166 -3.5 80.499 -10.5s43.833 -17.167 58.5 -30.5l45 37h22l-28 -230h-37c7.33301 60.667 -0.5 108 -23.5 142s-58.833 51 -107.5 51c-62 0 -110.833 -26 -146.5 -78s-60.167 -131.667 -73.5 -239c-12.667 -108.667 -9 -189 11 -241s57.667 -78 113 -78
c17.333 0 33.666 2.5 48.999 7.5s29.333 12.167 42 21.5l30 242h-86l5 37h285l-5 -37h-65l-38 -308h-28l-58 36c-24 -14 -48.167 -24.167 -72.5 -30.5s-50.5 -9.5 -78.5 -9.5zM375.005 -128.999c0 -39.333 -11.3311 -76.332 -33.998 -110.999s-53 -62.334 -91 -83.001
l-22 25c20.667 12.667 38.667 28 54 46s25.666 36.333 30.999 55c-2.66699 -1.33301 -5.83398 -2.5 -9.50098 -3.5s-7.16699 -1.5 -10.5 -1.5c-19.333 0 -35 6 -47 18s-18 27.333 -18 46c0 22.667 7.33301 41.834 22 57.501s34 23.5 58 23.5
c21.333 0 37.833 -6.33301 49.5 -19s17.5 -30.334 17.5 -53.001z" />
    <glyph glyph-name="uni0123" unicode="&#x123;" horiz-adv-x="523" 
d="M253 662c0 39.333 11.3311 76.332 33.998 110.999s53 62.334 91 83.001l22 -25c-20.667 -12.667 -38.667 -28 -54 -46s-25.666 -36.333 -30.999 -55c2.66699 1.33301 5.83398 2.5 9.50098 3.5s7.16699 1.5 10.5 1.5c19.333 0 35 -6 47 -18s18 -27.333 18 -46
c0 -22.667 -7.33301 -41.834 -22 -57.501s-34 -23.5 -58 -23.5c-21.333 0 -37.833 6.33301 -49.5 19s-17.5 30.334 -17.5 53.001zM189.998 353.999c-6 -40 -2.99805 -71.667 9.00195 -95s30.333 -35 55 -35s44.667 10.833 60 32.5s26 54.167 32 97.5
c5.33301 40.667 2.16602 72.5 -9.50098 95.5s-29.834 34.5 -54.501 34.5s-44.667 -10.833 -60 -32.5s-26 -54.167 -32 -97.5zM473 -45.001c0 -61.333 -24.999 -112.334 -74.999 -153.001s-113.667 -61 -191 -61c-72.667 0 -130.834 12.5 -174.501 37.5
s-65.5 58.833 -65.5 101.5c0 34.667 14.5 64 43.5 88s67.5 38 115.5 42c-30 5.33301 -52.5 15.5 -67.5 30.5s-22.5 34.5 -22.5 58.5c0 26 10.5 48.667 31.5 68s49.833 32.666 86.5 39.999c-35.333 14 -62 34.333 -80 61s-25 56.667 -21 90
c6 48.667 30.167 87.334 72.5 116.001s95.833 43 160.5 43c16.667 0 32.667 -1.33301 48 -4s29.666 -6.33398 42.999 -11.001l149 2l-2 -38l-89 3c18 -15.333 31.167 -33.333 39.5 -54s11.166 -42.667 8.49902 -66c-6 -47.333 -30.5 -85.666 -73.5 -114.999
s-96.167 -44 -159.5 -44c-36 0 -65 -4.16699 -87 -12.5s-33.333 -19.833 -34 -34.5c-0.666992 -13.333 5.83301 -23 19.5 -29s42.834 -9.66699 87.501 -11c80.667 -2.66699 140.334 -16.167 179.001 -40.5s58 -60.166 58 -107.499zM76.001 -115.002
c0 -34 12.166 -60.001 36.499 -78.001s59.833 -27 106.5 -27c48.667 0 88 11.833 118 35.5s45 53.5 45 89.5c0 28.667 -10.167 49.334 -30.5 62.001s-63.166 21 -128.499 25c-1.33301 0 -3.5 0.166992 -6.5 0.5s-8.83301 0.5 -17.5 0.5
c-9.33301 0.666992 -15.5 1.16699 -18.5 1.5s-5.16699 0.5 -6.5 0.5c-31.333 -8 -55.5 -21.5 -72.5 -40.5s-25.5 -42.167 -25.5 -69.5z" />
    <glyph glyph-name="Imacron" unicode="&#x12a;" horiz-adv-x="371" 
d="M302 0h-300l5 37h79l75 616h-79l5 37h299l-4 -37h-79l-75 -616h78zM381 801h-268l6 55h269z" />
    <glyph glyph-name="imacron" unicode="&#x12b;" horiz-adv-x="348" 
d="M189 -13c-43.333 0 -74.332 12.333 -92.999 37s-25 61.667 -19 111l40 331h-76l4 38c55.333 0 99.166 1 131.499 3s53.166 4.66699 62.499 8l20 -9l-49 -409c-2.66699 -20.667 -2.16699 -35.667 1.5 -45s10.834 -14 21.501 -14c14 0 25.5 9.33301 34.5 28
s15.833 47 20.5 85h38c-8.66699 -63.333 -23.5 -106.5 -44.5 -129.5s-51.833 -34.5 -92.5 -34.5zM348.001 667h-268l6 55h269z" />
    <glyph glyph-name="Iogonek" unicode="&#x12e;" horiz-adv-x="371" 
d="M302 0h-300l5 37h79l75 616h-79l5 37h299l-4 -37h-79l-75 -616h78zM252 -137c-35.333 0 -62.5 6.83301 -81.5 20.5s-27.167 32.167 -24.5 55.5c3.33301 24.667 18 43.167 44 55.5s64 18.5 114 18.5l-1 -13c-16.667 0 -30.834 -4.5 -42.501 -13.5
s-18.5 -21.167 -20.5 -36.5s2 -27.5 12 -36.5s24.667 -13.5 44 -13.5c12 0 22.833 1.66699 32.5 5s17.834 8 24.501 14l11 -16c-14 -14.667 -29.833 -25 -47.5 -31s-39.167 -9 -64.5 -9z" />
    <glyph glyph-name="iogonek" unicode="&#x12f;" horiz-adv-x="348" 
d="M285 673c0 -22.667 -8.33301 -42 -25 -58s-38.667 -24 -66 -24c-25.333 0 -45.166 7.16699 -59.499 21.5s-21.5 32.5 -21.5 54.5c0 22.667 8.33301 42.167 25 58.5s38.667 24.5 66 24.5c25.333 0 45.166 -7.33301 59.499 -22s21.5 -33 21.5 -55zM218 -137
c-36 0 -63.332 6.33398 -81.999 19.001s-26.667 30.334 -24 53.001c1.33301 12 6.33301 22.667 15 32s20.667 16.666 36 21.999c-34.667 5.33301 -59 20 -73 44s-18.333 58 -13 102l40 331h-76l4 38c55.333 0 99.166 1 131.499 3s53.166 4.66699 62.499 8l20 -9l-49 -409
c-2.66699 -20.667 -2.16699 -35.667 1.5 -45s10.834 -14 21.501 -14c14 0 25.5 9.33301 34.5 28s15.833 47 20.5 85h38c-7.33301 -50 -17.333 -86 -30 -108s-31 -38 -55 -48c-10 -4.66699 -18 -10.834 -24 -18.501s-9.66699 -16.5 -11 -26.5
c-2 -15.333 2.16699 -27.5 12.5 -36.5s24.833 -13.5 43.5 -13.5c12 0 22.833 1.66699 32.5 5s17.834 8 24.501 14l10 -15c-12.667 -14.667 -27.834 -25.167 -45.501 -31.5s-39.5 -9.5 -65.5 -9.5z" />
    <glyph glyph-name="dotlessi" unicode="&#x131;" horiz-adv-x="348" 
d="M189 -13c-43.333 0 -74.332 12.333 -92.999 37s-25 61.667 -19 111l40 331h-76l4 38c55.333 0 99.166 1 131.499 3s53.166 4.66699 62.499 8l20 -9l-49 -409c-2.66699 -20.667 -2.16699 -35.667 1.5 -45s10.834 -14 21.501 -14c14 0 25.5 9.33301 34.5 28
s15.833 47 20.5 85h38c-8.66699 -63.333 -23.5 -106.5 -44.5 -129.5s-51.833 -34.5 -92.5 -34.5z" />
    <glyph glyph-name="IJ" unicode="&#x132;" horiz-adv-x="833" 
d="M302 0h-300l5 37h79l75 616h-79l5 37h299l-4 -37h-79l-75 -616h78zM485 -14c-53.333 0 -93.3311 12.998 -119.998 38.998s-37.334 62 -32.001 108c3.33301 26.667 13.333 48.334 30 65.001s37.334 25 62.001 25c23.333 0 40.833 -7.16699 52.5 -21.5
s16.167 -32.833 13.5 -55.5s-11.5 -40.667 -26.5 -54s-35.5 -21.333 -61.5 -24c3.33301 -12 11 -21.667 23 -29s26.667 -11 44 -11c35.333 0 61.333 12 78 36s29 68.667 37 134l55 455h-106l5 37h324l-5 -37h-76l-50 -409
c-10.667 -89.333 -35.334 -154.666 -74.001 -195.999s-96.334 -62 -173.001 -62z" />
    <glyph glyph-name="ij" unicode="&#x133;" horiz-adv-x="644" 
d="M285 673c0 -22.667 -8.33301 -42 -25 -58s-38.667 -24 -66 -24c-25.333 0 -45.166 7.16699 -59.499 21.5s-21.5 32.5 -21.5 54.5c0 22.667 8.33301 42.167 25 58.5s38.667 24.5 66 24.5c25.333 0 45.166 -7.33301 59.499 -22s21.5 -33 21.5 -55zM189 -13
c-43.333 0 -74.332 12.333 -92.999 37s-25 61.667 -19 111l40 331h-76l4 38c55.333 0 99.166 1 131.499 3s53.166 4.66699 62.499 8l20 -9l-49 -409c-2.66699 -20.667 -2.16699 -35.667 1.5 -45s10.834 -14 21.501 -14c14 0 25.5 9.33301 34.5 28s15.833 47 20.5 85h38
c-8.66699 -63.333 -23.5 -106.5 -44.5 -129.5s-51.833 -34.5 -92.5 -34.5zM608.001 673c0 -22.667 -8.33301 -42 -25 -58s-38.667 -24 -66 -24c-25.333 0 -45.166 7.16699 -59.499 21.5s-21.5 32.5 -21.5 54.5c0 22.667 8.33301 42.167 25 58.5s38.667 24.5 66 24.5
c25.333 0 45.166 -7.33301 59.499 -22s21.5 -33 21.5 -55zM287.001 -260c-42 0 -74.6729 9.99902 -98.0059 29.999s-33.666 47.667 -30.999 83c1.33301 23.333 9 42.333 23 57s32.667 22 56 22c22.667 0 39.834 -5.66699 51.501 -17s16.834 -27.666 15.501 -48.999
c-1.33301 -22 -8.16602 -39.333 -20.499 -52s-29.5 -20 -51.5 -22c6.66699 -5.33301 14 -9.33301 22 -12s16.333 -4 25 -4c28.667 0 50.834 13.667 66.501 41s28.167 77.333 37.5 150l60 499h-87l5 38c57.333 0 103 1 137 3s56.333 4.66699 67 8l21 -9l-59 -485
c-12 -92.667 -38.167 -162.667 -78.5 -210s-94.166 -71 -161.499 -71z" />
    <glyph glyph-name="uni0136" unicode="&#x136;" horiz-adv-x="682" 
d="M285 0h-283l5 37h76l75 616h-76l5 37h300l-5 -37h-82l-40 -320l286 320h-94l5 37h242l-5 -37h-93l-192 -217l198 -399h46l-5 -37h-272l5 37h59l-142 292l-44 -53l-30 -239h66zM386 -129c0 -39.333 -11.3311 -76.332 -33.998 -110.999s-53 -62.334 -91 -83.001l-22 25
c20.667 12.667 38.667 28 54 46s25.666 36.333 30.999 55c-2.66699 -1.33301 -5.83398 -2.5 -9.50098 -3.5s-7.16699 -1.5 -10.5 -1.5c-19.333 0 -35 6 -47 18s-18 27.333 -18 46c0 22.667 7.33301 41.834 22 57.501s34 23.5 58 23.5c21.333 0 37.833 -6.33301 49.5 -19
s17.5 -30.334 17.5 -53.001z" />
    <glyph glyph-name="uni0137" unicode="&#x137;" horiz-adv-x="572" 
d="M334 458c-27.333 0 -52.332 -20.332 -74.999 -60.999s-38.667 -97.334 -48 -170.001l-29 -227h-137l88 711h-76l4 37c52.667 0 95.5 1 128.5 3s54.833 5 65.5 9l21 -10c-16 -110.667 -28.333 -195.834 -37 -255.501s-14 -93.834 -16 -102.501
c18 41.333 41.167 72.5 69.5 93.5s61.5 31.5 99.5 31.5s68.167 -10.167 90.5 -30.5s33.5 -47.833 33.5 -82.5c0 -36 -12 -67.167 -36 -93.5s-59.667 -47.166 -107 -62.499l103 -211h55l-3 -37h-184l-104 217l4 33c43.333 4 77.166 19.333 101.499 46
s36.5 60.334 36.5 101.001c0 20 -4 35.167 -12 45.5s-20 15.5 -36 15.5zM318.001 -128.999c0 -39.333 -11.3311 -76.332 -33.998 -110.999s-53 -62.334 -91 -83.001l-22 25c20.667 12.667 38.667 28 54 46s25.666 36.333 30.999 55
c-2.66699 -1.33301 -5.83398 -2.5 -9.50098 -3.5s-7.16699 -1.5 -10.5 -1.5c-19.333 0 -35 6 -47 18s-18 27.333 -18 46c0 22.667 7.33301 41.834 22 57.501s34 23.5 58 23.5c21.333 0 37.833 -6.33301 49.5 -19s17.5 -30.334 17.5 -53.001z" />
    <glyph glyph-name="Lacute" unicode="&#x139;" horiz-adv-x="548" 
d="M494 0h-492l5 37h76l75 616h-76l5 37h324l-5 -37h-106l-76 -616h97c49.333 0 86.5 11.833 111.5 35.5s41.167 64.5 48.5 122.5l3 29h38zM240 740l-37 -0.000976562l83 108c7.33301 10.667 16 18.334 26 23.001s22.333 7 37 7h110c16.667 0 25 -4 25 -12
s-7.33301 -16 -22 -24z" />
    <glyph glyph-name="lacute" unicode="&#x13a;" horiz-adv-x="336" 
d="M177 -13c-44 0 -75.167 12.166 -93.5 36.499s-24.5 61.5 -18.5 111.5l71 576h-77l5 37c52.667 0 95.5 1 128.5 3s54.5 5 64.5 9l21 -10l-80 -653c-2.66699 -20.667 -2.16699 -35.667 1.5 -45s10.834 -14 21.501 -14c13.333 0 24.666 9.33301 33.999 28
s16.333 47.334 21 86.001h38c-10 -64 -25.333 -107.5 -46 -130.5s-51 -34.5 -91 -34.5zM222 792.999l-37 -0.000976562l83 108c7.33301 10.667 16 18.334 26 23.001s22.333 7 37 7h110c16.667 0 25 -4 25 -12s-7.33301 -16 -22 -24z" />
    <glyph glyph-name="uni013B" unicode="&#x13b;" horiz-adv-x="548" 
d="M494 0h-492l5 37h76l75 616h-76l5 37h324l-5 -37h-106l-76 -616h97c49.333 0 86.5 11.833 111.5 35.5s41.167 64.5 48.5 122.5l3 29h38zM321 -129c0 -39.333 -11.3311 -76.332 -33.998 -110.999s-53 -62.334 -91 -83.001l-22 25c20.667 12.667 38.667 28 54 46
s25.666 36.333 30.999 55c-2.66699 -1.33301 -5.83398 -2.5 -9.50098 -3.5s-7.16699 -1.5 -10.5 -1.5c-19.333 0 -35 6 -47 18s-18 27.333 -18 46c0 22.667 7.33301 41.834 22 57.501s34 23.5 58 23.5c21.333 0 37.833 -6.33301 49.5 -19s17.5 -30.334 17.5 -53.001z" />
    <glyph glyph-name="uni013C" unicode="&#x13c;" horiz-adv-x="336" 
d="M177 -13c-44 0 -75.167 12.166 -93.5 36.499s-24.5 61.5 -18.5 111.5l71 576h-77l5 37c52.667 0 95.5 1 128.5 3s54.5 5 64.5 9l21 -10l-80 -653c-2.66699 -20.667 -2.16699 -35.667 1.5 -45s10.834 -14 21.501 -14c13.333 0 24.666 9.33301 33.999 28
s16.333 47.334 21 86.001h38c-10 -64 -25.333 -107.5 -46 -130.5s-51 -34.5 -91 -34.5zM217 -129.001c0 -39.333 -11.3311 -76.332 -33.998 -110.999s-53 -62.334 -91 -83.001l-22 25c20.667 12.667 38.667 28 54 46s25.666 36.333 30.999 55
c-2.66699 -1.33301 -5.83398 -2.5 -9.50098 -3.5s-7.16699 -1.5 -10.5 -1.5c-19.333 0 -35 6 -47 18s-18 27.333 -18 46c0 22.667 7.33301 41.834 22 57.501s34 23.5 58 23.5c21.333 0 37.833 -6.33301 49.5 -19s17.5 -30.334 17.5 -53.001z" />
    <glyph glyph-name="Lcaron" unicode="&#x13d;" horiz-adv-x="579" 
d="M494 0h-492l5 37h76l75 616h-76l5 37h324l-5 -37h-106l-76 -616h97c49.333 0 86.5 11.833 111.5 35.5s41.167 64.5 48.5 122.5l3 29h38zM594 634c0 -39.333 -11.3311 -76.332 -33.998 -110.999s-53 -62.334 -91 -83.001l-22 25c20.667 12.667 38.667 28 54 46
s25.666 36.333 30.999 55c-2.66699 -1.33301 -5.83398 -2.5 -9.50098 -3.5s-7.16699 -1.5 -10.5 -1.5c-19.333 0 -35 6 -47 18s-18 27.333 -18 46c0 22.667 7.33301 41.834 22 57.501s34 23.5 58 23.5c21.333 0 37.833 -6.33301 49.5 -19s17.5 -30.334 17.5 -53.001z" />
    <glyph glyph-name="lcaron" unicode="&#x13e;" horiz-adv-x="425" 
d="M460 691c0 -39.333 -11.3311 -76.332 -33.998 -110.999s-53 -62.334 -91 -83.001l-22 25c20.667 12.667 38.667 28 54 46s25.666 36.333 30.999 55c-2.66699 -1.33301 -5.83398 -2.5 -9.50098 -3.5s-7.16699 -1.5 -10.5 -1.5c-19.333 0 -35 6 -47 18s-18 27.333 -18 46
c0 22.667 7.33301 41.834 22 57.501s34 23.5 58 23.5c21.333 0 37.833 -6.33301 49.5 -19s17.5 -30.334 17.5 -53.001zM177.002 -12.999c-44 0 -75.167 12.166 -93.5 36.499s-24.5 61.5 -18.5 111.5l71 576h-77l5 37c52.667 0 95.5 1 128.5 3s54.5 5 64.5 9l21 -10l-80 -653
c-2.66699 -20.667 -2.16699 -35.667 1.5 -45s10.834 -14 21.501 -14c13.333 0 24.666 9.33301 33.999 28s16.333 47.334 21 86.001h38c-10 -64 -25.333 -107.5 -46 -130.5s-51 -34.5 -91 -34.5z" />
    <glyph glyph-name="Lslash" unicode="&#x141;" horiz-adv-x="559" 
d="M528 224l-28 -224h-492l5 37h76l23 192l-90 -85l8 61l90 86l44 362h-76l5 37h324l-5 -37h-106l-28 -227l121 113l-8 -62l-120 -113l-40 -327h96c49.333 0 86.5 11.833 111.5 35.5s41.167 64.5 48.5 122.5l4 29h37z" />
    <glyph glyph-name="lslash" unicode="&#x142;" horiz-adv-x="366" 
d="M197 -13c-44 0 -75 12.166 -93 36.499s-24.333 61.5 -19 111.5l16 126l-98 -97l8 61l97 98l48 388h-77l5 37c52.667 0 95.5 1 128.5 3s54.5 5 64.5 9l21 -10l-35 -285l106 105l-8 -62l-106 -105l-37 -306c-2.66699 -20.667 -2.16699 -35.667 1.5 -45
s10.834 -14 21.501 -14c13.333 0 24.666 9.33301 33.999 28s16.333 47.334 21 86.001h38c-10 -64 -25.333 -107.5 -46 -130.5s-51 -34.5 -91 -34.5z" />
    <glyph glyph-name="Nacute" unicode="&#x143;" horiz-adv-x="697" 
d="M218 0h-216l5 37h76l75 616h-76l5 37h196l253 -482l55 445h-93l5 37h216l-5 -37h-76l-80 -659h-70l-295 558l-63 -515h92zM409 740l-37 -0.000976562l83 108c7.33301 10.667 16 18.334 26 23.001s22.333 7 37 7h110c16.667 0 25 -4 25 -12s-7.33301 -16 -22 -24z" />
    <glyph glyph-name="nacute" unicode="&#x144;" horiz-adv-x="632" 
d="M476 -13c-42 0 -72 12.332 -90 36.999s-24 61.667 -18 111l28 220c4 34 2 58.833 -6 74.5s-22.667 23.5 -44 23.5c-27.333 0 -51.333 -17.167 -72 -51.5s-34.667 -81.833 -42 -142.5l-32 -259h-136l57 466h-77l5 38c46 0 83.5 1 112.5 3s48.167 4.66699 57.5 8l21 -9
l-16 -128c16.667 44.667 40.334 79 71.001 103s67 36 109 36c48 0 82.667 -14.667 104 -44s28.666 -72.333 21.999 -129l-29 -244c-2.66699 -22 -2.16699 -37.833 1.5 -47.5s10.834 -14.5 21.501 -14.5c13.333 0 24.666 9.33301 33.999 28s16.333 47.334 21 86.001h38
c-10 -64 -25.5 -107.5 -46.5 -130.5s-52.5 -34.5 -94.5 -34.5zM325 589.999l-37 -0.000976562l96 128c7.33301 10.667 16 18.334 26 23.001s22.333 7 37 7h104c16.667 0 25 -4 25 -12s-7.66699 -16 -23 -24z" />
    <glyph glyph-name="uni0145" unicode="&#x145;" horiz-adv-x="697" 
d="M218 0h-216l5 37h76l75 616h-76l5 37h196l253 -482l55 445h-93l5 37h216l-5 -37h-76l-80 -659h-70l-295 558l-63 -515h92zM381 -129c0 -39.333 -11.3311 -76.332 -33.998 -110.999s-53 -62.334 -91 -83.001l-22 25c20.667 12.667 38.667 28 54 46
s25.666 36.333 30.999 55c-2.66699 -1.33301 -5.83398 -2.5 -9.50098 -3.5s-7.16699 -1.5 -10.5 -1.5c-19.333 0 -35 6 -47 18s-18 27.333 -18 46c0 22.667 7.33301 41.834 22 57.501s34 23.5 58 23.5c21.333 0 37.833 -6.33301 49.5 -19s17.5 -30.334 17.5 -53.001z" />
    <glyph glyph-name="uni0146" unicode="&#x146;" horiz-adv-x="632" 
d="M476 -13c-42 0 -72 12.332 -90 36.999s-24 61.667 -18 111l28 220c4 34 2 58.833 -6 74.5s-22.667 23.5 -44 23.5c-27.333 0 -51.333 -17.167 -72 -51.5s-34.667 -81.833 -42 -142.5l-32 -259h-136l57 466h-77l5 38c46 0 83.5 1 112.5 3s48.167 4.66699 57.5 8l21 -9
l-16 -128c16.667 44.667 40.334 79 71.001 103s67 36 109 36c48 0 82.667 -14.667 104 -44s28.666 -72.333 21.999 -129l-29 -244c-2.66699 -22 -2.16699 -37.833 1.5 -47.5s10.834 -14.5 21.501 -14.5c13.333 0 24.666 9.33301 33.999 28s16.333 47.334 21 86.001h38
c-10 -64 -25.5 -107.5 -46.5 -130.5s-52.5 -34.5 -94.5 -34.5zM355 -129.001c0 -39.333 -11.3311 -76.332 -33.998 -110.999s-53 -62.334 -91 -83.001l-22 25c20.667 12.667 38.667 28 54 46s25.666 36.333 30.999 55c-2.66699 -1.33301 -5.83398 -2.5 -9.50098 -3.5
s-7.16699 -1.5 -10.5 -1.5c-19.333 0 -35 6 -47 18s-18 27.333 -18 46c0 22.667 7.33301 41.834 22 57.501s34 23.5 58 23.5c21.333 0 37.833 -6.33301 49.5 -19s17.5 -30.334 17.5 -53.001z" />
    <glyph glyph-name="Ncaron" unicode="&#x147;" horiz-adv-x="697" 
d="M218 0h-216l5 37h76l75 616h-76l5 37h196l253 -482l55 445h-93l5 37h216l-5 -37h-76l-80 -659h-70l-295 558l-63 -515h92zM426 753h-43l-123 176h35l124 -74l131 74h29z" />
    <glyph glyph-name="ncaron" unicode="&#x148;" horiz-adv-x="632" 
d="M476 -13c-42 0 -72 12.332 -90 36.999s-24 61.667 -18 111l28 220c4 34 2 58.833 -6 74.5s-22.667 23.5 -44 23.5c-27.333 0 -51.333 -17.167 -72 -51.5s-34.667 -81.833 -42 -142.5l-32 -259h-136l57 466h-77l5 38c46 0 83.5 1 112.5 3s48.167 4.66699 57.5 8l21 -9
l-16 -128c16.667 44.667 40.334 79 71.001 103s67 36 109 36c48 0 82.667 -14.667 104 -44s28.666 -72.333 21.999 -129l-29 -244c-2.66699 -22 -2.16699 -37.833 1.5 -47.5s10.834 -14.5 21.501 -14.5c13.333 0 24.666 9.33301 33.999 28s16.333 47.334 21 86.001h38
c-10 -64 -25.5 -107.5 -46.5 -130.5s-52.5 -34.5 -94.5 -34.5zM364 580.999h-43l-123 176h35l124 -74l131 74h29z" />
    <glyph glyph-name="Omacron" unicode="&#x14c;" horiz-adv-x="662" 
d="M639 346c-13.333 -102 -51.498 -187.5 -114.498 -256.5s-138.833 -103.5 -227.5 -103.5c-90 0 -158.167 34.5 -204.5 103.5s-63.166 154.5 -50.499 256.5c12.667 101.333 50.667 186.333 114 255s139.666 103 228.999 103s157.166 -34.333 203.499 -103
s63.166 -153.667 50.499 -255zM193.002 346c-13.333 -111.333 -11.498 -192.833 5.50195 -244.5s51.167 -77.5 102.5 -77.5c52 0 92.667 25.667 122 77s50.666 133 63.999 245c13.333 111.333 11.666 192.5 -5.00098 243.5s-50.667 76.5 -102 76.5
c-52 0 -92.667 -25.5 -122 -76.5s-51 -132.167 -65 -243.5zM544.004 801h-268l6 55h269z" />
    <glyph glyph-name="omacron" unicode="&#x14d;" horiz-adv-x="566" 
d="M533 247c-8.66699 -76 -39.001 -138.5 -91.001 -187.5s-113.333 -73.5 -184 -73.5s-127.667 26.333 -171 79s-60.666 117.334 -51.999 194.001c9.33301 76 40 138 92 186s113.667 72 185 72c70.667 0 127.5 -25.833 170.5 -77.5s59.833 -115.834 50.5 -192.501z
M175.999 259c-8.66699 -81.333 -6 -140.5 8 -177.5s40 -55.5 78 -55.5c37.333 0 66 16.667 86 50s34.667 90.333 44 171c8.66699 80.667 6.16699 139.334 -7.5 176.001s-39.5 55 -77.5 55c-37.333 0 -66 -16.333 -86 -49s-35 -89.334 -45 -170.001zM464.999 667h-268l6 55
h269z" />
    <glyph glyph-name="Ohungarumlaut" unicode="&#x150;" horiz-adv-x="662" 
d="M639 346c-13.333 -102 -51.498 -187.5 -114.498 -256.5s-138.833 -103.5 -227.5 -103.5c-90 0 -158.167 34.5 -204.5 103.5s-63.166 154.5 -50.499 256.5c12.667 101.333 50.667 186.333 114 255s139.666 103 228.999 103s157.166 -34.333 203.499 -103
s63.166 -153.667 50.499 -255zM193.002 346c-13.333 -111.333 -11.498 -192.833 5.50195 -244.5s51.167 -77.5 102.5 -77.5c52 0 92.667 25.667 122 77s50.666 133 63.999 245c13.333 111.333 11.666 192.5 -5.00098 243.5s-50.667 76.5 -102 76.5
c-52 0 -92.667 -25.5 -122 -76.5s-51 -132.167 -65 -243.5zM350.004 740h-31.998l26 112c2 8.66699 7.5 15.167 16.5 19.5s20.833 6.5 35.5 6.5h80c17.333 0 26.666 -2.66699 27.999 -8s-5.33398 -14 -20.001 -26zM470.006 740h-50l118 112
c8.66699 8.66699 18.167 15.167 28.5 19.5s21.5 6.5 33.5 6.5h99c17.333 0 25.5 -3.66699 24.5 -11s-9.83301 -15 -26.5 -23z" />
    <glyph glyph-name="ohungarumlaut" unicode="&#x151;" horiz-adv-x="566" 
d="M533 247c-8.66699 -76 -39.001 -138.5 -91.001 -187.5s-113.333 -73.5 -184 -73.5s-127.667 26.333 -171 79s-60.666 117.334 -51.999 194.001c9.33301 76 40 138 92 186s113.667 72 185 72c70.667 0 127.5 -25.833 170.5 -77.5s59.833 -115.834 50.5 -192.501z
M175.999 259c-8.66699 -81.333 -6 -140.5 8 -177.5s40 -55.5 78 -55.5c37.333 0 66 16.667 86 50s34.667 90.333 44 171c8.66699 80.667 6.16699 139.334 -7.5 176.001s-39.5 55 -77.5 55c-37.333 0 -66 -16.333 -86 -49s-35 -89.334 -45 -170.001zM284.999 589h-37.001
l43 132c2.66699 9.33301 8.33398 16.333 17.001 21s19.667 7 33 7h80c16 0 24.667 -2.83301 26 -8.5s-4.66699 -14.5 -18 -26.5zM398.998 589h-44l125 132c9.33301 9.33301 19.166 16.333 29.499 21s21.166 7 32.499 7h102c16.667 0 24.334 -3.5 23.001 -10.5
s-10.666 -15.167 -27.999 -24.5z" />
    <glyph glyph-name="OE" unicode="&#x152;" horiz-adv-x="916" 
d="M193 346c-13.333 -111.333 -11.498 -192.833 5.50195 -244.5s51.167 -77.5 102.5 -77.5c52 0 92.667 25.667 122 77s50.666 133 63.999 245c13.333 111.333 11.666 192.5 -5.00098 243.5s-50.667 76.5 -102 76.5c-52 0 -92.667 -25.5 -122 -76.5s-51 -132.167 -65 -243.5
zM297.002 -14c-90 0 -158.17 34.501 -204.503 103.501s-63.166 154.5 -50.499 256.5c12.667 101.333 50.667 186.333 114 255s139.666 103 228.999 103c16 0 31.333 -1.16699 46 -3.5s28.334 -5.83301 41.001 -10.5h429l-27 -220h-38l4 35
c6.66699 54 -1.66602 92.167 -24.999 114.5s-67.333 33.5 -132 33.5h-142c36 -28.667 62.833 -68 80.5 -118s24.167 -105 19.5 -165h77l10 74h42l-24 -195h-42l9 84h-76c-9.33301 -62.667 -29.333 -120.334 -60 -173.001s-68 -93.667 -112 -123h181
c55.333 0 96.333 11.167 123 33.5s43.667 63.833 51 124.5l4 29h38l-28 -224h-446c-14.667 -4.66699 -29.667 -8.16699 -45 -10.5s-30.666 -3.5 -45.999 -3.5z" />
    <glyph glyph-name="oe" unicode="&#x153;" horiz-adv-x="866" 
d="M533 247c-8.66699 -76 -39.001 -138.5 -91.001 -187.5s-113.333 -73.5 -184 -73.5s-127.667 26.333 -171 79s-60.666 117.334 -51.999 194.001c9.33301 76 40 138 92 186s113.667 72 185 72c70.667 0 127.5 -25.833 170.5 -77.5s59.833 -115.834 50.5 -192.501z
M175.999 259c-8.66699 -81.333 -6 -140.5 8 -177.5s40 -55.5 78 -55.5c37.333 0 66 16.667 86 50s34.667 90.333 44 171c8.66699 80.667 6.16699 139.334 -7.5 176.001s-39.5 55 -77.5 55c-37.333 0 -66 -16.333 -86 -49s-35 -89.334 -45 -170.001zM599.999 -14
c-70 0 -124.17 24.667 -162.503 74s-53.166 113 -44.499 191c9.33301 80 39 144.333 89 193s110.333 73 181 73c52 0 93.833 -12.333 125.5 -37s46.834 -56.667 45.501 -96c-1.33301 -52 -28.333 -92.167 -81 -120.5s-126.667 -43.166 -222 -44.499
c-4 -63.333 2.33301 -110.333 19 -141s44.334 -46 83.001 -46c34.667 0 63.167 10.167 85.5 30.5s39.833 52.166 52.5 95.499l39 -6c-14.667 -55.333 -39.5 -96.833 -74.5 -124.5s-80.167 -41.5 -135.5 -41.5zM648.996 479c-29.333 0 -54.001 -19 -74.001 -57
s-33.667 -92.667 -41 -164c54.667 2.66699 96 16.167 124 40.5s43 59.833 45 106.5c0.666992 23.333 -3.66602 41.5 -12.999 54.5s-23 19.5 -41 19.5z" />
    <glyph glyph-name="Racute" unicode="&#x154;" horiz-adv-x="681" 
d="M519 -14c-36 0 -63.1709 10.6709 -81.5039 32.0039s-32.166 65 -41.499 131c-5.33301 32.667 -9.66602 56.5 -12.999 71.5s-7 27.5 -11 37.5c-8 20 -18.667 34.667 -32 44s-30.666 14.666 -51.999 15.999h-29l-35 -281h95l-5 -37h-312l5 37h76l75 616h-76l5 37h238
c97.333 0 169.833 -15.5 217.5 -46.5s68.167 -75.833 61.5 -134.5c-5.33301 -45.333 -29.166 -84 -71.499 -116s-94.833 -51.333 -157.5 -58c28.667 -8.66699 52.834 -17.334 72.501 -26.001s35.5 -18.334 47.5 -29.001c13.333 -11.333 23.5 -24.5 30.5 -39.5
s12.833 -41.167 17.5 -78.5c7.33301 -61.333 12.833 -96.333 16.5 -105s9.5 -13 17.5 -13c11.333 0 20.666 8.66699 27.999 26s13.333 44.666 18 81.999h36c-8 -61.333 -22.833 -104.333 -44.5 -129s-53.5 -37 -95.5 -37zM299.996 653.004l-36.999 -297h24
c51.333 0 91.166 12.667 119.499 38s45.833 63.333 52.5 114c6 49.333 -2.33301 85.833 -25 109.5s-60 35.5 -112 35.5h-22zM371.997 740.004l-37 -0.000976562l83 108c7.33301 10.667 16 18.334 26 23.001s22.333 7 37 7h110c16.667 0 25 -4 25 -12s-7.33301 -16 -22 -24z
" />
    <glyph glyph-name="racute" unicode="&#x155;" horiz-adv-x="491" 
d="M200 0l-135.998 0.00195312l57 466h-77l5 38c46 0 83.5 1 112.5 3s48.167 4.66699 57.5 8l21 -9l-18 -146c14.667 49.333 35.667 87.833 63 115.5s59 41.5 95 41.5c33.333 0 59.666 -8.83301 78.999 -26.5s29 -41.5 29 -71.5c0 -28.667 -8.33301 -52.334 -25 -71.001
s-37.667 -28 -63 -28c-22.667 0 -40.334 6.16699 -53.001 18.5s-19 29.5 -19 51.5c0 16 3.83301 30.167 11.5 42.5s17.5 21.166 29.5 26.499c-2 0.666992 -4.16699 1.16699 -6.5 1.5s-4.83301 0.5 -7.5 0.5c-28 0 -54 -21.5 -78 -64.5s-40.333 -98.833 -49 -167.5z
M301.002 590.002l-37 -0.000976562l96 128c7.33301 10.667 16 18.334 26 23.001s22.333 7 37 7h104c16.667 0 25 -4 25 -12s-7.66699 -16 -23 -24z" />
    <glyph glyph-name="uni0156" unicode="&#x156;" horiz-adv-x="681" 
d="M519 -14c-36 0 -63.1709 10.6709 -81.5039 32.0039s-32.166 65 -41.499 131c-5.33301 32.667 -9.66602 56.5 -12.999 71.5s-7 27.5 -11 37.5c-8 20 -18.667 34.667 -32 44s-30.666 14.666 -51.999 15.999h-29l-35 -281h95l-5 -37h-312l5 37h76l75 616h-76l5 37h238
c97.333 0 169.833 -15.5 217.5 -46.5s68.167 -75.833 61.5 -134.5c-5.33301 -45.333 -29.166 -84 -71.499 -116s-94.833 -51.333 -157.5 -58c28.667 -8.66699 52.834 -17.334 72.501 -26.001s35.5 -18.334 47.5 -29.001c13.333 -11.333 23.5 -24.5 30.5 -39.5
s12.833 -41.167 17.5 -78.5c7.33301 -61.333 12.833 -96.333 16.5 -105s9.5 -13 17.5 -13c11.333 0 20.666 8.66699 27.999 26s13.333 44.666 18 81.999h36c-8 -61.333 -22.833 -104.333 -44.5 -129s-53.5 -37 -95.5 -37zM299.996 653.004l-36.999 -297h24
c51.333 0 91.166 12.667 119.499 38s45.833 63.333 52.5 114c6 49.333 -2.33301 85.833 -25 109.5s-60 35.5 -112 35.5h-22zM378.997 -128.996c0 -39.333 -11.3311 -76.332 -33.998 -110.999s-53 -62.334 -91 -83.001l-22 25c20.667 12.667 38.667 28 54 46
s25.666 36.333 30.999 55c-2.66699 -1.33301 -5.83398 -2.5 -9.50098 -3.5s-7.16699 -1.5 -10.5 -1.5c-19.333 0 -35 6 -47 18s-18 27.333 -18 46c0 22.667 7.33301 41.834 22 57.501s34 23.5 58 23.5c21.333 0 37.833 -6.33301 49.5 -19s17.5 -30.334 17.5 -53.001z" />
    <glyph glyph-name="uni0157" unicode="&#x157;" horiz-adv-x="491" 
d="M200 0l-135.998 0.00195312l57 466h-77l5 38c46 0 83.5 1 112.5 3s48.167 4.66699 57.5 8l21 -9l-18 -146c14.667 49.333 35.667 87.833 63 115.5s59 41.5 95 41.5c33.333 0 59.666 -8.83301 78.999 -26.5s29 -41.5 29 -71.5c0 -28.667 -8.33301 -52.334 -25 -71.001
s-37.667 -28 -63 -28c-22.667 0 -40.334 6.16699 -53.001 18.5s-19 29.5 -19 51.5c0 16 3.83301 30.167 11.5 42.5s17.5 21.166 29.5 26.499c-2 0.666992 -4.16699 1.16699 -6.5 1.5s-4.83301 0.5 -7.5 0.5c-28 0 -54 -21.5 -78 -64.5s-40.333 -98.833 -49 -167.5z
M196.002 -128.998c0 -39.333 -11.3311 -76.332 -33.998 -110.999s-53 -62.334 -91 -83.001l-22 25c20.667 12.667 38.667 28 54 46s25.666 36.333 30.999 55c-2.66699 -1.33301 -5.83398 -2.5 -9.50098 -3.5s-7.16699 -1.5 -10.5 -1.5c-19.333 0 -35 6 -47 18
s-18 27.333 -18 46c0 22.667 7.33301 41.834 22 57.501s34 23.5 58 23.5c21.333 0 37.833 -6.33301 49.5 -19s17.5 -30.334 17.5 -53.001z" />
    <glyph glyph-name="Rcaron" unicode="&#x158;" horiz-adv-x="681" 
d="M519 -14c-36 0 -63.1709 10.6709 -81.5039 32.0039s-32.166 65 -41.499 131c-5.33301 32.667 -9.66602 56.5 -12.999 71.5s-7 27.5 -11 37.5c-8 20 -18.667 34.667 -32 44s-30.666 14.666 -51.999 15.999h-29l-35 -281h95l-5 -37h-312l5 37h76l75 616h-76l5 37h238
c97.333 0 169.833 -15.5 217.5 -46.5s68.167 -75.833 61.5 -134.5c-5.33301 -45.333 -29.166 -84 -71.499 -116s-94.833 -51.333 -157.5 -58c28.667 -8.66699 52.834 -17.334 72.501 -26.001s35.5 -18.334 47.5 -29.001c13.333 -11.333 23.5 -24.5 30.5 -39.5
s12.833 -41.167 17.5 -78.5c7.33301 -61.333 12.833 -96.333 16.5 -105s9.5 -13 17.5 -13c11.333 0 20.666 8.66699 27.999 26s13.333 44.666 18 81.999h36c-8 -61.333 -22.833 -104.333 -44.5 -129s-53.5 -37 -95.5 -37zM299.996 653.004l-36.999 -297h24
c51.333 0 91.166 12.667 119.499 38s45.833 63.333 52.5 114c6 49.333 -2.33301 85.833 -25 109.5s-60 35.5 -112 35.5h-22zM380.997 753.004h-43l-123 176h35l124 -74l131 74h29z" />
    <glyph glyph-name="rcaron" unicode="&#x159;" horiz-adv-x="491" 
d="M200 0l-135.998 0.00195312l57 466h-77l5 38c46 0 83.5 1 112.5 3s48.167 4.66699 57.5 8l21 -9l-18 -146c14.667 49.333 35.667 87.833 63 115.5s59 41.5 95 41.5c33.333 0 59.666 -8.83301 78.999 -26.5s29 -41.5 29 -71.5c0 -28.667 -8.33301 -52.334 -25 -71.001
s-37.667 -28 -63 -28c-22.667 0 -40.334 6.16699 -53.001 18.5s-19 29.5 -19 51.5c0 16 3.83301 30.167 11.5 42.5s17.5 21.166 29.5 26.499c-2 0.666992 -4.16699 1.16699 -6.5 1.5s-4.83301 0.5 -7.5 0.5c-28 0 -54 -21.5 -78 -64.5s-40.333 -98.833 -49 -167.5z
M296.002 581.002h-43l-123 176h35l124 -74l131 74h29z" />
    <glyph glyph-name="Sacute" unicode="&#x15a;" horiz-adv-x="533" 
d="M491 200c-8 -67.333 -32.8281 -119.83 -74.4951 -157.497s-96.5 -56.5 -164.5 -56.5c-33.333 0 -63 4 -89 12s-50.667 21 -74 39l-45 -47h-23l29 233h38c-7.33301 -56 4.66699 -102.667 36 -140s75.333 -56 132 -56c42.667 0 76 9.5 100 28.5s38.333 46.833 43 83.5
c2.66699 22.667 0.166992 41.667 -7.5 57s-21.5 28.333 -41.5 39c-14 7.33301 -35.667 15.666 -65 24.999s-44.333 14 -45 14c-64 19.333 -108.333 47.5 -133 84.5s-33.334 84.833 -26.001 143.5c8.66699 63.333 33 112.833 73 148.5s93 53.5 159 53.5
c30.667 0 58.667 -4.33301 84 -13s44.666 -20.667 57.999 -36l42 45h22l-28 -230h-38c6.66699 53.333 -3.83301 98.5 -31.5 135.5s-65.167 55.5 -112.5 55.5c-39.333 0 -71 -9.33301 -95 -28s-38 -45 -42 -79c-2.66699 -22 -0.333984 -40.5 6.99902 -55.5
s20.333 -27.833 39 -38.5c8 -4.66699 17.5 -9.33398 28.5 -14.001s36.833 -13.667 77.5 -27c71.333 -24 118.666 -52.833 141.999 -86.5s31.666 -77.834 24.999 -132.501zM331.005 740.003l-37 -0.000976562l83 108c7.33301 10.667 16 18.334 26 23.001s22.333 7 37 7h110
c16.667 0 25 -4 25 -12s-7.33301 -16 -22 -24z" />
    <glyph glyph-name="sacute" unicode="&#x15b;" horiz-adv-x="455" 
d="M276 590l-37 -0.000976562l96 128c7.33301 10.667 16 18.334 26 23.001s22.333 7 37 7h104c16.667 0 25 -4 25 -12s-7.66699 -16 -23 -24zM37 -14.001l-23 0.000976562l23 184h38c-4.66699 -40.667 4.33301 -74.834 27 -102.501s52.667 -41.5 90 -41.5
c32.667 0 58.167 7.16699 76.5 21.5s27.5 34.5 27.5 60.5c0 13.333 -3 25 -9 35s-16 19 -30 27c-5.33301 4 -12 7.66699 -20 11s-25.667 10 -53 20c-41.333 13.333 -72.166 33 -92.499 59s-29.833 58 -28.5 96c2 48.667 19.667 87.667 53 117s77 44 131 44
c24 0 45.833 -2.66699 65.5 -8s36.167 -13.333 49.5 -24l27 32h22l-22 -178h-38c4.66699 44 -2.16602 78.5 -20.499 103.5s-45.166 37.5 -80.499 37.5c-26 0 -47 -6.66699 -63 -20s-24 -31.333 -24 -54c-0.666992 -20 5.16602 -36.667 17.499 -50s38.5 -27.666 78.5 -42.999
c51.333 -19.333 87.166 -41.833 107.499 -67.5s29.5 -56.834 27.5 -93.501c-2.66699 -52 -20.834 -92.667 -54.501 -122s-79.5 -44 -137.5 -44c-26 0 -50.833 3.66699 -74.5 11s-43.5 17.333 -59.5 30z" />
    <glyph glyph-name="Scaron" unicode="&#x160;" horiz-adv-x="533" 
d="M491 200c-8 -67.333 -32.8281 -119.83 -74.4951 -157.497s-96.5 -56.5 -164.5 -56.5c-33.333 0 -63 4 -89 12s-50.667 21 -74 39l-45 -47h-23l29 233h38c-7.33301 -56 4.66699 -102.667 36 -140s75.333 -56 132 -56c42.667 0 76 9.5 100 28.5s38.333 46.833 43 83.5
c2.66699 22.667 0.166992 41.667 -7.5 57s-21.5 28.333 -41.5 39c-14 7.33301 -35.667 15.666 -65 24.999s-44.333 14 -45 14c-64 19.333 -108.333 47.5 -133 84.5s-33.334 84.833 -26.001 143.5c8.66699 63.333 33 112.833 73 148.5s93 53.5 159 53.5
c30.667 0 58.667 -4.33301 84 -13s44.666 -20.667 57.999 -36l42 45h22l-28 -230h-38c6.66699 53.333 -3.83301 98.5 -31.5 135.5s-65.167 55.5 -112.5 55.5c-39.333 0 -71 -9.33301 -95 -28s-38 -45 -42 -79c-2.66699 -22 -0.333984 -40.5 6.99902 -55.5
s20.333 -27.833 39 -38.5c8 -4.66699 17.5 -9.33398 28.5 -14.001s36.833 -13.667 77.5 -27c71.333 -24 118.666 -52.833 141.999 -86.5s31.666 -77.834 24.999 -132.501zM355.005 753.003h-43l-123 176h35l124 -74l131 74h29z" />
    <glyph glyph-name="scaron" unicode="&#x161;" horiz-adv-x="455" 
d="M291 581h-43l-123 176h35l124 -74l131 74h29zM37 -14l-23 0.000976562l23 184h38c-4.66699 -40.667 4.33301 -74.834 27 -102.501s52.667 -41.5 90 -41.5c32.667 0 58.167 7.16699 76.5 21.5s27.5 34.5 27.5 60.5c0 13.333 -3 25 -9 35s-16 19 -30 27
c-5.33301 4 -12 7.66699 -20 11s-25.667 10 -53 20c-41.333 13.333 -72.166 33 -92.499 59s-29.833 58 -28.5 96c2 48.667 19.667 87.667 53 117s77 44 131 44c24 0 45.833 -2.66699 65.5 -8s36.167 -13.333 49.5 -24l27 32h22l-22 -178h-38
c4.66699 44 -2.16602 78.5 -20.499 103.5s-45.166 37.5 -80.499 37.5c-26 0 -47 -6.66699 -63 -20s-24 -31.333 -24 -54c-0.666992 -20 5.16602 -36.667 17.499 -50s38.5 -27.666 78.5 -42.999c51.333 -19.333 87.166 -41.833 107.499 -67.5s29.5 -56.834 27.5 -93.501
c-2.66699 -52 -20.834 -92.667 -54.501 -122s-79.5 -44 -137.5 -44c-26 0 -50.833 3.66699 -74.5 11s-43.5 17.333 -59.5 30z" />
    <glyph glyph-name="Tcaron" unicode="&#x164;" horiz-adv-x="579" 
d="M424 0h-337l5 37h97l76 616h-29c-50.667 -1.33301 -87.167 -13 -109.5 -35s-36.833 -59.667 -43.5 -113l-3 -35h-38l27 220h542l-27 -220h-37l4 35c6.66699 54 1.5 91.833 -15.5 113.5s-50.5 33.167 -100.5 34.5h-29l-75 -616h98zM373 753h-43l-123 176h35l124 -74
l131 74h29z" />
    <glyph glyph-name="tcaron" unicode="&#x165;" horiz-adv-x="422" 
d="M481 785c0 -39.333 -11.3311 -76.332 -33.998 -110.999s-53 -62.334 -91 -83.001l-22 25c20.667 12.667 38.667 28 54 46s25.666 36.333 30.999 55c-2.66699 -1.33301 -5.83398 -2.5 -9.50098 -3.5s-7.16699 -1.5 -10.5 -1.5c-19.333 0 -35 6 -47 18s-18 27.333 -18 46
c0 22.667 7.33301 41.834 22 57.501s34 23.5 58 23.5c21.333 0 37.833 -6.33301 49.5 -19s17.5 -30.334 17.5 -53.001zM196.002 -13.999c-48.667 0 -83.668 12.833 -105.001 38.5s-29 64.167 -23 115.5l40 326h-80l5 34c52.667 0 96.5 15.5 131.5 46.5
s59.167 76.167 72.5 135.5h35l-23 -178h139l-5 -38h-138l-43 -352c-4 -28 -3 -48.833 3 -62.5s17.333 -20.5 34 -20.5c20.667 0 36.834 10.833 48.501 32.5s21.167 57.167 28.5 106.5h37c-10 -70.667 -26.667 -119 -50 -145s-59 -39 -107 -39z" />
    <glyph glyph-name="Umacron" unicode="&#x16a;" horiz-adv-x="650" 
d="M305 -14c-84 0 -143.335 20.5 -178.002 61.5s-46.667 105.167 -36 192.5l50 413h-75l5 37h307l-5 -37h-90l-53 -435c-8.66699 -66.667 -4 -115.167 14 -145.5s49.667 -45.5 95 -45.5c47.333 0 84 15.667 110 47s43.333 82 52 152l53 427h-90l5 37h213l-5 -37h-76
l-51 -417c-11.333 -89.333 -36.166 -153.333 -74.499 -192s-95.166 -58 -170.499 -58zM551.998 801h-268l6 55h269z" />
    <glyph glyph-name="umacron" unicode="&#x16b;" horiz-adv-x="627" 
d="M382 144c-14.667 -52 -37.166 -91.3301 -67.499 -117.997s-67.5 -40 -111.5 -40c-47.333 0 -82.666 15.667 -105.999 47s-31.666 74.666 -24.999 129.999l37 301h-76l5 38c54.667 0 98 0.833008 130 2.5s52.667 4.5 62 8.5l21 -9l-43 -351
c-4 -34.667 -1.83301 -60.334 6.5 -77.001s23.166 -25 44.499 -25c28.667 0 52.167 16.333 70.5 49s31.5 81 39.5 145l27 219h-59l5 38c49.333 0 88.666 1 117.999 3s48.333 4.66699 57 8l21 -9l-49 -404c-2.66699 -20.667 -2 -36.167 2 -46.5s11.333 -15.5 22 -15.5
c14 0 25.167 9.16699 33.5 27.5s14.833 47.166 19.5 86.499h38c-9.33301 -65.333 -23.833 -109.166 -43.5 -131.499s-49.5 -33.5 -89.5 -33.5c-31.333 0 -54.833 9 -70.5 27s-23.5 45 -23.5 81l0.5 5c0.333008 3.33301 1.16602 10 2.49902 20
c0.666992 9.33301 1.16699 15.666 1.5 18.999zM494.001 667.003h-268l6 55h269z" />
    <glyph glyph-name="Uring" unicode="&#x16e;" horiz-adv-x="650" 
d="M305 -14c-84 0 -143.335 20.5 -178.002 61.5s-46.667 105.167 -36 192.5l50 413h-75l5 37h307l-5 -37h-90l-53 -435c-8.66699 -66.667 -4 -115.167 14 -145.5s49.667 -45.5 95 -45.5c47.333 0 84 15.667 110 47s43.333 82 52 152l53 427h-90l5 37h213l-5 -37h-76
l-51 -417c-11.333 -89.333 -36.166 -153.333 -74.499 -192s-95.166 -58 -170.499 -58zM513.998 827c-4 -25.333 -14.832 -45.832 -32.499 -61.499s-40.167 -23.5 -67.5 -23.5c-29.333 0 -51 8 -65 24s-19.667 37 -17 63c3.33301 25.333 14.166 46.166 32.499 62.499
s41.833 24.5 70.5 24.5s50 -8.5 64 -25.5s19 -38.167 15 -63.5zM381.999 829.001c-1.33301 -12.667 1.16797 -22.999 7.50098 -30.999s16.166 -12 29.499 -12c12.667 0 23 3.66699 31 11s13 17.333 15 30c2 13.333 0 24.166 -6 32.499s-16 12.5 -30 12.5
s-25 -3.66699 -33 -11s-12.667 -18 -14 -32z" />
    <glyph glyph-name="uring" unicode="&#x16f;" horiz-adv-x="627" 
d="M382 144c-14.667 -52 -37.166 -91.3301 -67.499 -117.997s-67.5 -40 -111.5 -40c-47.333 0 -82.666 15.667 -105.999 47s-31.666 74.666 -24.999 129.999l37 301h-76l5 38c54.667 0 98 0.833008 130 2.5s52.667 4.5 62 8.5l21 -9l-43 -351
c-4 -34.667 -1.83301 -60.334 6.5 -77.001s23.166 -25 44.499 -25c28.667 0 52.167 16.333 70.5 49s31.5 81 39.5 145l27 219h-59l5 38c49.333 0 88.666 1 117.999 3s48.333 4.66699 57 8l21 -9l-49 -404c-2.66699 -20.667 -2 -36.167 2 -46.5s11.333 -15.5 22 -15.5
c14 0 25.167 9.16699 33.5 27.5s14.833 47.166 19.5 86.499h38c-9.33301 -65.333 -23.833 -109.166 -43.5 -131.499s-49.5 -33.5 -89.5 -33.5c-31.333 0 -54.833 9 -70.5 27s-23.5 45 -23.5 81l0.5 5c0.333008 3.33301 1.16602 10 2.49902 20
c0.666992 9.33301 1.16699 15.666 1.5 18.999zM434.001 677.003c-4 -25.333 -14.832 -45.832 -32.499 -61.499s-40.167 -23.5 -67.5 -23.5c-29.333 0 -51 8 -65 24s-19.667 37 -17 63c3.33301 25.333 14.166 46.166 32.499 62.499s41.833 24.5 70.5 24.5s50 -8.5 64 -25.5
s19 -38.167 15 -63.5zM302.002 679.004c-1.33301 -12.667 1.16797 -22.999 7.50098 -30.999s16.166 -12 29.499 -12c12.667 0 23 3.66699 31 11s13 17.333 15 30c2 13.333 0 24.166 -6 32.499s-16 12.5 -30 12.5s-25 -3.66699 -33 -11s-12.667 -18 -14 -32z" />
    <glyph glyph-name="Uhungarumlaut" unicode="&#x170;" horiz-adv-x="650" 
d="M375 740h-31.998l26 112c2 8.66699 7.5 15.167 16.5 19.5s20.833 6.5 35.5 6.5h80c17.333 0 26.666 -2.66699 27.999 -8s-5.33398 -14 -20.001 -26zM495.002 740h-50l118 112c8.66699 8.66699 18.167 15.167 28.5 19.5s21.5 6.5 33.5 6.5h99
c17.333 0 25.5 -3.66699 24.5 -11s-9.83301 -15 -26.5 -23zM305.002 -14c-84 0 -143.335 20.5 -178.002 61.5s-46.667 105.167 -36 192.5l50 413h-75l5 37h307l-5 -37h-90l-53 -435c-8.66699 -66.667 -4 -115.167 14 -145.5s49.667 -45.5 95 -45.5
c47.333 0 84 15.667 110 47s43.333 82 52 152l53 427h-90l5 37h213l-5 -37h-76l-51 -417c-11.333 -89.333 -36.166 -153.333 -74.499 -192s-95.166 -58 -170.499 -58z" />
    <glyph glyph-name="uhungarumlaut" unicode="&#x171;" horiz-adv-x="627" 
d="M382 144c-14.667 -52 -37.166 -91.3301 -67.499 -117.997s-67.5 -40 -111.5 -40c-47.333 0 -82.666 15.667 -105.999 47s-31.666 74.666 -24.999 129.999l37 301h-76l5 38c54.667 0 98 0.833008 130 2.5s52.667 4.5 62 8.5l21 -9l-43 -351
c-4 -34.667 -1.83301 -60.334 6.5 -77.001s23.166 -25 44.499 -25c28.667 0 52.167 16.333 70.5 49s31.5 81 39.5 145l27 219h-59l5 38c49.333 0 88.666 1 117.999 3s48.333 4.66699 57 8l21 -9l-49 -404c-2.66699 -20.667 -2 -36.167 2 -46.5s11.333 -15.5 22 -15.5
c14 0 25.167 9.16699 33.5 27.5s14.833 47.166 19.5 86.499h38c-9.33301 -65.333 -23.833 -109.166 -43.5 -131.499s-49.5 -33.5 -89.5 -33.5c-31.333 0 -54.833 9 -70.5 27s-23.5 45 -23.5 81l0.5 5c0.333008 3.33301 1.16602 10 2.49902 20
c0.666992 9.33301 1.16699 15.666 1.5 18.999zM300.001 589.003h-37.001l43 132c2.66699 9.33301 8.33398 16.333 17.001 21s19.667 7 33 7h80c16 0 24.667 -2.83301 26 -8.5s-4.66699 -14.5 -18 -26.5zM414 589.003h-44l125 132c9.33301 9.33301 19.166 16.333 29.499 21
s21.166 7 32.499 7h102c16.667 0 24.334 -3.5 23.001 -10.5s-10.666 -15.167 -27.999 -24.5z" />
    <glyph glyph-name="Uogonek" unicode="&#x172;" horiz-adv-x="650" 
d="M330 -149c-36 0 -64.0039 6.49707 -84.0039 19.4971s-29.333 30.833 -28 53.5c1.33301 14.667 6.83301 27.334 16.5 38.001s22.834 19.334 39.501 26.001c-73.333 4.66699 -124.833 27.334 -154.5 68.001s-39.167 102 -28.5 184l50 413h-75l5 37h307l-5 -37h-90l-53 -435
c-8.66699 -66.667 -4 -115.167 14 -145.5s49.667 -45.5 95 -45.5c47.333 0 84 15.667 110 47s43.333 82 52 152l53 427h-90l5 37h213l-5 -37h-76l-51 -417c-9.33301 -74.667 -28.166 -131.167 -56.499 -169.5s-69.166 -62.833 -122.499 -73.5
c-17.333 -3.33301 -31.333 -10 -42 -20s-16.667 -21.667 -18 -35c-1.33301 -15.333 3.83398 -27.5 15.501 -36.5s27.5 -13.5 47.5 -13.5c11.333 0 22 1.83301 32 5.5s18 8.5 24 14.5l13 -17c-10.667 -13.333 -25.5 -23.333 -44.5 -30s-41.833 -10 -68.5 -10z" />
    <glyph glyph-name="uogonek" unicode="&#x173;" horiz-adv-x="626" 
d="M499 -137c-36 0 -63.167 6.00391 -81.5 18.0039s-26.166 28.667 -23.499 50c1.33301 14 7.16602 26 17.499 36s25.166 17.667 44.499 23c-28 4.66699 -48.333 15.334 -61 32.001s-18.667 41 -18 73l0.5 5c0.333008 3.33301 1.16602 10 2.49902 20
c0.666992 9.33301 1.16699 15.666 1.5 18.999l0.5 5c-14.667 -52 -37.167 -91.333 -67.5 -118s-67.5 -40 -111.5 -40c-47.333 0 -82.666 15.667 -105.999 47s-31.666 74.666 -24.999 129.999l37 301h-76l5 38c54.667 0 98 0.833008 130 2.5s52.667 4.5 62 8.5l21 -9
l-43 -351c-4 -34.667 -1.83301 -60.334 6.5 -77.001s23.166 -25 44.499 -25c28.667 0 52.167 16.333 70.5 49s31.5 81 39.5 145l27 219h-59l5 38c49.333 0 88.666 1 117.999 3s48.333 4.66699 57 8l21 -9l-49 -404c-2.66699 -20.667 -2 -36.167 2 -46.5
s11.333 -15.5 22 -15.5c14 0 25.167 9.16699 33.5 27.5s14.833 47.166 19.5 86.499h38c-6.66699 -49.333 -15.667 -85.5 -27 -108.5s-27.333 -38.5 -48 -46.5c-12.667 -4.66699 -22.5 -10.834 -29.5 -18.501s-11.167 -17.167 -12.5 -28.5
c-2 -15.333 2.16699 -27.5 12.5 -36.5s24.833 -13.5 43.5 -13.5c12 0 22.833 1.66699 32.5 5s17.834 8 24.501 14l10 -16c-12 -14 -27.167 -24.167 -45.5 -30.5s-40.166 -9.5 -65.499 -9.5z" />
    <glyph glyph-name="Ydieresis" unicode="&#x178;" horiz-adv-x="595" 
d="M395 829c-0.666992 -21.333 -9.16602 -40.002 -25.499 -56.002s-36.833 -24 -61.5 -24c-22.667 0 -40.167 6.83301 -52.5 20.5s-18.166 31.5 -17.499 53.5c1.33301 22.667 10.166 41.834 26.499 57.501s37.166 23.5 62.499 23.5c22 0 39.167 -7.16699 51.5 -21.5
s17.833 -32.166 16.5 -53.499zM608.001 828.998c-0.666992 -21.333 -9.16602 -40.002 -25.499 -56.002s-37.166 -24 -62.499 -24c-22.667 0 -40 6.83301 -52 20.5s-17.667 31.5 -17 53.5c1.33301 22.667 10.166 41.834 26.499 57.501s37.166 23.5 62.499 23.5
c22 0 39.167 -7.16699 51.5 -21.5s17.833 -32.166 16.5 -53.499zM432.002 -0.00390625h-307l5 37h82l33 272l-137 344h-67l5 37h319l-5 -37h-97l109 -275l171 275h-85l5 37h202l-5 -37h-68l-202 -323l-36 -293h83z" />
    <glyph glyph-name="Zacute" unicode="&#x179;" horiz-adv-x="540" 
d="M481 0h-480.998l3 27l403 626h-132c-54 0 -93.333 -11 -118 -33s-40.334 -60.333 -47.001 -115l-4 -35h-38l27 220h463l-4 -27l-404 -626h163c48 0 84.167 11.833 108.5 35.5s40.166 64.5 47.499 122.5l3 29h38zM339.002 740l-37 -0.000976562l83 108
c7.33301 10.667 16 18.334 26 23.001s22.333 7 37 7h110c16.667 0 25 -4 25 -12s-7.33301 -16 -22 -24z" />
    <glyph glyph-name="zacute" unicode="&#x17a;" horiz-adv-x="482" 
d="M408 0h-409l3 27l310 439h-95c-39.333 0 -68.333 -8.5 -87 -25.5s-31 -48.5 -37 -94.5l-2 -22h-38l22 180h393l-3 -28l-310 -439h112c38.667 0 67.5 9 86.5 27s31.167 50.333 36.5 97l3 23h37zM249 590l-37 -0.000976562l96 128c7.33301 10.667 16 18.334 26 23.001
s22.333 7 37 7h104c16.667 0 25 -4 25 -12s-7.66699 -16 -23 -24z" />
    <glyph glyph-name="Zdotaccent" unicode="&#x17b;" horiz-adv-x="540" 
d="M481 0h-480.998l3 27l403 626h-132c-54 0 -93.333 -11 -118 -33s-40.334 -60.333 -47.001 -115l-4 -35h-38l27 220h463l-4 -27l-404 -626h163c48 0 84.167 11.833 108.5 35.5s40.166 64.5 47.499 122.5l3 29h38zM441.002 833c-1.33301 -22.667 -10.833 -42 -28.5 -58
s-40.167 -24 -67.5 -24c-25.333 0 -44.666 7.16699 -57.999 21.5s-19.333 32.5 -18 54.5c1.33301 23.333 10.833 43 28.5 59s40.167 24 67.5 24c25.333 0 44.666 -7.33301 57.999 -22s19.333 -33 18 -55z" />
    <glyph glyph-name="zdotaccent" unicode="&#x17c;" horiz-adv-x="482" 
d="M408 0h-409l3 27l310 439h-95c-39.333 0 -68.333 -8.5 -87 -25.5s-31 -48.5 -37 -94.5l-2 -22h-38l22 180h393l-3 -28l-310 -439h112c38.667 0 67.5 9 86.5 27s31.167 50.333 36.5 97l3 23h37zM383 673c-1.33301 -22.667 -10.833 -42 -28.5 -58s-40.167 -24 -67.5 -24
c-25.333 0 -44.666 7.16699 -57.999 21.5s-19.333 32.5 -18 54.5c1.33301 23.333 10.833 43 28.5 59s40.167 24 67.5 24c25.333 0 44.666 -7.33301 57.999 -22s19.333 -33 18 -55z" />
    <glyph glyph-name="Zcaron" unicode="&#x17d;" horiz-adv-x="540" 
d="M481 0h-480.998l3 27l403 626h-132c-54 0 -93.333 -11 -118 -33s-40.334 -60.333 -47.001 -115l-4 -35h-38l27 220h463l-4 -27l-404 -626h163c48 0 84.167 11.833 108.5 35.5s40.166 64.5 47.499 122.5l3 29h38zM359.002 753h-43l-123 176h35l124 -74l131 74h29z" />
    <glyph glyph-name="zcaron" unicode="&#x17e;" horiz-adv-x="482" 
d="M408 0h-409l3 27l310 439h-95c-39.333 0 -68.333 -8.5 -87 -25.5s-31 -48.5 -37 -94.5l-2 -22h-38l22 180h393l-3 -28l-310 -439h112c38.667 0 67.5 9 86.5 27s31.167 50.333 36.5 97l3 23h37zM303 581h-43l-123 176h35l124 -74l131 74h29z" />
    <glyph glyph-name="uni0192" unicode="&#x192;" horiz-adv-x="373" 
d="M-37 -259c-40 0 -72.001 9 -96.001 27s-36 43 -36 75c0 26 7.33301 47.167 22 63.5s34.334 24.5 59.001 24.5c20 0 35.833 -5.66699 47.5 -17s17.5 -26.666 17.5 -45.999c0 -21.333 -6.5 -38.833 -19.5 -52.5s-30.833 -21.834 -53.5 -24.501
c4.66699 -4 11.334 -7.33301 20.001 -10s17.667 -4 27 -4c28.667 0 52 12.667 70 38s30.333 63.333 37 114l66 537h-79l4 38h80c10 82.667 37.333 146.667 82 192s101.334 68 170.001 68c40 0 72 -9.16699 96 -27.5s36 -43.5 36 -75.5c0 -26 -7.16699 -47 -21.5 -63
s-33.833 -24 -58.5 -24c-20 0 -36 5.66699 -48 17s-18 26.333 -18 45c0 22 6.5 39.833 19.5 53.5s30.833 21.834 53.5 24.501c-4.66699 4 -11.167 7.16699 -19.5 9.5s-17.5 3.5 -27.5 3.5c-33.333 0 -59.833 -12.333 -79.5 -37s-32.834 -62.667 -39.501 -114l-10 -72h117
l-4 -38h-117l-54 -440c-12 -92.667 -38.833 -163.334 -80.5 -212.001s-95.834 -73 -162.501 -73z" />
    <glyph glyph-name="circumflex" unicode="&#x2c6;" horiz-adv-x="412" 
d="M119 581h-35l163 176h43l113 -176h-29l-118 74z" />
    <glyph glyph-name="caron" unicode="&#x2c7;" horiz-adv-x="412" 
d="M272 581h-43l-123 176h35l124 -74l131 74h29z" />
    <glyph glyph-name="breve" unicode="&#x2d8;" horiz-adv-x="438" 
d="M261 581c-51.333 0 -89.4971 16.6689 -114.497 50.002s-33.5 77.666 -25.5 132.999h28c-4.66699 -35.333 3.16602 -62.5 23.499 -81.5s52.5 -28.5 96.5 -28.5c42 0 74.667 8.66699 98 26s38.666 45.333 45.999 84h24c-5.33301 -56.667 -23.333 -101.334 -54 -134.001
s-71.334 -49 -122.001 -49z" />
    <glyph glyph-name="dotaccent" unicode="&#x2d9;" horiz-adv-x="238" 
d="M268 673c-1.33301 -22.667 -10.833 -42 -28.5 -58s-40.167 -24 -67.5 -24c-25.333 0 -44.666 7.16699 -57.999 21.5s-19.333 32.5 -18 54.5c1.33301 23.333 10.833 43 28.5 59s40.167 24 67.5 24c25.333 0 44.666 -7.33301 57.999 -22s19.333 -33 18 -55z" />
    <glyph glyph-name="ring" unicode="&#x2da;" horiz-adv-x="283" 
d="M282 677c-4 -25.333 -14.832 -45.832 -32.499 -61.499s-40.167 -23.5 -67.5 -23.5c-29.333 0 -51 8 -65 24s-19.667 37 -17 63c3.33301 25.333 14.166 46.166 32.499 62.499s41.833 24.5 70.5 24.5s50 -8.5 64 -25.5s19 -38.167 15 -63.5zM150.001 679.001
c-1.33301 -12.667 1.16797 -22.999 7.50098 -30.999s16.166 -12 29.499 -12c12.667 0 23 3.66699 31 11s13 17.333 15 30c2 13.333 0 24.166 -6 32.499s-16 12.5 -30 12.5s-25 -3.66699 -33 -11s-12.667 -18 -14 -32z" />
    <glyph glyph-name="ogonek" unicode="&#x2db;" horiz-adv-x="494" 
d="M226 -137c-35.333 0 -62.5 6.83301 -81.5 20.5s-27.167 32.167 -24.5 55.5c3.33301 24.667 18 43.167 44 55.5s64 18.5 114 18.5l-1 -13c-16.667 0 -30.834 -4.5 -42.501 -13.5s-18.5 -21.167 -20.5 -36.5s2 -27.5 12 -36.5s24.667 -13.5 44 -13.5
c12 0 22.833 1.66699 32.5 5s17.834 8 24.501 14l11 -16c-14 -14.667 -29.833 -25 -47.5 -31s-39.167 -9 -64.5 -9z" />
    <glyph glyph-name="tilde" unicode="&#x2dc;" horiz-adv-x="465" 
d="M344 618c-16 0 -30.998 3.00098 -44.998 9.00098s-31.667 18 -53 36c-15.333 13.333 -26.833 22 -34.5 26s-15.5 6 -23.5 6c-16.667 0.666992 -29.334 -4.83301 -38.001 -16.5s-13.667 -29.167 -15 -52.5h-29c3.33301 46 14.166 81.167 32.499 105.5s43.5 36.5 75.5 36.5
c17.333 0 33.166 -2.83301 47.499 -8.5s32.166 -17.167 53.499 -34.5c14.667 -12.667 26.167 -20.834 34.5 -24.501s16.5 -5.5 24.5 -5.5c14.667 0 25.834 4.5 33.501 13.5s13.834 26.167 18.501 51.5h29c-6.66699 -50.667 -19 -87 -37 -109s-42.667 -33 -74 -33z" />
    <glyph glyph-name="hungarumlaut" unicode="&#x2dd;" horiz-adv-x="500" 
d="M122 589h-37.001l43 132c2.66699 9.33301 8.33398 16.333 17.001 21s19.667 7 33 7h80c16 0 24.667 -2.83301 26 -8.5s-4.66699 -14.5 -18 -26.5zM235.999 589h-44l125 132c9.33301 9.33301 19.166 16.333 29.499 21s21.166 7 32.499 7h102
c16.667 0 24.334 -3.5 23.001 -10.5s-10.666 -15.167 -27.999 -24.5z" />
    <glyph glyph-name="pi" unicode="&#x3c0;" horiz-adv-x="714" 
d="M119 -14c-39.333 0 -69.1709 10.502 -89.5039 31.502s-27.833 50.5 -22.5 88.5c3.33301 24.667 11.833 43.5 25.5 56.5s32.5 19.5 56.5 19.5c22.667 0 39.167 -5.83301 49.5 -17.5s14.166 -28.167 11.499 -49.5c-2.66699 -22 -11 -39 -25 -51s-33 -19 -57 -21
c4.66699 -6.66699 11.5 -11.834 20.5 -15.501s20.5 -5.5 34.5 -5.5c28.667 0 50.834 13.833 66.501 41.5s28.167 78.5 37.5 152.5l28 242h-9c-40.667 0 -74.167 -5.5 -100.5 -16.5s-52.166 -29.833 -77.499 -56.5l-20 17c28.667 38.667 59.667 65 93 79s76 21 128 21h412
l-6 -44h-115l-42 -344c-5.33301 -30.667 -5.16602 -52.667 0.500977 -66s17.834 -20 36.501 -20c21.333 0 37.5 9.83301 48.5 29.5s20.5 58.167 28.5 115.5h36c-10 -75.333 -26.667 -125.333 -50 -150s-59 -37 -107 -37s-83 12.167 -105 36.5s-30.667 60.166 -26 107.499
l39 328h-117l-30 -240c-11.333 -86.667 -28.166 -147 -50.499 -181s-56.5 -51 -102.5 -51z" />
    <glyph glyph-name="uni0401" unicode="&#x401;" horiz-adv-x="588" 
d="M328 830c-0.666992 -21.333 -9.16602 -40.002 -25.499 -56.002s-36.833 -24 -61.5 -24c-22.667 0 -40.167 6.83301 -52.5 20.5s-18.166 31.5 -17.499 53.5c1.33301 22.667 10.166 41.834 26.499 57.501s37.166 23.5 62.499 23.5c22 0 39.167 -7.16699 51.5 -21.5
s17.833 -32.166 16.5 -53.499zM541.001 829.998c-0.666992 -21.333 -9.16602 -40.002 -25.499 -56.002s-37.166 -24 -62.499 -24c-22.667 0 -40 6.83301 -52 20.5s-17.667 31.5 -17 53.5c1.33301 22.667 10.166 41.834 26.499 57.501s37.166 23.5 62.499 23.5
c22 0 39.167 -7.16699 51.5 -21.5s17.833 -32.166 16.5 -53.499zM504.002 -0.00390625h-502l5 37h76l75 616h-76l5 37h484l-27 -220h-38l4 35c7.33301 52 0 89.667 -22 113s-62 35 -120 35h-68l-35 -283h124l9 74h42l-24 -195h-42l10 84h-124l-36 -296h107
c49.333 0 86.5 11.833 111.5 35.5s41.167 64.5 48.5 122.5l3 29h38z" />
    <glyph glyph-name="uni0402" unicode="&#x402;" horiz-adv-x="736" 
d="M611 55c-24 -20.667 -51.832 -36.833 -83.499 -48.5s-61.5 -17.5 -89.5 -17.5l-3 24c32.667 11.333 58.834 33.666 78.501 66.999s33.167 79 40.5 137c6 50 2 87.833 -12 113.5s-37.667 38.5 -71 38.5c-30 0 -55.167 -9.5 -75.5 -28.5s-33.5 -45.5 -39.5 -79.5l-27 -224
h65l-4 -37h-299l5 37h91l76 616h-31c-51.333 -1.33301 -87.333 -11.666 -108 -30.999s-34.334 -54 -41.001 -104l-2 -18h-38l24 190h543l-24 -190h-38l2 16c6.66699 50.667 2 85.834 -14 105.501s-49.667 30.167 -101 31.5h-30l-36 -289c19.333 22 43 39 71 51s58 18 90 18
c60.667 0 105.667 -18.5 135 -55.5s39.666 -89.5 30.999 -157.5c-4 -34.667 -13.167 -65.834 -27.5 -93.501s-33.5 -51.5 -57.5 -71.5z" />
    <glyph glyph-name="uni0403" unicode="&#x403;" horiz-adv-x="546" 
d="M345 0h-343l5 37h76l75 616h-76l5 37h490l-27 -220h-38l4 35c6.66699 52.667 -1 90.5 -23 113.5s-61.667 34.5 -119 34.5h-74l-76 -616h126zM309 740l-37 -0.000976562l83 108c7.33301 10.667 16 18.334 26 23.001s22.333 7 37 7h110c16.667 0 25 -4 25 -12
s-7.33301 -16 -22 -24z" />
    <glyph glyph-name="uni0404" unicode="&#x404;" horiz-adv-x="588" 
d="M297 -14c-45.333 0 -85.834 10.001 -121.501 30.001s-65.167 49 -88.5 87c-20 32.667 -33.833 70.167 -41.5 112.5s-8.83398 85.833 -3.50098 130.5c5.33301 44 17.5 87.333 36.5 130s42.833 80.667 71.5 114c32 36.667 68 64.834 108 84.501s82 29.5 126 29.5
c27.333 0 52 -3.33301 74 -10s40.333 -16.334 55 -29.001l44 35h23l-29 -230h-37c7.33301 60.667 0.666016 108 -20.001 142s-53.667 51 -99 51c-55.333 0 -98.833 -23.833 -130.5 -71.5s-54.5 -122.5 -68.5 -224.5h237l-2 -37h-240
c-11.333 -102.667 -6.66602 -178.834 14.001 -228.501s58 -74.5 112 -74.5c47.333 0 85.833 17.333 115.5 52s48.5 83 56.5 145h37l-29 -234h-22l-35 39c-23.333 -14.667 -46.666 -25.5 -69.999 -32.5s-47.666 -10.5 -72.999 -10.5z" />
    <glyph glyph-name="uni0405" unicode="&#x405;" horiz-adv-x="533" 
d="M491 200c-8 -67.333 -32.8281 -119.83 -74.4951 -157.497s-96.5 -56.5 -164.5 -56.5c-33.333 0 -63 4 -89 12s-50.667 21 -74 39l-45 -47h-23l29 233h38c-7.33301 -56 4.66699 -102.667 36 -140s75.333 -56 132 -56c42.667 0 76 9.5 100 28.5s38.333 46.833 43 83.5
c2.66699 22.667 0.166992 41.667 -7.5 57s-21.5 28.333 -41.5 39c-14 7.33301 -35.667 15.666 -65 24.999s-44.333 14 -45 14c-64 19.333 -108.333 47.5 -133 84.5s-33.334 84.833 -26.001 143.5c8.66699 63.333 33 112.833 73 148.5s93 53.5 159 53.5
c30.667 0 58.667 -4.33301 84 -13s44.666 -20.667 57.999 -36l42 45h22l-28 -230h-38c6.66699 53.333 -3.83301 98.5 -31.5 135.5s-65.167 55.5 -112.5 55.5c-39.333 0 -71 -9.33301 -95 -28s-38 -45 -42 -79c-2.66699 -22 -0.333984 -40.5 6.99902 -55.5
s20.333 -27.833 39 -38.5c8 -4.66699 17.5 -9.33398 28.5 -14.001s36.833 -13.667 77.5 -27c71.333 -24 118.666 -52.833 141.999 -86.5s31.666 -77.834 24.999 -132.501z" />
    <glyph glyph-name="uni0406" unicode="&#x406;" horiz-adv-x="365" 
d="M302 0h-300l5 37h79l75 616h-79l5 37h299l-4 -37h-79l-75 -616h78z" />
    <glyph glyph-name="uni0407" unicode="&#x407;" horiz-adv-x="365" 
d="M302 0h-300l5 37h79l75 616h-79l5 37h299l-4 -37h-79l-75 -616h78zM232 829c-0.666992 -21.333 -9.16602 -40.002 -25.499 -56.002s-36.833 -24 -61.5 -24c-22.667 0 -40.167 6.83301 -52.5 20.5s-18.166 31.5 -17.499 53.5c1.33301 22.667 10.166 41.834 26.499 57.501
s37.166 23.5 62.499 23.5c22 0 39.167 -7.16699 51.5 -21.5s17.833 -32.166 16.5 -53.499zM445.001 828.998c-0.666992 -21.333 -9.16602 -40.002 -25.499 -56.002s-37.166 -24 -62.499 -24c-22.667 0 -40 6.83301 -52 20.5s-17.667 31.5 -17 53.5
c1.33301 22.667 10.166 41.834 26.499 57.501s37.166 23.5 62.499 23.5c22 0 39.167 -7.16699 51.5 -21.5s17.833 -32.166 16.5 -53.499z" />
    <glyph glyph-name="uni0408" unicode="&#x408;" horiz-adv-x="478" 
d="M141 -14c-53.333 0 -93.3311 12.998 -119.998 38.998s-37.334 62 -32.001 108c3.33301 26.667 13.333 48.334 30 65.001s37.334 25 62.001 25c23.333 0 40.833 -7.16699 52.5 -21.5s16.167 -32.833 13.5 -55.5s-11.5 -40.667 -26.5 -54s-35.5 -21.333 -61.5 -24
c3.33301 -12 11 -21.667 23 -29s26.667 -11 44 -11c35.333 0 61.333 12 78 36s29 68.667 37 134l55 455h-106l5 37h324l-5 -37h-76l-50 -409c-10.667 -89.333 -35.334 -154.666 -74.001 -195.999s-96.334 -62 -173.001 -62z" />
    <glyph glyph-name="uni0409" unicode="&#x409;" horiz-adv-x="919" 
d="M274 278c-21.333 -109.333 -45.6729 -185.33 -73.0059 -227.997s-65.666 -64 -114.999 -64c-34.667 0 -61.667 10.833 -81 32.5s-26.666 51.167 -21.999 88.5c2.66699 24.667 12 45 28 61s35.667 24 59 24c22.667 0 39.834 -6.83301 51.501 -20.5
s16.167 -31.167 13.5 -52.5c-3.33301 -21.333 -11 -38 -23 -50s-28.333 -19 -49 -21c2 -7.33301 5.33301 -12.833 10 -16.5s11 -5.83398 19 -6.50098c34 0.666992 61.667 22.5 83 65.5s41.333 117.167 60 222.5c7.33301 40.667 15 88.167 23 142.5s17 120.166 27 197.499
h-96l5 37h508l-4 -37h-76l-31 -254h52c80.667 0 143.834 -18.333 189.501 -55s64.834 -85.334 57.501 -146.001c-7.33301 -63.333 -34.666 -112.166 -81.999 -146.499s-111 -51.5 -191 -51.5h-293l5 37h79l75 616h-151c-12 -90.667 -22.5 -165.334 -31.5 -224.001
s-17.833 -109 -26.5 -151zM585.993 361.003l-39.998 -324h39c48.667 0 85.667 12.833 111 38.5s41.666 66.5 48.999 122.5c6.66699 52.667 -0.333008 93 -21 121s-53.334 42 -98.001 42h-40z" />
    <glyph glyph-name="uni040A" unicode="&#x40a;" horiz-adv-x="967" 
d="M632 347l-38 -310h39c48 0 84.833 12.5 110.5 37.5s41.834 64.167 48.501 117.5c6 49.333 -1.33301 87.5 -22 114.5s-53.334 40.5 -98.001 40.5h-40zM288 0l-286 -0.000976562l4 37h76l76 616h-76l5 37h286l-5 -37h-68l-35 -282h228l35 282h-69l5 37h286l-5 -37h-75
l-33 -269h52c80 0 143.167 -17.667 189.5 -53s65.833 -81.666 58.5 -138.999c-7.33301 -60.667 -35.5 -107.5 -84.5 -140.5s-116.167 -50.167 -201.5 -51.5h-272l5 37h68l37 296h-228l-37 -296h68z" />
    <glyph glyph-name="uni040B" unicode="&#x40b;" horiz-adv-x="796" 
d="M393 0l-297.998 0.00195312l4 37h92l75 616h-31c-51.333 -1.33301 -87.333 -11.666 -108 -30.999s-34.334 -54 -41.001 -104l-2 -18h-37l24 190h542l-24 -190h-37l2 16c6.66699 51.333 2 86.666 -14 105.999s-50 29.666 -102 30.999h-30l-36 -292c20 22 43.667 39 71 51
s57.333 18 90 18c60 0 102.667 -16.333 128 -49s34 -82.334 26 -149.001l-24 -195h73l-5 -37h-276l4 37h66l23 196c5.33301 46 1.83301 79.833 -10.5 101.5s-34.833 32.5 -67.5 32.5c-29.333 0 -53.333 -9.33301 -72 -28s-31.334 -45.667 -38.001 -81l-27 -221h65z" />
    <glyph glyph-name="uni040C" unicode="&#x40c;" horiz-adv-x="673" 
d="M516 -14c-37.333 0 -66 10.667 -86 32s-34.333 59 -43 113c-5.33301 33.333 -9.83301 60.166 -13.5 80.499s-6.83398 33.833 -9.50098 40.5c-8 28 -18.5 48.5 -31.5 61.5s-29.167 19.5 -48.5 19.5h-27l-36 -296h75l-5 -37h-289l5 37h76l75 616h-76l5 37h276l-5 -37h-62
l-34 -282h41c20 0 37.833 8.83301 53.5 26.5s34.5 56.167 56.5 115.5c14 36.667 25.167 63.667 33.5 81s17.166 32.333 26.499 45c15.333 22 32.5 38.333 51.5 49s40.5 16 64.5 16c26.667 0 48 -7.83301 64 -23.5s24 -36.5 24 -62.5c0 -28 -8.33301 -51.333 -25 -70
s-37.667 -28 -63 -28c-21.333 0 -38.166 6.33301 -50.499 19s-18.5 29.667 -18.5 51c0 12.667 2.5 24.334 7.5 35.001s11.833 19.667 20.5 27c-16 -9.33301 -30.833 -24 -44.5 -44s-30.5 -55.667 -50.5 -107c-22 -54.667 -40.167 -91.5 -54.5 -110.5
s-30.166 -31.5 -47.499 -37.5c38.667 -12.667 68.334 -24.5 89.001 -35.5s36.667 -23.5 48 -37.5c11.333 -13.333 20.166 -30.166 26.499 -50.499s12.833 -53.166 19.5 -98.499c8 -44.667 14.333 -70.834 19 -78.501s11 -11.5 19 -11.5c10 0 18.667 9.66699 26 29
s13.333 48.666 18 87.999h36c-8 -65.333 -22.5 -110.333 -43.5 -135s-51.833 -37 -92.5 -37zM411 740l-37 -0.000976562l83 108c7.33301 10.667 16 18.334 26 23.001s22.333 7 37 7h110c16.667 0 25 -4 25 -12s-7.33301 -16 -22 -24z" />
    <glyph glyph-name="uni040E" unicode="&#x40e;" horiz-adv-x="580" 
d="M286 89c-24.667 -38.667 -47.667 -65.498 -69 -80.498s-49 -22.5 -83 -22.5c-36 0 -63.5 11.5 -82.5 34.5s-26.167 54.5 -21.5 94.5c3.33301 25.333 13.166 46 29.499 62s36.5 24 60.5 24c22.667 0 39.834 -7 51.501 -21s16.167 -32.333 13.5 -55
c-3.33301 -22.667 -12.333 -40.334 -27 -53.001s-34.667 -20 -60 -22c4 -8 10 -14 18 -18s18 -6 30 -6c22.667 0 42.667 8.16699 60 24.5s39.666 49.166 66.999 98.499l-166 504h-67l5 37h318l-5 -37h-102l108 -331l171 331h-88l5 37h200l-5 -37h-65l-202 -392
c-22.667 -44.667 -41.167 -80 -55.5 -106s-27.166 -48 -38.499 -66zM610 894.002c-5.33301 -42.667 -27.498 -78.834 -66.498 -108.501s-86.167 -44.5 -141.5 -44.5c-56 0 -99.833 14.833 -131.5 44.5s-44.834 65.834 -39.501 108.501c2 20 9.66699 36.333 23 49
s30 19 50 19c18 0 31.667 -5 41 -15s13 -23.333 11 -40c-2.66699 -20 -12.5 -35.833 -29.5 -47.5s-37.5 -15.167 -61.5 -10.5c8.66699 -11.333 26.5 -20.666 53.5 -27.999s57.5 -11 91.5 -11c36 0 68.667 3.66699 98 11s49.333 16.666 60 27.999
c-27.333 -6 -48 -3.33301 -62 8s-19.667 28 -17 50c1.33301 16 8.16602 29.167 20.499 39.5s27.5 15.5 45.5 15.5c19.333 0 33.833 -6.16699 43.5 -18.5s13.5 -28.833 11.5 -49.5z" />
    <glyph glyph-name="uni040F" unicode="&#x40f;" horiz-adv-x="722" 
d="M381 -151c-2.66699 -19.333 -11.3311 -35.499 -25.998 -48.499s-33 -19.5 -55 -19.5s-38.833 6.5 -50.5 19.5s-16.167 29.167 -13.5 48.5c1.33301 9.33301 4.16602 19.333 8.49902 30s13.166 26.334 26.499 47.001c12 19.333 20.5 34.166 25.5 44.499
s8.5 20.166 10.5 29.499h-305l4 37h76l76 616h-76l5 37h279l-4 -37h-62l-76 -616h215l76 616h-62l4 37h280l-5 -37h-76l-75 -616h76l-5 -37h-303c0 -9.33301 1.16699 -19.166 3.5 -29.499s6.83301 -24.833 13.5 -43.5c7.33301 -20.667 12 -36.334 14 -47.001
s2.33301 -21 1 -31z" />
    <glyph glyph-name="uni0410" unicode="&#x410;" 
d="M283 521l-113 -248h166zM160 0h-208l5 37h62l305 663h66l144 -663h64l-5 -37h-319l5 37h107l-42 199h-190l-91 -199h101z" />
    <glyph glyph-name="uni0411" unicode="&#x411;" horiz-adv-x="610" 
d="M271 0l-269 -0.000976562l5 37h76l75 616h-76l5 37h495l-27 -214h-37l3 29c6.66699 52.667 -1 90.5 -23 113.5s-61.667 34.5 -119 34.5h-79l-33 -262h58c80 0 143.333 -18 190 -54s66.334 -83.333 59.001 -142c-8 -63.333 -37.833 -111.666 -89.5 -144.999
s-122.834 -50 -213.501 -50zM263 353.999l-38.999 -317.001h45c48 0 85 12.667 111 38s42.333 65.333 49 120c6 50.667 -1.33301 89.834 -22 117.501s-53.334 41.5 -98.001 41.5h-46z" />
    <glyph glyph-name="uni0412" unicode="&#x412;" horiz-adv-x="637" 
d="M288 0h-286.003l5 37h76l75 616h-76l5 37h238c96 0 166.833 -13.833 212.5 -41.5s66.167 -69.167 61.5 -124.5c-3.33301 -44 -21.833 -81.167 -55.5 -111.5s-77.167 -48.833 -130.5 -55.5c60.667 -9.33301 106.334 -27.833 137.001 -55.5s44.334 -63.167 41.001 -106.5
c-5.33301 -62 -34.166 -110 -86.499 -144s-124.5 -51 -216.5 -51zM299.997 653l-34.998 -282h49c40.667 0 73.5 13.833 98.5 41.5s39.5 65.5 43.5 113.5c3.33301 44 -5.33398 76.167 -26.001 96.5s-55.334 30.5 -104.001 30.5h-26zM260.999 336l-37.002 -299h55
c50.667 0 89.334 13.667 116.001 41s42.334 69.333 47.001 126c4 44 -4.5 77 -25.5 99s-54.833 33 -101.5 33h-54z" />
    <glyph glyph-name="uni0413" unicode="&#x413;" horiz-adv-x="546" 
d="M345 0h-343l5 37h76l75 616h-76l5 37h490l-27 -220h-38l4 35c6.66699 52.667 -1 90.5 -23 113.5s-61.667 34.5 -119 34.5h-74l-76 -616h126z" />
    <glyph glyph-name="uni0414" unicode="&#x414;" horiz-adv-x="648" 
d="M115 37h243l75 616h-157c-20 -160 -43.167 -290.667 -69.5 -392s-56.833 -176 -91.5 -224zM-6 -180l-37 0.000976562l26 217h76c40 45.333 72.667 114.166 98 206.499s49 228.833 71 409.5h-83l4 37h507l-5 -37h-76l-75 -616h102l-27 -217h-37l2 25
c7.33301 56.667 1.33301 96.667 -18 120s-57 35 -113 35h-243c-55.333 0 -95.5 -11.5 -120.5 -34.5s-41.167 -63.167 -48.5 -120.5z" />
    <glyph glyph-name="uni0415" unicode="&#x415;" horiz-adv-x="577" 
d="M493 0h-491l5 37h76l75 616h-76l5 37h473l-27 -220h-38l4 35c6.66699 50.667 -0.333008 87.5 -21 110.5s-58 35.167 -112 36.5h-66l-35 -282h116l9 74h43l-24 -195h-43l10 84h-116l-36 -296h96c49.333 0 86.5 11.833 111.5 35.5s41.167 64.5 48.5 122.5l3 29h38z" />
    </font>
</defs>
</svg>
